<?xml version="1.0" encoding="utf-8"?>
<!-- Generator: Adobe Illustrator 23.0.3, SVG Export Plug-In . SVG Version: 6.00 Build 0)  -->
<svg version="1.1" xmlns="http://www.w3.org/2000/svg" xmlns:xlink="http://www.w3.org/1999/xlink" x="0px" y="0px"
	 viewBox="0 0 750 500" style="enable-background:new 0 0 750 500;" xml:space="preserve">
<style type="text/css">
	.st0{fill:#E9EAEB;}
	.st1{fill:none;stroke:#263238;stroke-linecap:round;stroke-linejoin:round;stroke-miterlimit:10;}
	.st2{display:none;}
	.st3{display:inline;fill:#0169EE;}
	.st4{display:inline;fill:#263238;}
	.st5{font-family:'Montserrat-Bold';}
	.st6{font-size:10.9023px;}
	.st7{display:inline;}
	.st8{fill:#FFFFFF;}
	.st9{fill:#263238;}
	.st10{font-size:53.4998px;}
	.st11{display:inline;fill:none;}
	.st12{font-family:'Montserrat-Light';}
	.st13{font-size:8.6904px;}
	.st14{font-size:12.4686px;}
	.st15{fill:#F0AE00;}
	.st16{fill:#263238;stroke:#263238;stroke-linecap:round;stroke-linejoin:round;stroke-miterlimit:10;}
	.st17{fill:#FFFFFF;stroke:#263238;stroke-linecap:round;stroke-linejoin:round;stroke-miterlimit:10;}
	.st18{fill:none;stroke:#263238;stroke-width:2;stroke-linecap:round;stroke-linejoin:round;stroke-miterlimit:10;}
	.st19{fill:#FFFFFF;stroke:#263238;stroke-width:2;stroke-linecap:round;stroke-linejoin:round;stroke-miterlimit:10;}
	.st20{fill:none;stroke:#FFFFFF;stroke-linecap:round;stroke-linejoin:round;stroke-miterlimit:10;}
	.st21{fill:none;stroke:#263238;stroke-width:3;stroke-linecap:round;stroke-linejoin:round;stroke-miterlimit:10;}
	.st22{fill:none;stroke:#F0AE00;stroke-linecap:round;stroke-linejoin:round;stroke-miterlimit:10;}
	.st23{fill:#263238;stroke:#FFFFFF;stroke-miterlimit:10;}
	.st24{display:inline;fill:#FFFFFF;}
	.st25{display:none;fill:none;stroke:#263238;stroke-linecap:round;stroke-linejoin:round;stroke-miterlimit:10;}
	.st26{display:inline;fill:none;stroke:#263238;stroke-linecap:round;stroke-linejoin:round;stroke-miterlimit:10;}
	.st27{fill:#A2A7A9;}
</style>
<g id="BACKGROUND">
	<path class="st0" d="M739.61,242.87c0,0-14.86-78.16-98.31-121.83c-83.45-43.68-185.19-32.18-227.49,16.09
		c-42.3,48.27-38.87,133.33-83.45,131.03c-44.58-2.3-61.73-63.22-123.46-24.14c-61.73,39.08-29.72,91.95-34.29,125.28
		c-4.57,33.33-57.16-18.39-99.45-4.6C30.86,378.5,11.43,417.57,16,440.56S0,492.28,0,492.28h746.47
		C746.47,492.28,757.9,342.86,739.61,242.87z"/>
	<line class="st1" x1="0" y1="491.91" x2="750" y2="491.91"/>
</g>
<g id="OBJECTS">
	<g class="st2">
		<path class="st3" d="M79.96,332.17H7.1c-3.35,0-6.06-2.71-6.06-6.06v-10.09c0-3.35,2.71-6.06,6.06-6.06h72.86
			c3.35,0,6.06,2.71,6.06,6.06v10.09C86.01,329.45,83.3,332.17,79.96,332.17z"/>
		<path class="st3" d="M694.3,82.87h-45.93c-2.71,0-4.91-2.2-4.91-4.91v-12.4c0-2.71,2.2-4.91,4.91-4.91h45.93
			c2.71,0,4.91,2.2,4.91,4.91v12.4C699.2,80.68,697.01,82.87,694.3,82.87z"/>
	</g>
	<g class="st2">
		<text transform="matrix(1 0 0 1 384.2877 74.7723)" class="st4 st5 st6">ABOUT</text>
		<g class="st7">
			<text transform="matrix(1 0 0 1 4.5304 325.2142)" class="st8 st5 st6">LEARN MORE</text>
		</g>
		<text transform="matrix(1 0 0 1 479.5885 74.7723)" class="st4 st5 st6">CONTACT</text>
		<g class="st7">
			<text transform="matrix(1 0 0 1 648.0035 74.7723)" class="st8 st5 st6">SIGN UP</text>
		</g>
		<text transform="matrix(1 0 0 1 585.1725 74.7723)" class="st4 st5 st6">LOG IN</text>
		<text transform="matrix(1 0 0 1 1.0412 168.3011)" class="st7"><tspan x="0" y="0" class="st9 st5 st10">Online</tspan><tspan x="0" y="46.67" class="st9 st5 st10">Training</tspan></text>
		<rect x="1.04" y="232.91" class="st11" width="122.37" height="59.65"/>
		<text transform="matrix(1 0 0 1 1.0416 239.3558)" class="st7"><tspan x="0" y="0" class="st9 st12 st13">Lorem ipsum dolor sit amet, </tspan><tspan x="0" y="10.43" class="st9 st12 st13">consectetuer adipiscing elit, </tspan><tspan x="0" y="20.86" class="st9 st12 st13">sed diam nonummy nibh </tspan><tspan x="0" y="31.29" class="st9 st12 st13">euismod tincidunt ut </tspan><tspan x="0" y="41.71" class="st9 st12 st13">laoreet dolore magna </tspan></text>
		<text transform="matrix(1 0 0 1 283.6105 73.8778)" class="st4 st5 st14">HOME</text>
	</g>
	<g class="st2">
		<g class="st7">
			<path class="st9" d="M21.53,66.61H2.7c-0.92,0-1.66-0.74-1.66-1.66l0,0c0-0.92,0.74-1.66,1.66-1.66h18.83
				c0.92,0,1.66,0.74,1.66,1.66l0,0C23.19,65.87,22.45,66.61,21.53,66.61z"/>
			<path class="st9" d="M21.53,72.53H2.7c-0.92,0-1.66-0.74-1.66-1.66l0,0c0-0.92,0.74-1.66,1.66-1.66h18.83
				c0.92,0,1.66,0.74,1.66,1.66l0,0C23.19,71.79,22.45,72.53,21.53,72.53z"/>
			<path class="st9" d="M21.53,78.46H2.7c-0.92,0-1.66-0.74-1.66-1.66l0,0c0-0.92,0.74-1.66,1.66-1.66h18.83
				c0.92,0,1.66,0.74,1.66,1.66l0,0C23.19,77.71,22.45,78.46,21.53,78.46z"/>
		</g>
		<g class="st7">
			<path class="st9" d="M323.48,82.77h-38.79c-0.59,0-1.07-0.48-1.07-1.07c0-0.59,0.48-1.07,1.07-1.07h38.79
				c0.59,0,1.07,0.48,1.07,1.07C324.55,82.29,324.07,82.77,323.48,82.77z"/>
		</g>
	</g>
	<g>
		<path class="st15" d="M130.45,374.75c3.13,1.37,10.8,1.2,10.8,1.2c0.08,0-1.65-5.02-1.79-5.32c-1.68-3.52-7-9.32-11.32-8.74
			c-3.12,0.42-4.85,3.54-4.15,6.47C124.7,371.36,127.78,373.59,130.45,374.75z"/>
		<path class="st15" d="M133.09,396.95c3.25,0.47,10.09-1.51,10.63-1.67c1.08,3.83,2.5,7.67,4.15,11.48c0.94,2.18,1.96,4.34,3,6.5
			c-0.62-0.91-1.19-1.73-1.28-1.83c-2.55-2.95-9.21-7.15-13.23-5.44c-2.9,1.23-3.74,4.69-2.29,7.34c1.48,2.7,5.04,4.04,7.92,4.46
			c2.92,0.43,8.79-1.15,10.34-1.58c0.41,0.82,0.81,1.65,1.22,2.47c1.98,3.94,3.97,7.87,5.81,11.78c0.65,1.38,1.24,2.76,1.83,4.14
			c-0.56-0.81-1.03-1.49-1.11-1.59c-2.55-2.95-9.21-7.15-13.23-5.44c-2.89,1.23-3.74,4.7-2.29,7.34c1.49,2.7,5.04,4.04,7.92,4.46
			c2.79,0.41,8.22-1,10.06-1.51c0.56,1.43,1.13,2.86,1.62,4.28c0.31,0.97,0.67,1.89,0.93,2.88c0.27,0.98,0.54,1.95,0.81,2.91
			c0.45,1.86,0.92,3.79,1.31,5.62c0.28,1.27,0.53,2.49,0.78,3.71c-0.63-1.38-1.92-4.05-2.05-4.26c-2.07-3.3-8.02-8.46-12.25-7.38
			c-3.05,0.78-4.41,4.07-3.37,6.91c1.06,2.89,4.37,4.75,7.15,5.6c3.07,0.94,9.85,0.08,10.7-0.03c0.41,2.03,0.78,4,1.11,5.88
			c0.73,4.13,1.28,7.83,1.69,10.96h2.86c-0.5-3.24-1.15-7.1-2.01-11.44c-0.4-2.06-0.88-4.26-1.39-6.5c0.51-0.2,3.41-1.37,5.97-2.81
			c2.23,2.42,7.96,5.25,8.7,5.61c-0.78,1.92-1.56,3.77-2.32,5.51c-1.58,3.64-3.09,6.88-4.41,9.62h3.09c1.14-2.53,2.4-5.42,3.7-8.62
			c0.8-1.94,1.62-4.03,2.43-6.19c0.82,0.17,7.54,1.54,10.67,0.83c2.84-0.64,6.28-2.25,7.55-5.06c1.24-2.75,0.13-6.14-2.85-7.14
			c-4.14-1.39-10.45,3.31-12.77,6.45c-0.14,0.18-1.39,2.36-2.16,3.74c0.33-0.88,0.66-1.74,0.99-2.65c0.66-1.8,1.27-3.62,1.93-5.57
			c0.29-0.95,0.57-1.92,0.86-2.89c0.31-0.96,0.51-2.01,0.78-3.02c0.56-2.36,1.02-4.79,1.42-7.24c1.58,0.57,7.21,2.53,10.13,2.33
			c2.9-0.2,6.55-1.27,8.23-3.85c1.65-2.53,1.06-6.05-1.74-7.49c-3.88-2-10.84,1.69-13.6,4.44c-0.17,0.17-1.93,2.37-2.88,3.59
			c0.23-1.47,0.47-2.95,0.66-4.44c0.54-4.33,0.95-8.73,1.37-13.11c0.13-1.34,0.28-2.68,0.42-4.02c0.56,0.21,7.2,2.68,10.47,2.45
			c2.9-0.2,6.55-1.27,8.23-3.85c1.65-2.53,1.06-6.05-1.74-7.49c-3.88-2-10.84,1.69-13.6,4.44c-0.21,0.21-2.74,3.37-3.34,4.21
			c0.31-2.95,0.65-5.89,1.1-8.77c0.62-3.98,1.44-7.84,2.52-11.53c0.26,0.1,7.18,2.71,10.53,2.48c2.91-0.2,6.55-1.27,8.23-3.85
			c1.65-2.53,1.06-6.05-1.74-7.49c-3.88-2-10.84,1.69-13.6,4.44c-0.22,0.22-2.94,3.62-3.38,4.27c0.06-0.22,0.11-0.45,0.17-0.67
			c1.2-3.92,2.85-7.57,4.57-10.91c0.99-1.94,2.05-3.74,3.12-5.47c1.24,0.62,6.94,3.38,9.97,3.51c2.91,0.12,6.65-0.54,8.6-2.93
			c1.91-2.33,1.72-5.9-0.9-7.64c-3.64-2.42-10.96,0.49-14,2.92c-0.17,0.13-1.7,1.66-2.81,2.79c0.49-0.77,0.99-1.58,1.48-2.31
			c1.83-2.75,3.67-5.16,5.32-7.27c0.95-1.2,1.83-2.26,2.66-3.25c1.53-0.03,7.71-0.21,10.41-1.48c2.63-1.24,5.65-3.55,6.29-6.56
			c0.62-2.95-1.19-6.02-4.32-6.36c-4.34-0.47-9.5,5.48-11.08,9.04c-0.14,0.31-1.73,5.37-1.65,5.37c0,0,0.07,0,0.09,0
			c-0.82,0.93-1.69,1.94-2.62,3.06c-1.7,2.09-3.6,4.46-5.49,7.18c-1.9,2.71-3.89,5.72-5.69,9.07c-1.82,3.36-3.55,6.98-4.86,10.95
			c-0.02,0.04-0.02,0.09-0.04,0.14c0.02-1.28-0.03-4.86-0.07-5.13c-0.5-3.87-3.74-11.04-8.03-11.84c-3.09-0.57-5.71,1.85-5.96,4.86
			c-0.25,3.07,1.98,6.15,4.15,8.09c2.45,2.19,9.25,4.31,9.79,4.47c-1.21,3.79-2.15,7.77-2.87,11.86c-0.42,2.34-0.76,4.7-1.08,7.08
			c-0.02-1.11-0.04-2.1-0.06-2.23c-0.5-3.87-3.74-11.04-8.03-11.84c-3.09-0.57-5.71,1.85-5.96,4.86c-0.25,3.07,1.98,6.15,4.15,8.09
			c2.2,1.97,7.96,3.89,9.49,4.38c-0.11,0.91-0.23,1.82-0.34,2.74c-0.52,4.38-1.03,8.76-1.65,13.03c-0.22,1.51-0.49,2.98-0.76,4.46
			c-0.02-0.98-0.04-1.81-0.05-1.94c-0.5-3.87-3.74-11.04-8.03-11.84c-3.09-0.57-5.71,1.85-5.96,4.86c-0.25,3.07,1.98,6.15,4.15,8.08
			c2.1,1.88,7.4,3.7,9.22,4.29c-0.32,1.51-0.63,3.01-1.01,4.46c-0.28,0.98-0.48,1.94-0.82,2.91c-0.31,0.97-0.62,1.92-0.93,2.87
			c-0.66,1.8-1.32,3.67-2.01,5.41c-0.47,1.22-0.93,2.37-1.4,3.52c0.24-1.5,0.64-4.44,0.64-4.69c0.06-2.59-0.86-6.8-2.69-9.76
			c0.01-0.38-0.01-0.76-0.07-1.14c-0.48-2.98-3.28-5.19-6.32-4.38c-4.22,1.12-6.89,8.53-7.09,12.42c-0.01,0.23,0.14,2.74,0.26,4.32
			c-0.21-0.92-0.41-1.81-0.64-2.75c-0.44-1.87-0.94-3.71-1.47-5.71c-0.29-0.95-0.58-1.91-0.87-2.89c-0.27-0.97-0.68-1.96-1.02-2.95
			c-0.83-2.28-1.79-4.55-2.81-6.82c1.63-0.39,7.41-1.86,9.73-3.65c2.31-1.77,4.76-4.67,4.74-7.75c-0.02-3.02-2.45-5.63-5.58-5.29
			c-4.34,0.47-8.11,7.39-8.9,11.2c-0.05,0.24-0.31,3.04-0.42,4.58c-0.62-1.36-1.23-2.72-1.91-4.07c-1.94-3.91-4.02-7.8-6.09-11.69
			c-0.63-1.19-1.25-2.39-1.87-3.58c0.58-0.13,7.49-1.74,10.09-3.73c2.31-1.77,4.76-4.67,4.74-7.75c-0.02-3.02-2.45-5.63-5.58-5.29
			c-4.34,0.47-8.11,7.39-8.89,11.2c-0.06,0.29-0.42,4.32-0.47,5.35c-1.37-2.63-2.7-5.27-3.92-7.92c-1.68-3.66-3.12-7.34-4.26-11
			c0.27-0.06,7.49-1.7,10.15-3.74c2.31-1.77,4.76-4.67,4.74-7.75c-0.02-3.02-2.45-5.63-5.58-5.29c-4.34,0.47-8.11,7.39-8.89,11.2
			c-0.06,0.3-0.45,4.64-0.47,5.43c-0.07-0.22-0.16-0.44-0.23-0.65c-1.16-3.93-1.8-7.89-2.21-11.62c-0.24-2.17-0.35-4.25-0.42-6.29
			c1.38-0.17,7.65-1,10.25-2.58c2.49-1.51,5.25-4.12,5.56-7.19c0.31-3-1.82-5.86-4.97-5.87c-4.37-0.01-8.87,6.45-10.07,10.16
			c-0.07,0.2-0.5,2.33-0.8,3.88c-0.01-0.92-0.05-1.86-0.04-2.74c0.01-3.3,0.21-6.32,0.42-9c0.13-1.52,0.28-2.89,0.43-4.18
			c1.26-0.87,6.31-4.43,7.87-6.98c1.52-2.49,2.76-6.07,1.62-8.94c-1.11-2.81-4.32-4.37-7.11-2.92c-3.88,2-4.9,9.81-4.26,13.66
			c0.06,0.33,1.52,5.43,1.59,5.39c0,0,0.06-0.04,0.08-0.05c-0.17,1.23-0.34,2.55-0.49,4c-0.27,2.68-0.54,5.7-0.62,9.02
			c-0.09,3.31-0.09,6.91,0.25,10.7c0.34,3.8,0.89,7.78,1.98,11.81c0.01,0.05,0.03,0.09,0.04,0.14c-0.69-1.08-2.71-4.03-2.89-4.24
			c-2.55-2.95-9.21-7.15-13.23-5.44c-2.89,1.23-3.74,4.7-2.29,7.34C126.66,395.19,130.21,396.53,133.09,396.95z"/>
		<path class="st15" d="M207.96,376.44c0.07,0.04,1.39-5.09,1.44-5.43c0.54-3.86-0.69-11.64-4.63-13.54c-2.83-1.37-6,0.28-7.03,3.11
			c-1.05,2.9,0.28,6.45,1.86,8.89C201.46,372.35,207.95,376.44,207.96,376.44z"/>
	</g>
	<g>
		<path class="st15" d="M681.38,431.59c1.87,0.82,6.46,0.72,6.46,0.72c0.05,0-0.99-3-1.07-3.18c-1.01-2.1-4.19-5.58-6.77-5.23
			c-1.86,0.25-2.9,2.12-2.48,3.87C677.95,429.56,679.79,430.89,681.38,431.59z"/>
		<path class="st15" d="M682.96,444.86c1.94,0.28,6.03-0.9,6.36-1c0.65,2.29,1.49,4.59,2.48,6.86c0.56,1.3,1.17,2.6,1.79,3.89
			c-0.37-0.55-0.71-1.03-0.77-1.1c-1.53-1.76-5.51-4.27-7.91-3.25c-1.73,0.73-2.24,2.81-1.37,4.39c0.89,1.62,3.01,2.41,4.74,2.67
			c1.75,0.25,5.26-0.69,6.18-0.95c0.24,0.49,0.48,0.99,0.73,1.48c1.18,2.36,2.38,4.71,3.48,7.05c0.39,0.82,0.74,1.65,1.09,2.48
			c-0.33-0.49-0.62-0.89-0.67-0.95c-1.53-1.76-5.51-4.27-7.91-3.25c-1.73,0.74-2.24,2.81-1.37,4.39c0.89,1.62,3.01,2.41,4.74,2.66
			c1.67,0.24,4.91-0.6,6.01-0.9c0.34,0.86,0.68,1.71,0.97,2.56c0.18,0.58,0.4,1.13,0.55,1.72c0.16,0.58,0.32,1.16,0.48,1.74
			c0.27,1.12,0.55,2.26,0.78,3.36c0.17,0.76,0.31,1.49,0.46,2.22c-0.38-0.82-1.15-2.42-1.23-2.55c-1.24-1.97-4.8-5.06-7.33-4.41
			c-1.82,0.46-2.64,2.44-2.02,4.13c0.63,1.73,2.61,2.84,4.28,3.35c1.83,0.56,5.89,0.05,6.4-0.02c0.24,1.21,0.47,2.39,0.66,3.51
			c0.44,2.47,0.76,4.68,1.01,6.56h1.71c-0.3-1.94-0.69-4.25-1.2-6.84c-0.24-1.23-0.53-2.54-0.83-3.89c0.31-0.12,2.04-0.82,3.57-1.68
			c1.34,1.45,4.76,3.14,5.2,3.36c-0.47,1.15-0.93,2.26-1.39,3.3c-0.95,2.18-1.85,4.11-2.64,5.76h1.85c0.68-1.52,1.43-3.24,2.21-5.15
			c0.48-1.16,0.97-2.41,1.45-3.7c0.49,0.1,4.51,0.92,6.38,0.5c1.7-0.38,3.76-1.34,4.52-3.02c0.74-1.64,0.08-3.67-1.71-4.27
			c-2.47-0.83-6.25,1.98-7.64,3.86c-0.08,0.11-0.83,1.41-1.29,2.24c0.2-0.53,0.39-1.04,0.59-1.58c0.4-1.08,0.76-2.16,1.15-3.33
			c0.17-0.57,0.34-1.15,0.52-1.73c0.18-0.57,0.31-1.2,0.47-1.81c0.34-1.41,0.61-2.86,0.85-4.33c0.94,0.34,4.31,1.52,6.06,1.39
			c1.74-0.12,3.92-0.76,4.92-2.3c0.98-1.51,0.63-3.62-1.04-4.48c-2.32-1.2-6.48,1.01-8.13,2.65c-0.1,0.1-1.16,1.42-1.72,2.15
			c0.14-0.88,0.28-1.76,0.39-2.66c0.32-2.59,0.57-5.22,0.82-7.84c0.08-0.8,0.17-1.6,0.25-2.4c0.33,0.13,4.31,1.61,6.26,1.47
			c1.74-0.12,3.92-0.76,4.92-2.31c0.98-1.51,0.63-3.62-1.04-4.48c-2.32-1.2-6.48,1.01-8.13,2.65c-0.12,0.12-1.64,2.02-2,2.52
			c0.19-1.76,0.39-3.52,0.66-5.24c0.37-2.38,0.86-4.69,1.5-6.9c0.16,0.06,4.3,1.62,6.3,1.48c1.74-0.12,3.92-0.76,4.92-2.3
			c0.98-1.51,0.63-3.62-1.04-4.48c-2.32-1.2-6.48,1.01-8.13,2.65c-0.13,0.13-1.76,2.17-2.02,2.56c0.04-0.13,0.06-0.27,0.1-0.4
			c0.72-2.35,1.71-4.53,2.73-6.52c0.59-1.16,1.23-2.24,1.87-3.27c0.74,0.37,4.15,2.02,5.96,2.1c1.74,0.07,3.98-0.33,5.15-1.75
			c1.15-1.39,1.03-3.53-0.54-4.57c-2.18-1.44-6.55,0.29-8.38,1.74c-0.1,0.08-1.02,0.99-1.68,1.67c0.3-0.46,0.59-0.95,0.88-1.38
			c1.09-1.65,2.19-3.08,3.18-4.35c0.57-0.72,1.09-1.35,1.59-1.94c0.92-0.02,4.61-0.13,6.23-0.89c1.58-0.74,3.38-2.12,3.76-3.92
			c0.37-1.77-0.71-3.6-2.58-3.8c-2.6-0.28-5.68,3.28-6.63,5.41c-0.08,0.18-1.03,3.21-0.99,3.21c0,0,0.04,0,0.06,0
			c-0.49,0.56-1.01,1.16-1.57,1.83c-1.02,1.25-2.15,2.67-3.28,4.29c-1.14,1.62-2.32,3.42-3.4,5.42c-1.09,2.01-2.13,4.18-2.91,6.55
			c-0.01,0.03-0.01,0.06-0.02,0.08c0.01-0.76-0.02-2.9-0.04-3.07c-0.3-2.31-2.24-6.6-4.81-7.08c-1.85-0.34-3.42,1.11-3.56,2.91
			c-0.15,1.84,1.18,3.68,2.48,4.84c1.46,1.31,5.53,2.58,5.85,2.68c-0.72,2.27-1.28,4.65-1.72,7.09c-0.25,1.4-0.46,2.81-0.65,4.23
			c-0.01-0.66-0.02-1.25-0.03-1.34c-0.3-2.31-2.24-6.6-4.81-7.08c-1.85-0.34-3.42,1.11-3.56,2.91c-0.15,1.84,1.18,3.68,2.48,4.84
			c1.32,1.18,4.76,2.33,5.68,2.62c-0.07,0.55-0.14,1.09-0.21,1.64c-0.31,2.62-0.61,5.24-0.99,7.79c-0.13,0.9-0.29,1.78-0.45,2.67
			c-0.01-0.59-0.02-1.08-0.03-1.16c-0.3-2.31-2.24-6.6-4.8-7.08c-1.85-0.34-3.42,1.11-3.56,2.91c-0.15,1.84,1.18,3.68,2.48,4.84
			c1.26,1.12,4.43,2.21,5.51,2.57c-0.19,0.9-0.38,1.8-0.6,2.67c-0.17,0.59-0.29,1.16-0.49,1.74c-0.19,0.58-0.37,1.15-0.55,1.72
			c-0.39,1.08-0.79,2.19-1.2,3.24c-0.28,0.73-0.56,1.41-0.84,2.11c0.14-0.9,0.38-2.65,0.38-2.8c0.04-1.55-0.51-4.07-1.61-5.84
			c0.01-0.23-0.01-0.46-0.04-0.68c-0.29-1.78-1.96-3.11-3.78-2.62c-2.52,0.67-4.12,5.1-4.24,7.43c-0.01,0.14,0.08,1.64,0.15,2.58
			c-0.13-0.55-0.24-1.08-0.38-1.65c-0.26-1.12-0.56-2.22-0.88-3.41c-0.17-0.57-0.35-1.14-0.52-1.73c-0.16-0.58-0.41-1.17-0.61-1.76
			c-0.5-1.36-1.07-2.72-1.68-4.08c0.98-0.23,4.43-1.12,5.82-2.18c1.38-1.06,2.85-2.79,2.83-4.64c-0.01-1.81-1.47-3.37-3.34-3.16
			c-2.6,0.28-4.85,4.42-5.32,6.7c-0.03,0.14-0.18,1.82-0.25,2.74c-0.37-0.81-0.74-1.62-1.14-2.43c-1.16-2.34-2.41-4.67-3.64-6.99
			c-0.38-0.71-0.75-1.43-1.12-2.14c0.35-0.08,4.48-1.04,6.03-2.23c1.38-1.06,2.85-2.79,2.83-4.64c-0.01-1.8-1.47-3.37-3.34-3.16
			c-2.6,0.28-4.85,4.42-5.32,6.7c-0.04,0.17-0.25,2.58-0.28,3.2c-0.82-1.57-1.62-3.15-2.34-4.74c-1-2.19-1.87-4.39-2.55-6.58
			c0.16-0.04,4.48-1.02,6.07-2.24c1.38-1.06,2.85-2.79,2.83-4.64c-0.01-1.8-1.47-3.37-3.34-3.16c-2.6,0.28-4.85,4.42-5.32,6.7
			c-0.04,0.18-0.27,2.78-0.28,3.25c-0.04-0.13-0.1-0.26-0.13-0.39c-0.7-2.35-1.07-4.72-1.32-6.95c-0.15-1.3-0.21-2.54-0.25-3.76
			c0.82-0.1,4.58-0.6,6.13-1.54c1.49-0.9,3.14-2.46,3.33-4.3c0.19-1.8-1.09-3.51-2.97-3.51c-2.61,0-5.3,3.86-6.02,6.08
			c-0.04,0.12-0.3,1.39-0.48,2.32c-0.01-0.55-0.03-1.11-0.03-1.64c0-1.97,0.13-3.78,0.25-5.38c0.08-0.91,0.17-1.73,0.26-2.5
			c0.76-0.52,3.78-2.65,4.7-4.17c0.91-1.49,1.65-3.63,0.97-5.35c-0.66-1.68-2.58-2.61-4.25-1.75c-2.32,1.2-2.93,5.87-2.55,8.17
			c0.03,0.2,0.91,3.25,0.95,3.22c0,0,0.04-0.03,0.05-0.03c-0.1,0.74-0.2,1.53-0.3,2.39c-0.16,1.6-0.32,3.41-0.37,5.39
			c-0.05,1.98-0.05,4.13,0.15,6.4c0.2,2.27,0.53,4.66,1.19,7.07c0.01,0.03,0.02,0.05,0.03,0.08c-0.41-0.65-1.62-2.41-1.73-2.54
			c-1.53-1.76-5.51-4.27-7.91-3.25c-1.73,0.74-2.24,2.81-1.37,4.39C679.12,443.81,681.24,444.61,682.96,444.86z"/>
		<path class="st15" d="M727.74,432.59c0.04,0.03,0.83-3.05,0.86-3.25c0.32-2.31-0.42-6.96-2.77-8.1c-1.69-0.82-3.59,0.17-4.2,1.86
			c-0.63,1.73,0.17,3.86,1.12,5.32C723.85,430.15,727.73,432.59,727.74,432.59z"/>
	</g>
	<g>
		<g>
			<g>
				<path class="st16" d="M461.44,436.47c0,0,17.93-2.72,37.13-3.04c19.2-0.31,25.49,0.94,30.22,2.52
					c4.72,1.57,8.94,14.81,2.74,27.39c-6.2,12.58-27.92,22.97-57.51,20.45c-29.59-2.52-50.67-8.5-62.01-17
					c-11.33-8.5-1.26-13.22,11.33-20.14C435.93,439.73,452.96,436.04,461.44,436.47z"/>
				<path class="st17" d="M436.88,465.54c0,0,44.07-24.24,59.49-28.64c15.42-4.41,33.05-5.35,41.23,0
					c8.18,5.35,6.29,22.66,2.52,29.27c-3.78,6.61-34.31,20.46-51.3,25.49c-17,5.04-83.41,4.72-101.66,6.3
					c-18.26,1.57-62.32,0.63-68.62-2.83c-6.29-3.46-2.52-7.24,6.61-9.44c9.13-2.2,39.34-2.2,53.51-6.29
					C392.81,475.29,426.49,470.89,436.88,465.54z"/>
				<path class="st16" d="M540.11,466.17c1.84-3.22,3.23-8.98,3.23-14.67c-11.41,9.04-29.18,19.75-53.74,28.52
					c-23.3,8.32-89.26,15.77-116.55,18.59c5.43-0.11,10.32-0.33,14.1-0.65c18.26-1.57,84.67-1.26,101.66-6.3
					C505.81,486.63,536.34,472.78,540.11,466.17z"/>
				<path class="st16" d="M508.97,484.22c4.67-1.98,9.34-4.13,13.61-6.27c0.94-4.63,2.05-18.23-7.91-44.45
					c-5.98,0.5-12.3,1.68-18.3,3.39C496.36,436.89,515.03,458.24,508.97,484.22z"/>
				<path class="st17" d="M393.8,475.94c-5.93,1.18-11.27,2.32-15.15,3.45c-14.16,4.09-44.38,4.09-53.51,6.3
					c-9.13,2.2-12.9,5.98-6.61,9.44c6.3,3.46,50.36,4.41,68.62,2.83c2.15-0.19,4.98-0.34,8.32-0.49
					C388.19,489.55,391.5,480.31,393.8,475.94z"/>
			</g>
			<g>
				<path class="st17" d="M365.11,425.88c0,0-28.64,3.46-43.12,4.72c-14.48,1.26-40.6,12.9-45.95,24.24
					c-5.35,11.33,10.7,24.87,19.83,27.7c9.13,2.83,36.51,9.13,51.62,8.18s59.8-14.16,67.67-16.68c7.87-2.52,21.72-8.5,21.72-8.5
					s-13.22,0-35.57-11.33C378.96,442.88,375.5,431.23,365.11,425.88z"/>
				<path class="st16" d="M303.62,434.87c0,0,22.58-2.35,32.94,5.18c10.35,7.53,16.94,30.58,16.94,30.58l47.81-16.42
					c0,0-3.58-3.81-12.52-14.63c-8.94-10.82-35.29-16.94-50.82-13.64C322.44,429.23,303.62,434.87,303.62,434.87z"/>
				<path class="st17" d="M412.9,474.74c0.92-0.28,1.7-0.53,2.26-0.71c7.87-2.52,21.72-8.5,21.72-8.5s-10.15,0-27.7-7.63
					C411.68,462.12,414.17,468.27,412.9,474.74z"/>
				<path class="st16" d="M429.93,468.45c-12.09,1.51-33.06,4.82-56.92,11.57c-27.21,7.7-60.02,4.96-75.92,2.88
					c10.14,2.97,35.91,8.72,50.39,7.82c15.11-0.94,59.8-14.16,67.67-16.68C419.38,472.68,425.33,470.34,429.93,468.45z"/>
			</g>
		</g>
		<g>
			<path class="st17" d="M459.74,334.41l-6.46,63.62c0,0,3.06,15.31,5.1,21.43c2.04,6.12,4.08,15.99,3.06,17.01
				c-1.02,1.02-1.7,0.34-8.85,2.38c-7.14,2.04-15.65,14.29-26.54,19.05c-10.89,4.76-19.73,2.38-29.94-1.7
				c-10.21-4.08-29.26-28.92-33.34-29.6c-4.08-0.68-16.33-2.72-21.43-4.42c-5.1-1.7-11.23-8.85-11.23-8.85s-1.02,0-1.02-3.74
				c0-3.74,0.34-4.08,0.34-4.08s-2.72-2.38-3.4-5.44c-0.68-3.06,6.46-19.39,6.46-29.6c0-10.21,5.1-48.65,5.1-53.41
				c0-4.76,7.14-5.78,14.63-8.85s46.95-17.69,47.63-21.77c0.68-4.08,3.4-32.66,3.4-32.66s21.17,22.64,23.81,24.49
				c3.4,2.38,5.1,4.76,5.1,4.76l-2.38,11.23c0,0,10.21,7.48,17.01,11.57c6.8,4.08,15.99,7.82,16.33,10.55"/>
		</g>
		<path class="st1" d="M352.8,409.23c1.56,1.21,3.09,2.78,4.53,4.78"/>
		<path class="st1" d="M329.1,409.59c0,0,9.77-6.78,19.54-2.78"/>
		<g>
			<path class="st17" d="M435.93,298.64c-3.49-2.44-6.13-4.37-6.13-4.37l2.38-11.23c0,0-1.7-2.38-5.1-4.76
				c-2.64-1.85-23.81-24.49-23.81-24.49s-2.72,28.58-3.4,32.66c-0.22,1.32-4.53,3.76-10.5,6.55c1.04,6.56,4.78,17.52,17.98,21.69
				C420.56,318.85,430.76,306.77,435.93,298.64z"/>
			<path class="st9" d="M429.9,294.34c-0.06-0.05-0.1-0.07-0.1-0.07l2.38-11.23c0,0-1.7-2.38-5.1-4.76
				c-1.5-1.05-8.97-8.8-15.15-15.31l-1.57,7.45C410.36,270.41,410.38,291.81,429.9,294.34z"/>
		</g>
		<g>
			<path class="st16" d="M408.52,183.59c0,0-0.97-8.12-7.47-9.75c-6.5-1.62-21.44-0.65-26.64,9.1c-5.2,9.75-1.3,17.22,0.65,18.52
				c1.95,1.3,3.57,1.95,3.57,1.95l1.62-8.12c0,0,0.65,7.15,5.2,8.77c4.55,1.62,13.97,0,13.97,0S407.54,198.21,408.52,183.59z"/>
			<path class="st16" d="M468.59,212.62c0,0,11.57,7.48,11.57,14.97c0,7.48-14.29,10.21-14.29,10.21L468.59,212.62z"/>
			<g>
				<path class="st17" d="M471.22,214.13c0,0-1.3,15.6-2.6,24.37c-1.3,8.77-6.82,15.92-7.15,21.77
					c-0.32,5.85-13.32,20.14-19.82,25.02c-6.5,4.87-16.24,3.25-21.12-0.65c-4.87-3.9-13-13.32-16.89-23.39
					c-3.9-10.07-0.97-24.69,0-29.24c0.97-4.55,25.34-22.42,43.86-22.42S471.22,214.13,471.22,214.13z"/>
				<path class="st1" d="M450.75,250.52c0,0,1.3,11.7,1.3,12.67c0,0.97-2.92,3.9-7.8,0.97"/>
				<path class="st1" d="M431.26,264.17c0,0,5.2,6.5,13.65,6.17"/>
				<g>
					<path class="st18" d="M448.8,240.12c0,0-10.72-6.5-24.37-4.55c0,0-3.9,0-1.62,2.92c0,0-0.97,9.75,1.3,12.67s7.47,5.2,12.67,5.2
						C441.98,256.37,447.18,250.2,448.8,240.12z"/>
					<line class="st19" x1="422.49" y1="235.9" x2="401.37" y2="234.6"/>
					<path class="st18" d="M448.8,240.12l5.52,1.62c0,0-2.27,12.02-0.97,15.27l0,0c0.85,2.11,2.65,3.69,4.85,4.26
						c1.84,0.47,3.95,0.94,5.22,0.94c2.6,0,8.12-5.2,9.42-14.3c0,0,1.62-0.65,0.97-1.62c-0.65-0.97-8.5-5.52-19.22-4.54"/>
					<path class="st18" d="M448.48,243.05c0,0,4.15,0.27,5.37,1.83"/>
				</g>
				<path class="st9" d="M437.26,246.76c-0.37,2.13-1.43,3.72-2.35,3.56c-0.93-0.16-1.37-2.02-1-4.15c0.37-2.13,1.43-3.72,2.35-3.56
					C437.19,242.78,437.64,244.63,437.26,246.76z"/>
				
					<ellipse transform="matrix(0.2676 -0.9635 0.9635 0.2676 93.6618 627.3307)" class="st9" cx="459.47" cy="252.06" rx="3.51" ry="1.53"/>
				<path class="st18" d="M430.48,239.15c0,0,8.16-2.72,11.91,1.7"/>
				<path class="st18" d="M457.36,245.27c0,0,3.74-3.4,6.8,1.36"/>
			</g>
			<g>
				<path class="st16" d="M415.01,232.65c0,0,17.54-9.42,32.49-12.35c14.95-2.92,26.32-1.62,28.92-10.4
					c2.6-8.77-14.95-23.39-33.14-28.59c-18.19-5.2-39.96,0.32-48.74,13.32c-8.77,13-5.85,28.59-3.25,34.44
					c2.6,5.85,4.55,10.4,9.42,11.05C405.59,240.77,415.01,232.65,415.01,232.65z"/>
				<g>
					<path class="st20" d="M402.31,222.34c-1.89,1.14-3.49,2.44-4.74,3.92"/>
					<path class="st20" d="M463.42,200.21c0,0,4.74,2.84-9,8.53c-9.97,4.13-30.18,5.26-44.31,10.1"/>
					<path class="st20" d="M445.18,196.88c1.13-1.25,2.02-2.65,2.61-4.25"/>
					<path class="st20" d="M394.26,220.58c0,0-4.26-6.16,10.42-10.42c10.59-3.07,25.87-4.18,35.33-9.35"/>
				</g>
			</g>
			<path class="st17" d="M405.92,245c0,0-2.58-12.67-8.11-12.67s-6.26,5.85-4.05,13c2.21,7.15,5.9,9.42,9.21,7.15"/>
		</g>
		<path class="st1" d="M362.78,426.6c0,0,1.36-1.7,1.36-7.14c0-5.44-3.74-23.47-5.44-36.06c-1.7-12.59-3.4-36.74-3.4-46.95"/>
		<path class="st1" d="M397.06,387.28c0.91,1.46,1.84,2.79,2.8,3.94"/>
		<path class="st1" d="M378.09,324.54c0,0,6.1,37.61,16.54,58.36"/>
		<path class="st1" d="M399.45,356.54c1.38,2.6,2.77,5.02,4.16,7.12"/>
		<path class="st1" d="M382.17,314c0,0,6.83,21.12,14.9,37.85"/>
		<g>
			<path class="st17" d="M309.03,411.97c0,0,3.74,3.06,11.23,3.06c7.48,0,13.95-3.74,23.47-1.36c9.53,2.38,9.53,11.91,8.51,14.63
				c-1.02,2.72-10.21,4.42-18.71,3.4c-8.51-1.02-25.86-2.72-25.86-2.72S310.39,419.12,309.03,411.97z"/>
			<g>
				<path class="st17" d="M302.09,403.33c0,0,0.79,3.54,5.12,5.9c4.33,2.36,5.9,8.66,5.9,12.2c0,3.54-0.79,5.51-0.79,5.51
					s-1.18,4.72-5.12,5.51c-3.94,0.79-6.3,3.15-11.02-1.57s-11.41-19.68-11.41-19.68l0.79-2.36c0,0,3.94,0,7.08-1.57
					C295.79,405.69,302.09,403.33,302.09,403.33z"/>
				<line class="st21" x1="280.05" y1="387.19" x2="307.21" y2="432.46"/>
				<path class="st17" d="M288.32,432.06c0,0,3.15,3.15,8.66,3.15c5.51,0,11.02-3.54,8.27-4.72c-2.76-1.18-4.72-2.36-6.69-1.57
					C296.58,429.7,288.32,432.06,288.32,432.06z"/>
				<path class="st17" d="M284.38,426.16c0,0,2.36,6.69,4.33,7.48s10.23-1.18,12.6-2.76c2.36-1.57-1.57-4.33-5.12-4.33
					S284.38,426.16,284.38,426.16z"/>
				<path class="st17" d="M282.8,415.92c0,0-1.57,8.27,1.57,10.23c3.15,1.97,15.35,2.76,16.53,0.39c1.18-2.36-3.15-3.54-7.48-5.51
					C289.1,419.07,282.8,415.92,282.8,415.92z"/>
				<path class="st17" d="M295.01,404.51c0,0,0.39,15.35,1.97,16.93c1.57,1.57,5.12,1.97,5.9,0.79c0.79-1.18,1.57-14.56-0.79-18.89
					C299.73,399,295.01,404.51,295.01,404.51z"/>
				<path class="st17" d="M285.56,408.84c0,0-5.12-1.18-5.12,3.94s7.08,8.27,10.23,8.66c3.15,0.39,6.69-0.79,3.94-3.15
					C291.86,415.92,287.92,410.81,285.56,408.84z"/>
			</g>
		</g>
		<g>
			<path class="st16" d="M324.2,433.75l22.03-3.15c0,0-2.83-4.09-10.07-4.09c-7.24,0-11.65,3.46-12.59,4.72
				C322.62,432.49,324.2,433.75,324.2,433.75z"/>
			<path class="st17" d="M368.58,459.87l35.25-12.28c0,0-8.5-17.94-24.55-24.24c-16.05-6.3-39.86-4.67-49.94-0.9l3.67,4.05
				c0,0,7.24,0.31,15.11,9.44c7.87,9.13,15.74,23.61,15.74,23.61L368.58,459.87z"/>
			<g>
				<path class="st22" d="M346.58,424.17c0,0,14-2,28.66,29.33"/>
				<path class="st22" d="M353.48,422.79c0,0,14-2,28.66,29.33"/>
				<path class="st22" d="M359.28,421.68c0,0,14-2,28.66,29.33"/>
			</g>
			<path class="st17" d="M274.78,455.78c0,0,15.74-23.29,45.01-21.4l4.41-0.63c0,0,2.83-6.61,11.02-5.04
				c8.18,1.57,29.27,33.99,29.27,33.99l4.09-2.83c0,0-11.14-18.87-19.63-29.57c-8.5-10.7-19.6-10.33-23.16-6.41
				c-2.18,2.4-5.16,7.82-5.16,7.82s-3.27-4.94-12.95-2.72c-11.9,2.72-18.46,8.02-21.84,11.67c-4.92,5.31-14.84,12.54-13.88,11.98
				L274.78,455.78z"/>
			<polygon class="st17" points="364.48,462.7 401.94,449.8 403.83,447.6 368.58,459.87 			"/>
		</g>
	</g>
	<g>
		<path class="st17" d="M456.86,311.44c0,0,13.51,4.67,15.55,11.81c2.04,7.14,12.16,46.2,14.88,51.98
			c2.72,5.78,8.85,9.19,8.85,13.61s0.34,7.82,0.34,7.82s7.14,0.34,7.82,6.12c0.68,5.78,2.04,13.27,2.04,13.27l27.22,42.11
			c0,0,16.24,1.31,19.98,0.97c3.74-0.34,14.87,0.37,18.93,2.51c1.57,0.83,4.71,3.53,7.16,12.19c1.22,4.3,3.93,12.64,2.23,12.3
			c-1.7-0.34-3.79-5.08-4.47-6.1c-0.68-1.02-2.67-6.83-2.67-6.83s1.36,9.87,1.7,11.91s-0.68,4.08-0.68,4.08l-0.14,0.06
			c-1.67,0.68-3.52,0.79-5.26,0.32l-1.4-0.38l0,0c-1.31,0.71-2.84,0.87-4.27,0.45l-1.52-0.45c0,0-2.21-6.99-4.25-9.71
			c-2.04-2.72-8.46-5.67-8.46-5.67s6.92,7.9,6.58,13c-0.14,2.06,0.34,3.74-1.36,2.72c-1.7-1.02-3.74-6.12-7.48-7.82
			c-3.74-1.7-12.59-4.08-15.99-6.12c-3.4-2.04-8.85-9.53-8.85-9.53l-44.57-40.14c0,0-4.42-4.42-5.1-6.8
			c-0.68-2.38-0.68-2.38-0.68-2.38s-6.12-3.74-7.82-5.78c-1.7-2.04-2.38-6.46-2.38-6.46l-9.19-10.55l6.12-58.17"/>
		<path class="st17" d="M456.27,349.24l-2.65,44.7l9.19,10.55c0,0,0.68,4.42,2.38,6.46c1.7,2.04,7.82,5.78,7.82,5.78s0,0,0.68,2.38
			c0.68,2.38,5.1,6.8,5.1,6.8l6.67,6.01c2.71-5.29,9.15-14.82,20.8-16.35c-0.3-1.71-1.38-7.86-1.96-12.79
			c-0.68-5.78-7.82-6.12-7.82-6.12s-0.34-3.4-0.34-7.82s-6.12-7.82-8.85-13.61c-2.72-5.78-12.84-44.84-14.88-51.98
			c-2.04-7.14-15.55-11.81-15.55-11.81"/>
		<polygon class="st9" points="455.74,362.76 460.22,401 453.62,393.94 		"/>
		<g>
			<path class="st1" d="M487.33,402.66c0.94-0.66,1.95-1.3,3.03-1.91"/>
			<path class="st1" d="M476.41,415.04c0,0,2.12-4.83,7.53-9.68"/>
			<path class="st1" d="M483.83,396.62c1.44-0.23,2.94-0.34,4.49-0.29"/>
			<path class="st1" d="M467.22,404.83c0,0,4.51-4.34,11.3-6.82"/>
		</g>
		<path class="st1" d="M552.27,476.27c0,0-3.74-5.1-8.85-5.44"/>
		<path class="st1" d="M553.98,465.05c0,0,4.08,1.02,9.19,7.48c5.1,6.46,6.46,15.99,6.46,15.99"/>
		<path class="st1" d="M563.72,463.68c0,0,7.61,6.12,8.97,11.91s3.06,13.61,3.06,13.61"/>
		<path class="st1" d="M574.73,473.21c0,0-1.36-6.12-4.76-10.89"/>
	</g>
	<g>
		<polygon class="st17" points="677.81,486.8 583.91,486.8 609.77,401.07 703.66,401.07 		"/>
		<path class="st16" d="M677.81,486.8l21.91-72.64c-27.73,3.43-44.04,26.26-69.69,51.32c-16.14,15.77-27.35,20.29-33.92,21.32
			H677.81z"/>
		<ellipse class="st17" cx="647.53" cy="439.85" rx="7.43" ry="7.14"/>
		<rect x="503.29" y="486.46" class="st17" width="175.54" height="5.44"/>
		<rect x="589.02" y="486.46" class="st16" width="89.81" height="5.44"/>
	</g>
	<g>
		<g>
			<path class="st17" d="M274.6,471.82h-70.36c-6.23,0-11.29,5.05-11.29,11.29v1.24c0,6.23,5.05,11.29,11.29,11.29h70.36
				c0,0-3.76-5.65-3.76-12.06S274.6,471.82,274.6,471.82z"/>
			<path class="st17" d="M241.2,471.82h-70.36c-6.23,0-11.29,5.05-11.29,11.29v1.24c0,6.23,5.05,11.29,11.29,11.29h70.36
				c0,0-3.76-5.65-3.76-12.06S241.2,471.82,241.2,471.82z"/>
			<path class="st17" d="M159.55,483.1v1.24c0,4.53,2.68,8.43,6.53,10.22l1.55,0.06v-21.07l-0.91-0.95
				C162.52,474.25,159.55,478.33,159.55,483.1z"/>
			<path class="st21" d="M274.6,471.82H170.84c-6.23,0-11.29,5.05-11.29,11.29v1.24c0,6.23,5.05,11.29,11.29,11.29H274.6"/>
			<g>
				<line class="st1" x1="167.98" y1="477.07" x2="202.4" y2="477.07"/>
				<line class="st1" x1="207.32" y1="480.23" x2="212.58" y2="480.23"/>
				<line class="st1" x1="174.65" y1="480.23" x2="202.75" y2="480.23"/>
				<line class="st1" x1="167.98" y1="487.26" x2="185.54" y2="487.26"/>
				<line class="st1" x1="220.66" y1="491.12" x2="224.53" y2="491.12"/>
				<line class="st1" x1="196.08" y1="491.12" x2="217.5" y2="491.12"/>
				<line class="st1" x1="174.65" y1="491.12" x2="189.75" y2="491.12"/>
			</g>
		</g>
		<g>
			<path class="st17" d="M204.94,471.82h-98.56c-6.23,0-11.29,5.05-11.29,11.29v1.24c0,6.23,5.05,11.29,11.29,11.29h98.56
				c0,0-3.76-5.65-3.76-12.06S204.94,471.82,204.94,471.82z"/>
			<g>
				<line class="st1" x1="144.99" y1="475.56" x2="144.99" y2="492.61"/>
				<line class="st1" x1="145.53" y1="478.23" x2="173.75" y2="478.23"/>
				<line class="st1" x1="145.53" y1="482.49" x2="184.4" y2="482.49"/>
				<line class="st1" x1="157.51" y1="487.28" x2="167.63" y2="487.28"/>
				<line class="st1" x1="180.41" y1="490.48" x2="150.05" y2="490.48"/>
			</g>
			<path class="st16" d="M140.09,484.35v-1.24c0-6.23,5.05-11.29,11.29-11.29h-45c-6.23,0-11.29,5.05-11.29,11.29v1.24
				c0,6.23,5.05,11.29,11.29,11.29h45C145.14,495.63,140.09,490.58,140.09,484.35z"/>
			<path class="st21" d="M199.75,471.82h-93.38c-6.23,0-11.29,5.05-11.29,11.29v1.24c0,6.23,5.05,11.29,11.29,11.29h93.38"/>
			<path class="st21" d="M207.04,471.82h-55.4c-6.23,0-11.29,5.05-11.29,11.29v1.24c0,6.23,5.05,11.29,11.29,11.29h55.4"/>
		</g>
		<g>
			<path class="st17" d="M263.41,448.38h-70.36c-6.23,0-11.29,5.05-11.29,11.29v1.24c0,6.23,5.05,11.29,11.29,11.29h70.36
				c0,0-3.76-5.65-3.76-12.06S263.41,448.38,263.41,448.38z"/>
			<path class="st17" d="M230.01,448.38h-70.36c-6.23,0-11.29,5.05-11.29,11.29v1.24c0,6.23,5.05,11.29,11.29,11.29h70.36
				c0,0-3.76-5.65-3.76-12.06S230.01,448.38,230.01,448.38z"/>
			<path class="st17" d="M148.36,459.66v1.24c0,4.53,2.68,8.43,6.53,10.22l1.55,0.06v-21.07l-0.91-0.95
				C151.33,450.81,148.36,454.89,148.36,459.66z"/>
			<path class="st21" d="M263.41,448.38H159.65c-6.23,0-11.29,5.05-11.29,11.29v1.24c0,6.23,5.05,11.29,11.29,11.29h103.76"/>
			<g>
				<line class="st1" x1="156.79" y1="453.63" x2="191.21" y2="453.63"/>
				<line class="st1" x1="196.13" y1="456.79" x2="201.4" y2="456.79"/>
				<line class="st1" x1="163.46" y1="456.79" x2="191.56" y2="456.79"/>
				<line class="st1" x1="156.79" y1="463.81" x2="174.35" y2="463.81"/>
				<line class="st1" x1="209.47" y1="467.68" x2="213.34" y2="467.68"/>
				<line class="st1" x1="184.89" y1="467.68" x2="206.31" y2="467.68"/>
				<line class="st1" x1="163.46" y1="467.68" x2="178.57" y2="467.68"/>
			</g>
		</g>
	</g>
	<g>
		<g>
			<path class="st1" d="M541.46,385.21H517.4c-1.02,0-1.84-0.82-1.84-1.84v-6.99c0-1.02,0.82-1.84,1.84-1.84h32.24
				c1.02,0,1.84,0.82,1.84,1.84v2.74"/>
			<path class="st1" d="M541.23,396.58v-14.96c0-1.32,1.07-2.4,2.4-2.4h31.93c1.32,0,2.4,1.07,2.4,2.4v17.91"/>
			<path class="st1" d="M577.95,414.28v18.65c0,1.32-1.07,2.4-2.4,2.4h-31.93c-1.32,0-2.4-1.07-2.4-2.4v-32.76"/>
			<line class="st1" x1="543.5" y1="387.97" x2="575.67" y2="387.97"/>
			<line class="st1" x1="558.86" y1="397.67" x2="575.67" y2="397.67"/>
			<line class="st1" x1="543.5" y1="397.67" x2="556.24" y2="397.67"/>
			<line class="st1" x1="543.5" y1="407.37" x2="575.67" y2="407.37"/>
			<line class="st1" x1="569.9" y1="417.07" x2="575.67" y2="417.07"/>
			<line class="st1" x1="543.5" y1="417.07" x2="567" y2="417.07"/>
			<line class="st1" x1="543.5" y1="426.77" x2="575.67" y2="426.77"/>
			<line class="st1" x1="522.05" y1="379.63" x2="539.58" y2="379.63"/>
		</g>
		<g>
			<g>
				<g>
					<path class="st20" d="M291.93,195.21h-29.7c-1.26,0-2.27-1.02-2.27-2.27v-8.63c0-1.26,1.02-2.27,2.27-2.27h39.8
						c1.26,0,2.27,1.02,2.27,2.27v3.39"/>
					<path class="st20" d="M291.65,209.25v-18.46c0-1.63,1.32-2.96,2.96-2.96h39.41c1.63,0,2.96,1.32,2.96,2.96v22.11"/>
					<path class="st20" d="M336.98,231.09v23.02c0,1.63-1.32,2.96-2.96,2.96h-39.41c-1.63,0-2.96-1.32-2.96-2.96v-40.44"/>
					<line class="st20" x1="294.45" y1="198.62" x2="334.16" y2="198.62"/>
					<line class="st20" x1="313.42" y1="210.59" x2="334.16" y2="210.59"/>
					<line class="st20" x1="294.45" y1="210.59" x2="310.18" y2="210.59"/>
					<line class="st20" x1="294.45" y1="222.57" x2="334.16" y2="222.57"/>
					<line class="st20" x1="327.04" y1="234.54" x2="334.16" y2="234.54"/>
					<line class="st20" x1="294.45" y1="234.54" x2="323.47" y2="234.54"/>
					<line class="st20" x1="294.45" y1="246.52" x2="334.16" y2="246.52"/>
					<line class="st20" x1="267.98" y1="188.32" x2="289.62" y2="188.32"/>
				</g>
				<g>
					<g>
						<path class="st23" d="M342.88,232.28c-1.65,0-3.3-0.63-4.56-1.85l-4.23-4.19c-0.51-0.51-0.6-1.29-0.22-1.9
							c0.24-0.39,0.64-0.65,1.1-0.71c0.46-0.06,0.91,0.09,1.24,0.4l0.84,0.78l-4.25-8.76c-0.21-0.45-0.23-0.95-0.06-1.41
							c0.17-0.46,0.52-0.83,0.97-1.02c0.9-0.39,1.93,0,2.35,0.88l1.61,3.1c0.33-0.37,0.71-0.59,1.14-0.65
							c0.69-0.1,1.32,0.23,1.68,0.48c0.34-0.41,0.74-0.65,1.19-0.71c0.56-0.08,1.08,0.14,1.42,0.34c0.23-0.51,0.66-0.78,1.25-0.75
							c0.57,0.03,1.09,0.38,1.38,0.9l3,5.52c1.47,2.9,0.63,6.38-1.99,8.28C345.58,231.87,344.23,232.28,342.88,232.28z
							 M335.17,224.31c-0.04,0-0.07,0-0.11,0.01c-0.25,0.03-0.47,0.18-0.61,0.39c-0.21,0.34-0.16,0.77,0.12,1.05l4.23,4.19
							c2.05,1.99,5.22,2.21,7.54,0.53c2.35-1.71,3.1-4.82,1.79-7.41l-3-5.51c-0.17-0.32-0.49-0.53-0.82-0.55
							c-0.28-0.02-0.58,0.05-0.68,0.68l-0.1,0.63l-0.47-0.43c-0.01,0-0.64-0.57-1.29-0.47c-0.35,0.05-0.66,0.29-0.92,0.71
							l-0.22,0.35l-0.3-0.29c-0.01-0.01-0.71-0.65-1.41-0.54c-0.38,0.06-0.72,0.33-1,0.82l-0.32,0.56l-2.14-4.21
							c-0.26-0.55-0.91-0.79-1.46-0.55c-0.28,0.12-0.5,0.35-0.61,0.64c-0.11,0.29-0.1,0.6,0.04,0.88l5.78,11.99l-3.45-3.23
							C335.59,224.39,335.38,224.31,335.17,224.31z"/>
					</g>
					<g>
						<path class="st23" d="M339.19,222.32c-0.13,0-0.26-0.08-0.31-0.21l-1.57-3.7c-0.07-0.17,0.01-0.37,0.18-0.45
							c0.17-0.07,0.37,0.01,0.45,0.18l1.57,3.7c0.07,0.17-0.01,0.37-0.18,0.45C339.28,222.32,339.23,222.32,339.19,222.32z"/>
					</g>
					<g>
						<path class="st23" d="M341.92,221.51c-0.13,0-0.26-0.08-0.31-0.21l-1.37-3.24c-0.07-0.17,0.01-0.37,0.18-0.45
							c0.17-0.07,0.37,0.01,0.45,0.18l1.37,3.24c0.07,0.17-0.01,0.37-0.18,0.45C342.01,221.5,341.97,221.51,341.92,221.51z"/>
					</g>
					<g>
						<path class="st23" d="M344.61,220.8c-0.13,0-0.25-0.07-0.31-0.2l-1.32-2.84c-0.08-0.17-0.01-0.37,0.17-0.45
							c0.17-0.08,0.37-0.01,0.45,0.17l1.32,2.84c0.08,0.17,0,0.37-0.17,0.45C344.71,220.79,344.66,220.8,344.61,220.8z"/>
					</g>
				</g>
			</g>
			
				<rect x="314.27" y="175.39" transform="matrix(0.7071 -0.7071 0.7071 0.7071 -33.0519 276.2069)" class="st20" width="5.22" height="5.22"/>
			<path class="st20" d="M285.03,208.07c0-1.51-1.22-2.73-2.73-2.73c-1.51,0-2.73,1.22-2.73,2.73c0,1.51,1.22,2.73,2.73,2.73
				C283.81,210.8,285.03,209.58,285.03,208.07z"/>
		</g>
		<g>
			
				<rect x="649.7" y="121.83" transform="matrix(0.7071 -0.7071 0.7071 0.7071 101.0401 502.581)" class="st1" width="14.98" height="14.98"/>
			
				<rect x="284.43" y="412.79" transform="matrix(0.7071 -0.7071 0.7071 0.7071 -211.6849 329.5132)" class="st1" width="14.98" height="14.98"/>
			
				<rect x="238.28" y="392.16" transform="matrix(0.7071 -0.7071 0.7071 0.7071 -210.6143 290.8398)" class="st1" width="14.98" height="14.98"/>
			
				<rect x="633.42" y="139.85" transform="matrix(0.7071 -0.7071 0.7071 0.7071 84.9458 492.9379)" class="st1" width="8.17" height="8.17"/>
			<circle class="st1" cx="639.42" cy="377.82" r="4.28"/>
			<circle class="st1" cx="284.32" cy="340.73" r="4.28"/>
			<circle class="st1" cx="473.15" cy="137.88" r="4.28"/>
		</g>
	</g>
	<g>
		<rect x="494.97" y="176.66" class="st15" width="207.58" height="187.25"/>
		<g>
			<rect x="506.69" y="167.03" class="st17" width="209.22" height="188.06"/>
			<rect x="561.8" y="167.03" class="st16" width="154.11" height="25.52"/>
			<rect x="506.69" y="167.03" class="st17" width="209.22" height="13.27"/>
			<g>
				<rect x="515.87" y="210.91" class="st16" width="127.58" height="96.4"/>
				<rect x="515.87" y="296.57" class="st17" width="127.58" height="10.74"/>
				<rect x="515.87" y="300.38" class="st17" width="127.58" height="3.13"/>
				<g class="st2">
					
						<ellipse transform="matrix(0.5227 -0.8525 0.8525 0.5227 61.3361 612.235)" class="st3" cx="577.45" cy="251.34" rx="18.79" ry="18.79"/>
					<polygon class="st24" points="588.33,251.75 571.99,242.31 571.99,261.18 					"/>
				</g>
			</g>
			<g>
				<rect x="654.9" y="210.91" class="st16" width="50.38" height="32.24"/>
				<rect x="654.9" y="239.56" class="st17" width="50.38" height="3.59"/>
				<rect x="654.9" y="240.84" class="st17" width="50.38" height="1.05"/>
				<g class="st2">
					<circle class="st3" cx="679.22" cy="226.88" r="7.42"/>
					<polygon class="st24" points="683.52,227.04 677.06,223.31 677.06,230.76 					"/>
				</g>
			</g>
			<g>
				<rect x="654.9" y="246.34" class="st16" width="50.38" height="32.24"/>
				<rect x="654.9" y="274.99" class="st17" width="50.38" height="3.59"/>
				<rect x="654.9" y="276.26" class="st17" width="50.38" height="1.05"/>
				<g class="st2">
					<path class="st3" d="M686.64,262.31c0-4.1-3.32-7.42-7.42-7.42s-7.42,3.32-7.42,7.42c0,4.1,3.32,7.42,7.42,7.42
						S686.64,266.4,686.64,262.31z"/>
					<polygon class="st24" points="683.52,262.47 677.06,258.74 677.06,266.19 					"/>
				</g>
			</g>
			<g>
				<rect x="654.9" y="281.77" class="st16" width="50.38" height="32.24"/>
				<rect x="654.9" y="310.42" class="st17" width="50.38" height="3.59"/>
				<rect x="654.9" y="311.69" class="st17" width="50.38" height="1.05"/>
				<g class="st2">
					<path class="st3" d="M686.64,297.73c0-4.1-3.32-7.42-7.42-7.42s-7.42,3.32-7.42,7.42c0,4.1,3.32,7.42,7.42,7.42
						S686.64,301.83,686.64,297.73z"/>
					<polygon class="st24" points="683.52,297.89 677.06,294.17 677.06,301.62 					"/>
				</g>
			</g>
			<g>
				<rect x="654.9" y="317.2" class="st16" width="50.38" height="32.24"/>
				<rect x="654.9" y="345.85" class="st17" width="50.38" height="3.59"/>
				<rect x="654.9" y="347.12" class="st17" width="50.38" height="1.05"/>
				<rect x="518.15" y="317.2" class="st16" width="50.38" height="32.24"/>
				<rect x="518.15" y="345.85" class="st17" width="50.38" height="3.59"/>
				<rect x="518.15" y="347.12" class="st17" width="50.38" height="1.05"/>
				<rect x="586.11" y="317.2" class="st16" width="50.38" height="32.24"/>
				<rect x="586.11" y="345.85" class="st17" width="50.38" height="3.59"/>
				<rect x="586.11" y="347.12" class="st17" width="50.38" height="1.05"/>
				<g class="st2">
					<path class="st3" d="M686.64,333.16c0-4.1-3.32-7.42-7.42-7.42s-7.42,3.32-7.42,7.42c0,4.1,3.32,7.42,7.42,7.42
						S686.64,337.26,686.64,333.16z"/>
					<polygon class="st24" points="683.52,333.32 677.06,329.6 677.06,337.05 					"/>
				</g>
			</g>
			<line class="st25" x1="516.87" y1="301.18" x2="614.56" y2="301.18"/>
			<g class="st2">
				<line class="st26" x1="516.87" y1="324.26" x2="574.91" y2="324.26"/>
				<line class="st26" x1="516.87" y1="333.39" x2="574.91" y2="333.39"/>
				<line class="st26" x1="516.87" y1="342.52" x2="574.91" y2="342.52"/>
			</g>
			<g class="st2">
				<line class="st26" x1="586.05" y1="324.26" x2="644.09" y2="324.26"/>
				<line class="st26" x1="586.05" y1="333.39" x2="644.09" y2="333.39"/>
				<line class="st26" x1="586.05" y1="342.52" x2="644.09" y2="342.52"/>
			</g>
			<line class="st25" x1="516.87" y1="308.7" x2="640.33" y2="308.7"/>
			<g>
				<rect x="708.29" y="210.97" class="st27" width="5.04" height="139.66"/>
				<rect x="708.29" y="244.85" class="st9" width="5.04" height="17.86"/>
			</g>
		</g>
		<line class="st1" x1="661.89" y1="355.35" x2="661.89" y2="401.36"/>
	</g>
	<g>
		<path class="st16" d="M589.02,486.46l0.35,0.34h0.8C589.4,486.64,589.02,486.46,589.02,486.46z"/>
	</g>
</g>
</svg>
