<?xml version="1.0" encoding="utf-8"?>
<!-- Generator: Adobe Illustrator 23.0.3, SVG Export Plug-In . SVG Version: 6.00 Build 0)  -->
<svg version="1.1" id="_x3C_Layer_x3E_" xmlns="http://www.w3.org/2000/svg" xmlns:xlink="http://www.w3.org/1999/xlink" x="0px"
	 y="0px" viewBox="0 0 3006 1670" style="enable-background:new 0 0 3006 1670;" xml:space="preserve">
<style type="text/css">
	.st0{display:none;fill:#E8E8E9;}
	.st1{display:none;}
	.st2{display:inline;fill:#363957;}
	.st3{display:inline;fill:#385988;}
	.st4{display:none;fill:url(#SVGID_1_);}
	.st5{display:inline;fill:#FFFFFF;}
	.st6{display:none;fill:url(#SVGID_2_);}
	.st7{display:none;fill:#FFFFFF;}
	.st8{display:inline;fill:#2E3048;}
	.st9{fill:url(#SVGID_3_);}
	.st10{fill:url(#SVGID_4_);}
	.st11{fill:#F4F4F4;}
	.st12{fill:#72ACFB;}
	.st13{fill:#385988;}
	.st14{fill:#4772B0;}
	.st15{fill:#5886C7;}
	.st16{fill:#E5F2FD;}
	.st17{fill:url(#SVGID_5_);}
	.st18{fill:url(#SVGID_6_);}
	.st19{fill:url(#SVGID_7_);}
	.st20{fill:url(#SVGID_8_);}
	.st21{fill:#BFD4FC;}
	.st22{fill:#FFFFFF;}
	.st23{fill:url(#SVGID_9_);}
	.st24{fill:url(#SVGID_10_);}
	.st25{fill:url(#SVGID_11_);}
	.st26{fill:#D4D4D4;}
	.st27{fill:url(#SVGID_12_);}
	.st28{fill:url(#SVGID_13_);}
	.st29{fill:url(#SVGID_14_);}
	.st30{fill:#C5CACF;}
	.st31{fill:#CEDEFD;}
	.st32{fill:#DF655A;}
	.st33{fill:#90C1FC;}
	.st34{fill:#4372BD;}
	.st35{fill:#4E85DE;}
	.st36{fill:url(#SVGID_15_);}
	.st37{fill:url(#SVGID_16_);}
	.st38{fill:url(#SVGID_17_);}
	.st39{fill:url(#SVGID_18_);}
	.st40{fill:url(#SVGID_19_);}
	.st41{fill:url(#SVGID_20_);}
	.st42{display:none;fill:#BFD4FC;}
	.st43{fill:#DCD0C8;}
	.st44{fill:#6D6865;}
	.st45{fill:#C6BBB5;}
	.st46{fill:#948C87;}
	.st47{fill:#A98E75;}
	.st48{fill:#EBB35C;}
	.st49{fill:#454971;}
	.st50{fill:#2E3048;}
	.st51{fill:#DBA585;}
	.st52{fill:#3E4148;}
	.st53{fill:#363957;}
	.st54{fill:#8C8581;}
	.st55{fill:#5D5955;}
	.st56{fill:#B9AFAA;}
	.st57{fill:#B2A8A3;}
	.st58{fill:#F4F6FF;}
	.st59{fill:#8C8480;}
	.st60{fill:#DEDFE6;}
	.st61{fill:#DE5A59;}
	.st62{fill:#762020;}
</style>
<rect class="st0" width="3006" height="1670"/>
<g class="st1">
	<path class="st2" d="M180.29,90.49v23.3h13.99v9.45h-24.8V90.49H180.29z"/>
	<path class="st2" d="M213.82,89.79c11.7,0,17.54,7.95,17.54,17.08c0,9.12-5.85,17.08-17.54,17.08c-11.7,0-17.54-7.96-17.54-17.08
		C196.27,97.74,202.12,89.79,213.82,89.79z M213.82,97.74c-5.66,0-8.66,3.88-8.66,9.12c0,5.24,2.99,9.12,8.66,9.12
		c5.66,0,8.65-3.88,8.65-9.12C222.47,101.63,219.48,97.74,213.82,97.74z"/>
	<path class="st2" d="M252.35,89.84c3.51,0,7.02,0.75,10.06,2.11v6.69c-2.48-1.64-5.8-2.53-9.12-2.53c-5.85,0-11.6,3.09-11.6,10.76
		c0,8.7,6.41,10.9,11.23,10.9c1.41,0,2.62-0.23,3.6-0.61v-11.7h6.69v16.23c-3.27,1.41-7.02,2.2-10.67,2.2
		c-9.17,0-18.01-5.01-18.01-17.03C234.52,94.98,243.36,89.84,252.35,89.84z"/>
	<path class="st2" d="M284.71,89.89c11.51,0,17.22,8.33,17.22,16.98c0,8.66-5.71,16.98-17.22,16.98c-11.56,0-17.22-8.33-17.22-16.98
		C267.49,98.21,273.15,89.89,284.71,89.89z M284.71,94.89c-7.91,0-11.79,5.71-11.79,11.98c0,6.27,3.88,11.98,11.79,11.98
		c7.95,0,11.79-5.7,11.79-11.98C296.49,100.6,292.66,94.89,284.71,94.89z"/>
	<path class="st2" d="M331.37,90.49v3.74h-11.51v29.01h-3.93V94.24h-11.51v-3.74H331.37z"/>
	<path class="st2" d="M345.68,123.24v-12.77l-12.87-19.98h3.09l11.18,17.45l11.18-17.45h3.09l-12.87,19.98v12.77H345.68z"/>
	<path class="st2" d="M377.29,90.49c7.3,0,13.71,2.29,13.71,10.25c0,8-6.41,10.29-13.71,10.29h-8.56v12.21h-1.87V90.49H377.29z
		 M377.38,92.27h-8.66v16.98h8.66c6.31,0,11.74-1.78,11.74-8.52C389.12,94.05,383.74,92.27,377.38,92.27z"/>
	<path class="st2" d="M418.86,90.49v1.12h-20.12v14.6h18.71v1.12h-18.71v14.79h20.54v1.12h-21.71V90.49H418.86z"/>
</g>
<g class="st1">
	<rect x="167" y="758.74" class="st3" width="501" height="3.34"/>
</g>
<g class="st1">
	<path class="st3" d="M292.76,439.69l-25.97,84.16h-19.6l-16.71-57.35l-16.71,57.35h-19.6l-25.97-84.16h19.48l16.71,63.6l18.15-63.6
		h15.87l18.15,63.6l16.71-63.6H292.76z"/>
	<path class="st3" d="M317.78,439.69v31.74c4.21-3.97,10.1-6.97,17.31-6.97c15.15,0,23.45,10.34,23.45,23.69v35.71h-16.71V490.3
		c0-7.81-4.69-11.42-11.18-11.42c-5.89,0-10.46,3.85-12.86,7.33v37.63h-16.71v-84.16H317.78z"/>
	<path class="st3" d="M411.92,466.14h17.31l-25.61,64.68c-6.49,16.11-15.51,21.04-24.89,21.04c-3,0-6.01-0.6-9.02-1.32v-13.83
		c2.29,0.48,4.57,0.84,6.86,0.84c6.01,0,10.58-4.09,13.71-12.62l0.12-0.24l-27.29-58.55h17.68l16.83,38.95L411.92,466.14z"/>
	<path class="st3" d="M521.58,439.69v84.16h-14.67v-8.42c-3.73,5.17-10.34,10.1-20.92,10.1c-18.39,0-28.25-14.79-28.25-30.54
		c0-15.75,9.86-30.54,28.25-30.54c9.14,0,15.27,3.73,19,7.81v-32.58H521.58z M489.96,478.52c-9.5,0-15.15,7.46-15.15,16.47
		c0,9.02,5.65,16.47,15.15,16.47c7.33,0,12.74-4.57,15.03-9.62v-13.7C502.7,483.09,497.29,478.52,489.96,478.52z"/>
	<path class="st3" d="M564.39,464.45c16.83,0,31.86,10.34,31.86,30.54c0,20.2-15.03,30.54-31.86,30.54
		c-16.71,0-31.86-10.34-31.86-30.54C532.53,474.79,547.68,464.45,564.39,464.45z M564.39,479.36c-9.5,0-14.79,6.73-14.79,15.63
		c0,8.9,5.29,15.63,14.79,15.63c9.62,0,14.91-6.73,14.91-15.63C579.29,486.09,574,479.36,564.39,479.36z"/>
	<path class="st3" d="M720.93,466.14l-18.51,57.71h-17.68l-11.42-37.63l-11.42,37.63h-17.79l-18.52-57.71h17.8l10.46,39.55
		l11.54-39.55h15.87l11.42,39.55l10.58-39.55H720.93z"/>
	<path class="st3" d="M754.36,464.45c23.92,0,31.62,18.88,27.77,35.95H741.5c1.92,8.42,10.82,11.9,20.32,11.9
		c6.61,0,12.5-1.32,17.43-3.49v13.1c-5.41,2.28-12.5,3.61-21.16,3.61c-18.28,0-33.42-10.46-33.42-30.54
		C724.67,473.23,741.38,464.45,754.36,464.45z M754.96,477.2c-7.09,0-13.34,4.45-13.58,12.38h25.73
		C767.71,485.61,765.42,477.2,754.96,477.2z"/>
	<path class="st3" d="M230.84,586.38v57.71h-14.79v-7.33c-4.45,5.17-11.06,9.02-19.24,9.02c-15.63,0-23.44-10.34-23.44-23.69v-35.71
		h16.71v33.54c0,7.69,4.21,11.42,11.06,11.42c6.01,0,10.46-3.85,12.98-7.33v-37.63H230.84z"/>
	<path class="st3" d="M266.55,584.69c8.18,0,15.39,2.04,21.28,4.93v13.71c-4.93-3.37-13.35-5.89-20.2-5.89
		c-3.73,0-8.05,1.08-8.05,4.57c0,9.62,32.58,4.81,32.58,25.97c0,13.58-12.38,17.79-26.21,17.79c-8.77,0-17.07-1.92-22.96-5.41
		v-13.83c6.25,4.09,15.03,6.13,22,6.13c6.13,0,10.1-1.08,10.1-4.33c0-9.26-32.58-5.17-32.58-25.85
		C242.51,589.14,254.41,584.69,266.55,584.69z"/>
	<path class="st3" d="M328.84,584.69c23.92,0,31.62,18.88,27.77,35.95h-40.63c1.92,8.41,10.82,11.9,20.32,11.9
		c6.61,0,12.5-1.32,17.43-3.49v13.1c-5.41,2.28-12.51,3.61-21.16,3.61c-18.28,0-33.42-10.46-33.42-30.54
		C299.14,593.47,315.86,584.69,328.84,584.69z M329.44,597.44c-7.09,0-13.35,4.45-13.58,12.38h25.73
		C342.18,605.85,339.9,597.44,329.44,597.44z"/>
	<path class="st3" d="M403.27,576.76c-5.17,0-9.74-2.89-9.74-9.5c0-6.49,4.57-9.38,9.74-9.38c5.29,0,9.86,2.89,9.86,9.38
		C413.13,573.87,408.56,576.76,403.27,576.76z M394.97,644.09v-57.71h16.71v57.71H394.97z"/>
	<path class="st3" d="M447.03,565.58v20.8h18.28v14.07h-18.28v22.6c0,6.01,3.01,8.66,9.26,8.66c3.85,0,7.09-0.6,10.46-1.92v13.47
		c-4.45,1.56-9.74,2.52-15.51,2.52c-11.18,0-20.8-5.17-20.8-19.48v-25.85h-9.74v-14.07h9.74v-16.83L447.03,565.58z"/>
	<path class="st3" d="M488.51,616.43c0-15.27,19-24.04,19-33.3c0-6.73-5.77-9.02-13.71-9.02c-7.45,0-14.91,2.76-20.32,5.89v-15.87
		c6.25-3.37,14.31-5.89,23.32-5.89c15.15,0,28.73,5.77,28.73,21.04c0,16.71-21.16,25.97-21.16,37.15H488.51z M496.57,645.65
		c-5.41,0-10.22-3.13-10.22-9.86c0-6.73,4.81-9.86,10.22-9.86c5.41,0,10.1,3.13,10.1,9.86
		C506.67,642.52,501.98,645.65,496.57,645.65z"/>
</g>
<g class="st1">
	<path class="st3" d="M174.05,849.94v28.04h-3.37v-28.04H174.05z"/>
	<path class="st3" d="M184.87,851.98v6.77h7.69v2.96h-7.69v9.94c0,2.92,1.32,3.8,4.12,3.8c1.52,0,2.96-0.36,4.25-0.88v2.96
		c-1.44,0.52-3.32,0.88-5.17,0.88c-3.72,0-6.37-2-6.37-6.21v-10.49h-3.6v-2.96h3.6v-5.97L184.87,851.98z"/>
	<path class="st3" d="M208.52,854.66c-1.12,0-2.08-0.68-2.08-2.04c0-1.32,0.96-2.04,2.08-2.04s2.08,0.72,2.08,2.04
		C210.6,853.98,209.64,854.66,208.52,854.66z M206.92,877.98v-19.23h3.21v19.23H206.92z"/>
	<path class="st3" d="M222.34,858.27c2.56,0,5.01,0.68,6.81,1.64v3.04c-1.6-1.04-4.29-1.8-6.61-1.8c-2.08,0-4.29,0.68-4.29,2.56
		c0,4.17,12.22,2.4,12.22,9.34c0,4-3.77,5.4-7.93,5.4c-2.72,0-5.65-0.72-7.45-1.88v-3.12c1.96,1.32,4.89,2.04,7.29,2.04
		c2.72,0,4.89-0.44,4.89-2.36c0-4.04-12.26-2.44-12.26-9.34C215.02,859.83,218.74,858.27,222.34,858.27z"/>
	<path class="st3" d="M261.9,875.45c0.48,0,1-0.12,1.48-0.28v2.6c-0.76,0.28-1.6,0.44-2.4,0.44c-1.56,0-2.96-0.64-3.53-2.32
		c-1.92,1.6-4.37,2.56-7.49,2.56c-3.4,0-6.77-1.8-6.77-5.85c0-4.97,4.57-6.49,8.69-6.49c1.68,0,3.73,0.24,5.33,0.6v-0.68
		c0-2.88-1.96-4.81-5.49-4.81c-2.96,0-5.33,0.72-7.01,1.44v-3.13c1.52-0.52,4.17-1.28,7.33-1.28c5.13,0,8.37,2.81,8.37,8.17v7.53
		C260.42,875.13,261.05,875.45,261.9,875.45z M250.64,875.69c2.44,0,4.89-1,6.57-2.8v-3.52c-1.36-0.28-3.33-0.56-4.89-0.56
		c-2.81,0-5.85,0.84-5.85,3.64C246.48,874.69,248.52,875.69,250.64,875.69z"/>
	<path class="st3" d="M278.94,848.73v29.25h-3.21v-29.25H278.94z"/>
	<path class="st3" d="M293.88,858.27c5.25,0,10.25,3.53,10.25,10.09c0,6.57-5.01,10.1-10.25,10.1c-5.21,0-10.25-3.53-10.25-10.1
		C283.63,861.79,288.68,858.27,293.88,858.27z M293.88,861.31c-3.92,0-7.05,2.61-7.05,7.05c0,4.45,3.13,7.05,7.05,7.05
		c3.93,0,7.05-2.61,7.05-7.05C300.94,863.92,297.81,861.31,293.88,861.31z"/>
	<path class="st3" d="M318.57,858.27c4.61,0,8.01,3.16,8.01,7.85v11.86h-3.21v-11.46c0-3.61-2.2-5.29-5.17-5.29
		c-2.84,0-4.97,1.92-6.25,3.85v12.9h-3.2v-19.23h2.88v2.84C312.93,859.91,315.49,858.27,318.57,858.27z"/>
	<path class="st3" d="M340.58,858.27c3.69,0,6.05,1.72,7.77,3.68v-3.2h2.89v19.23c0,6.61-5.17,9.3-10.5,9.3
		c-2.84,0-5.53-0.65-7.81-1.81v-3.12c2.28,1.28,4.77,1.96,7.41,1.96c4.09,0,7.73-1.56,7.69-6.33v-2.96
		c-1.4,1.72-3.76,3.44-7.45,3.44c-5.49,0-9.62-4.33-9.62-10.1C330.96,862.59,335.09,858.27,340.58,858.27z M340.94,861.23
		c-3.72,0-6.77,2.72-6.77,7.13c0,4.41,3.04,7.13,6.77,7.13c3.45,0,6.01-2.08,7.09-4.33v-5.21
		C346.95,863.47,344.39,861.23,340.94,861.23z"/>
	<path class="st3" d="M375.41,858.27c7.41,0,10.13,6.05,8.93,11.5h-15.3c0.4,4.04,4.04,5.73,7.93,5.73c2.36,0,4.68-0.64,6.33-1.56
		v3.13c-1.76,0.92-4.29,1.4-6.81,1.4c-5.69,0-10.65-3.24-10.65-10.1C365.83,861.63,370.84,858.27,375.41,858.27z M375.61,861.23
		c-3.28,0-6.33,1.96-6.57,5.73h12.46C381.78,864.92,380.49,861.23,375.61,861.23z"/>
	<path class="st3" d="M395.33,858.27c2.56,0,5.01,0.68,6.81,1.64v3.04c-1.6-1.04-4.29-1.8-6.61-1.8c-2.08,0-4.29,0.68-4.29,2.56
		c0,4.17,12.21,2.4,12.21,9.34c0,4-3.76,5.4-7.93,5.4c-2.72,0-5.65-0.72-7.45-1.88v-3.12c1.96,1.32,4.89,2.04,7.29,2.04
		c2.73,0,4.89-0.44,4.89-2.36c0-4.04-12.26-2.44-12.26-9.34C388,859.83,391.72,858.27,395.33,858.27z"/>
	<path class="st3" d="M412.24,851.98v6.77h7.69v2.96h-7.69v9.94c0,2.92,1.32,3.8,4.13,3.8c1.52,0,2.96-0.36,4.24-0.88v2.96
		c-1.44,0.52-3.32,0.88-5.17,0.88c-3.73,0-6.37-2-6.37-6.21v-10.49h-3.61v-2.96h3.61v-5.97L412.24,851.98z"/>
	<path class="st3" d="M441.33,875.45c0.48,0,1-0.12,1.48-0.28v2.6c-0.76,0.28-1.6,0.44-2.4,0.44c-1.56,0-2.96-0.64-3.52-2.32
		c-1.92,1.6-4.37,2.56-7.49,2.56c-3.41,0-6.77-1.8-6.77-5.85c0-4.97,4.57-6.49,8.69-6.49c1.68,0,3.73,0.24,5.33,0.6v-0.68
		c0-2.88-1.96-4.81-5.49-4.81c-2.96,0-5.33,0.72-7.01,1.44v-3.13c1.52-0.52,4.17-1.28,7.33-1.28c5.13,0,8.37,2.81,8.37,8.17v7.53
		C439.85,875.13,440.49,875.45,441.33,875.45z M430.07,875.69c2.45,0,4.89-1,6.57-2.8v-3.52c-1.36-0.28-3.33-0.56-4.89-0.56
		c-2.81,0-5.85,0.84-5.85,3.64C425.91,874.69,427.95,875.69,430.07,875.69z"/>
	<path class="st3" d="M449.24,849.94v11.7c1.4-1.64,3.76-3.36,7.45-3.36c5.49,0,9.61,4.33,9.61,10.09c0,5.77-4.13,10.1-9.61,10.1
		c-3.69,0-6.05-1.72-7.77-3.68v3.2h-2.88v-28.04H449.24z M456.32,861.23c-3.44,0-6.01,2.24-7.09,4.73v4.81
		c1.08,2.48,3.64,4.72,7.09,4.72c3.72,0,6.77-2.72,6.77-7.13C463.1,863.95,460.05,861.23,456.32,861.23z"/>
	<path class="st3" d="M474.21,848.73v29.25H471v-29.25H474.21z"/>
	<path class="st3" d="M481.9,854.66c-1.12,0-2.08-0.68-2.08-2.04c0-1.32,0.96-2.04,2.08-2.04s2.08,0.72,2.08,2.04
		C483.98,853.98,483.02,854.66,481.9,854.66z M480.3,877.98v-19.23h3.2v19.23H480.3z"/>
	<path class="st3" d="M495.73,858.27c2.56,0,5.01,0.68,6.81,1.64v3.04c-1.6-1.04-4.29-1.8-6.61-1.8c-2.08,0-4.29,0.68-4.29,2.56
		c0,4.17,12.22,2.4,12.22,9.34c0,4-3.76,5.4-7.93,5.4c-2.72,0-5.65-0.72-7.45-1.88v-3.12c1.96,1.32,4.89,2.04,7.29,2.04
		c2.72,0,4.89-0.44,4.89-2.36c0-4.04-12.26-2.44-12.26-9.34C488.4,859.83,492.12,858.27,495.73,858.27z"/>
	<path class="st3" d="M511.4,849.94v11.26c1.36-1.52,3.76-2.92,6.61-2.92c4.61,0,8.01,3.16,8.01,7.85v11.86h-3.2v-11.46
		c0-3.61-2.21-5.29-5.17-5.29c-2.84,0-4.97,1.92-6.25,3.85v12.9h-3.21v-28.04H511.4z"/>
	<path class="st3" d="M539.97,858.27c7.41,0,10.13,6.05,8.93,11.5h-15.3c0.4,4.04,4.05,5.73,7.93,5.73c2.36,0,4.69-0.64,6.33-1.56
		v3.13c-1.76,0.92-4.29,1.4-6.81,1.4c-5.69,0-10.66-3.24-10.66-10.1C530.4,861.63,535.4,858.27,539.97,858.27z M540.17,861.23
		c-3.29,0-6.33,1.96-6.57,5.73h12.46C546.34,864.92,545.06,861.23,540.17,861.23z"/>
	<path class="st3" d="M572.63,849.94v28.04h-2.88v-3.2c-1.72,1.96-4.09,3.68-7.77,3.68c-5.49,0-9.61-4.33-9.61-10.1
		c0-5.77,4.13-10.09,9.61-10.09c3.69,0,6.05,1.72,7.45,3.36v-11.7H572.63z M562.34,861.23c-3.72,0-6.77,2.72-6.77,7.13
		c0,4.41,3.05,7.13,6.77,7.13c3.44,0,6.01-2.24,7.09-4.72v-4.81C568.34,863.47,565.78,861.23,562.34,861.23z"/>
	<path class="st3" d="M590.04,877.98v-16.26h-3.61v-2.96h3.61v-2.32c0-5.37,3.44-6.97,6.81-6.97c1.76,0,3.49,0.36,4.81,0.88v2.96
		c-1.08-0.52-2.6-0.88-4.04-0.88c-2.32,0-4.37,0.6-4.37,4.13v2.2h7.21v2.96h-7.21v16.26H590.04z"/>
	<path class="st3" d="M620.73,875.45c0.48,0,1-0.12,1.48-0.28v2.6c-0.76,0.28-1.6,0.44-2.4,0.44c-1.56,0-2.96-0.64-3.52-2.32
		c-1.92,1.6-4.37,2.56-7.49,2.56c-3.41,0-6.77-1.8-6.77-5.85c0-4.97,4.57-6.49,8.69-6.49c1.68,0,3.73,0.24,5.33,0.6v-0.68
		c0-2.88-1.96-4.81-5.49-4.81c-2.96,0-5.33,0.72-7.01,1.44v-3.13c1.52-0.52,4.17-1.28,7.33-1.28c5.13,0,8.37,2.81,8.37,8.17v7.53
		C619.24,875.13,619.89,875.45,620.73,875.45z M609.47,875.69c2.44,0,4.89-1,6.57-2.8v-3.52c-1.36-0.28-3.32-0.56-4.89-0.56
		c-2.81,0-5.85,0.84-5.85,3.64C605.31,874.69,607.35,875.69,609.47,875.69z"/>
	<path class="st3" d="M634.52,858.27c2.16,0,4.29,0.48,5.93,1.56v3.13c-1.44-1.12-3.49-1.72-5.53-1.72c-3.72,0-7.61,2.08-7.61,7.13
		c0,4.93,3.77,7.13,7.53,7.13c2.08,0,4.2-0.6,5.81-1.56v3.2c-1.8,0.88-3.85,1.32-6.25,1.32c-5.05,0-10.29-3.16-10.29-10.01
		C624.1,861.43,629.51,858.27,634.52,858.27z"/>
	<path class="st3" d="M649.63,851.98v6.77h7.69v2.96h-7.69v9.94c0,2.92,1.32,3.8,4.13,3.8c1.52,0,2.96-0.36,4.25-0.88v2.96
		c-1.44,0.52-3.32,0.88-5.17,0.88c-3.73,0-6.37-2-6.37-6.21v-10.49h-3.6v-2.96h3.6v-5.97L649.63,851.98z"/>
	<path class="st3" d="M675.24,851.98v6.77h7.69v2.96h-7.69v9.94c0,2.92,1.32,3.8,4.13,3.8c1.52,0,2.96-0.36,4.24-0.88v2.96
		c-1.44,0.52-3.32,0.88-5.17,0.88c-3.72,0-6.37-2-6.37-6.21v-10.49h-3.6v-2.96h3.6v-5.97L675.24,851.98z"/>
	<path class="st3" d="M690.43,849.94v11.26c1.36-1.52,3.76-2.92,6.61-2.92c4.61,0,8.01,3.16,8.01,7.85v11.86h-3.2v-11.46
		c0-3.61-2.21-5.29-5.17-5.29c-2.84,0-4.97,1.92-6.25,3.85v12.9h-3.21v-28.04H690.43z"/>
	<path class="st3" d="M727.86,875.45c0.48,0,1-0.12,1.48-0.28v2.6c-0.76,0.28-1.61,0.44-2.4,0.44c-1.56,0-2.96-0.64-3.53-2.32
		c-1.92,1.6-4.37,2.56-7.49,2.56c-3.4,0-6.77-1.8-6.77-5.85c0-4.97,4.57-6.49,8.69-6.49c1.68,0,3.72,0.24,5.33,0.6v-0.68
		c0-2.88-1.96-4.81-5.49-4.81c-2.96,0-5.33,0.72-7.01,1.44v-3.13c1.52-0.52,4.17-1.28,7.33-1.28c5.13,0,8.37,2.81,8.37,8.17v7.53
		C726.38,875.13,727.02,875.45,727.86,875.45z M716.6,875.69c2.44,0,4.89-1,6.57-2.8v-3.52c-1.36-0.28-3.33-0.56-4.89-0.56
		c-2.8,0-5.85,0.84-5.85,3.64C712.44,874.69,714.48,875.69,716.6,875.69z"/>
	<path class="st3" d="M736.85,851.98v6.77h7.69v2.96h-7.69v9.94c0,2.92,1.32,3.8,4.13,3.8c1.52,0,2.96-0.36,4.25-0.88v2.96
		c-1.44,0.52-3.33,0.88-5.17,0.88c-3.73,0-6.37-2-6.37-6.21v-10.49h-3.61v-2.96h3.61v-5.97L736.85,851.98z"/>
	<path class="st3" d="M775.91,875.45c0.48,0,1-0.12,1.48-0.28v2.6c-0.76,0.28-1.6,0.44-2.4,0.44c-1.56,0-2.96-0.64-3.53-2.32
		c-1.92,1.6-4.36,2.56-7.49,2.56c-3.4,0-6.77-1.8-6.77-5.85c0-4.97,4.57-6.49,8.69-6.49c1.68,0,3.73,0.24,5.33,0.6v-0.68
		c0-2.88-1.96-4.81-5.49-4.81c-2.96,0-5.33,0.72-7.01,1.44v-3.13c1.52-0.52,4.17-1.28,7.33-1.28c5.13,0,8.37,2.81,8.37,8.17v7.53
		C774.43,875.13,775.07,875.45,775.91,875.45z M764.66,875.69c2.45,0,4.89-1,6.57-2.8v-3.52c-1.36-0.28-3.32-0.56-4.89-0.56
		c-2.8,0-5.85,0.84-5.85,3.64C760.49,874.69,762.54,875.69,764.66,875.69z"/>
	<path class="st3" d="M800.85,858.35v3.2c-3.76-0.44-6.81,1.36-7.97,4.45v11.98h-3.2v-19.23h2.88v3.41
		C794.08,859.63,797.48,858.07,800.85,858.35z"/>
	<path class="st3" d="M811.87,858.27c7.41,0,10.14,6.05,8.93,11.5h-15.3c0.4,4.04,4.05,5.73,7.93,5.73c2.36,0,4.69-0.64,6.33-1.56
		v3.13c-1.76,0.92-4.29,1.4-6.81,1.4c-5.69,0-10.66-3.24-10.66-10.1C802.3,861.63,807.3,858.27,811.87,858.27z M812.07,861.23
		c-3.28,0-6.33,1.96-6.57,5.73h12.46C818.24,864.92,816.96,861.23,812.07,861.23z"/>
	<path class="st3" d="M842.69,875.45c0.48,0,1-0.12,1.48-0.28v2.6c-0.76,0.28-1.6,0.44-2.4,0.44c-1.57,0-2.96-0.64-3.53-2.32
		c-1.92,1.6-4.37,2.56-7.49,2.56c-3.41,0-6.77-1.8-6.77-5.85c0-4.97,4.57-6.49,8.69-6.49c1.68,0,3.73,0.24,5.33,0.6v-0.68
		c0-2.88-1.96-4.81-5.49-4.81c-2.96,0-5.33,0.72-7.01,1.44v-3.13c1.52-0.52,4.17-1.28,7.33-1.28c5.13,0,8.37,2.81,8.37,8.17v7.53
		C841.2,875.13,841.85,875.45,842.69,875.45z M831.43,875.69c2.44,0,4.89-1,6.57-2.8v-3.52c-1.36-0.28-3.32-0.56-4.89-0.56
		c-2.81,0-5.85,0.84-5.85,3.64C827.26,874.69,829.31,875.69,831.43,875.69z"/>
	<path class="st3" d="M866.33,849.94v28.04h-2.88v-3.2c-1.72,1.96-4.09,3.68-7.77,3.68c-5.49,0-9.61-4.33-9.61-10.1
		c0-5.77,4.13-10.09,9.61-10.09c3.69,0,6.05,1.72,7.45,3.36v-11.7H866.33z M856.04,861.23c-3.73,0-6.77,2.72-6.77,7.13
		c0,4.41,3.04,7.13,6.77,7.13c3.44,0,6.01-2.24,7.09-4.72v-4.81C862.05,863.47,859.48,861.23,856.04,861.23z"/>
	<path class="st3" d="M880.53,858.27c7.41,0,10.14,6.05,8.93,11.5h-15.3c0.4,4.04,4.05,5.73,7.93,5.73c2.36,0,4.69-0.64,6.33-1.56
		v3.13c-1.76,0.92-4.29,1.4-6.81,1.4c-5.69,0-10.66-3.24-10.66-10.1C870.95,861.63,875.96,858.27,880.53,858.27z M880.73,861.23
		c-3.29,0-6.33,1.96-6.57,5.73h12.46C886.9,864.92,885.62,861.23,880.73,861.23z"/>
	<path class="st3" d="M905.41,858.35v3.2c-3.76-0.44-6.81,1.36-7.97,4.45v11.98h-3.2v-19.23h2.88v3.41
		C898.65,859.63,902.05,858.07,905.41,858.35z"/>
	<path class="st3" d="M945.41,858.75l-6.57,19.23h-3.49l-5.21-14.86l-5.21,14.86h-3.48l-6.57-19.23h3.37l4.97,15.71l5.49-15.71h2.88
		l5.49,15.71l4.97-15.71H945.41z"/>
	<path class="st3" d="M950.79,854.66c-1.12,0-2.08-0.68-2.08-2.04c0-1.32,0.96-2.04,2.08-2.04c1.12,0,2.08,0.72,2.08,2.04
		C952.87,853.98,951.91,854.66,950.79,854.66z M949.19,877.98v-19.23h3.2v19.23H949.19z"/>
	<path class="st3" d="M961.69,848.73v29.25h-3.2v-29.25H961.69z"/>
	<path class="st3" d="M970.99,848.73v29.25h-3.2v-29.25H970.99z"/>
	<path class="st3" d="M173.17,896.7v11.7c1.4-1.64,3.76-3.36,7.45-3.36c5.49,0,9.61,4.32,9.61,10.09c0,5.77-4.13,10.09-9.61,10.09
		c-3.69,0-6.05-1.72-7.77-3.68v3.2h-2.88V896.7H173.17z M180.26,907.99c-3.44,0-6.01,2.25-7.09,4.73v4.81
		c1.08,2.48,3.64,4.72,7.09,4.72c3.73,0,6.77-2.72,6.77-7.13C187.03,910.71,183.98,907.99,180.26,907.99z"/>
	<path class="st3" d="M203.11,905.03c7.41,0,10.13,6.05,8.93,11.49h-15.3c0.4,4.05,4.04,5.73,7.93,5.73c2.36,0,4.69-0.64,6.33-1.56
		v3.13c-1.76,0.92-4.29,1.4-6.81,1.4c-5.68,0-10.66-3.24-10.66-10.09C193.53,908.39,198.54,905.03,203.11,905.03z M203.31,907.99
		c-3.28,0-6.33,1.96-6.57,5.73h12.46C209.47,911.68,208.2,907.99,203.31,907.99z"/>
	<path class="st3" d="M245.74,896.7v28.04h-2.88v-3.2c-1.72,1.96-4.09,3.68-7.77,3.68c-5.49,0-9.61-4.33-9.61-10.09
		c0-5.77,4.13-10.09,9.61-10.09c3.69,0,6.05,1.72,7.45,3.36v-11.7H245.74z M235.45,907.99c-3.72,0-6.77,2.72-6.77,7.13
		c0,4.41,3.05,7.13,6.77,7.13c3.44,0,6.01-2.24,7.09-4.72v-4.81C241.46,910.24,238.89,907.99,235.45,907.99z"/>
	<path class="st3" d="M253.37,901.42c-1.12,0-2.08-0.68-2.08-2.04c0-1.32,0.96-2.04,2.08-2.04s2.08,0.72,2.08,2.04
		C255.45,900.74,254.49,901.42,253.37,901.42z M251.77,924.74v-19.23h3.21v19.23H251.77z"/>
	<path class="st3" d="M267.19,905.03c2.56,0,5.01,0.68,6.81,1.64v3.04c-1.6-1.04-4.29-1.8-6.61-1.8c-2.08,0-4.29,0.68-4.29,2.56
		c0,4.16,12.22,2.4,12.22,9.33c0,4.01-3.77,5.41-7.93,5.41c-2.72,0-5.65-0.72-7.45-1.88v-3.13c1.96,1.32,4.89,2.04,7.29,2.04
		c2.72,0,4.89-0.44,4.89-2.36c0-4.04-12.26-2.44-12.26-9.33C259.86,906.59,263.59,905.03,267.19,905.03z"/>
	<path class="st3" d="M284.11,898.74v6.77h7.69v2.96h-7.69v9.93c0,2.92,1.32,3.8,4.13,3.8c1.52,0,2.96-0.36,4.25-0.88v2.96
		c-1.44,0.52-3.33,0.88-5.17,0.88c-3.73,0-6.37-2-6.37-6.21v-10.49h-3.61v-2.96h3.61v-5.97L284.11,898.74z"/>
	<path class="st3" d="M307.27,905.11v3.2c-3.76-0.44-6.81,1.36-7.97,4.45v11.98h-3.2v-19.23h2.88v3.41
		C300.5,906.39,303.91,904.83,307.27,905.11z"/>
	<path class="st3" d="M327.63,922.21c0.48,0,1-0.12,1.48-0.28v2.6c-0.76,0.28-1.6,0.44-2.4,0.44c-1.56,0-2.96-0.64-3.53-2.32
		c-1.92,1.6-4.36,2.56-7.49,2.56c-3.41,0-6.77-1.8-6.77-5.84c0-4.97,4.57-6.49,8.69-6.49c1.68,0,3.72,0.24,5.33,0.6v-0.68
		c0-2.88-1.96-4.81-5.49-4.81c-2.96,0-5.33,0.72-7.01,1.44v-3.13c1.52-0.52,4.17-1.28,7.33-1.28c5.12,0,8.37,2.8,8.37,8.17v7.53
		C326.15,921.89,326.79,922.21,327.63,922.21z M316.37,922.45c2.44,0,4.89-1,6.57-2.81v-3.52c-1.36-0.28-3.33-0.56-4.89-0.56
		c-2.81,0-5.85,0.84-5.85,3.64C312.21,921.45,314.25,922.45,316.37,922.45z"/>
	<path class="st3" d="M341.42,905.03c2.16,0,4.29,0.48,5.93,1.56v3.13c-1.44-1.12-3.48-1.72-5.52-1.72c-3.73,0-7.61,2.09-7.61,7.13
		c0,4.93,3.77,7.13,7.53,7.13c2.08,0,4.21-0.6,5.81-1.56v3.2c-1.8,0.88-3.85,1.32-6.25,1.32c-5.05,0-10.29-3.16-10.29-10.01
		C331.01,908.19,336.41,905.03,341.42,905.03z"/>
	<path class="st3" d="M356.53,898.74v6.77h7.69v2.96h-7.69v9.93c0,2.92,1.32,3.8,4.13,3.8c1.52,0,2.96-0.36,4.25-0.88v2.96
		c-1.44,0.52-3.32,0.88-5.17,0.88c-3.73,0-6.37-2-6.37-6.21v-10.49h-3.6v-2.96h3.6v-5.97L356.53,898.74z"/>
	<path class="st3" d="M376.77,905.03c7.41,0,10.13,6.05,8.93,11.49h-15.3c0.4,4.05,4.05,5.73,7.93,5.73c2.37,0,4.69-0.64,6.33-1.56
		v3.13c-1.76,0.92-4.29,1.4-6.81,1.4c-5.69,0-10.65-3.24-10.65-10.09C367.2,908.39,372.2,905.03,376.77,905.03z M376.97,907.99
		c-3.28,0-6.33,1.96-6.57,5.73h12.46C383.14,911.68,381.86,907.99,376.97,907.99z"/>
	<path class="st3" d="M409.43,896.7v28.04h-2.88v-3.2c-1.72,1.96-4.09,3.68-7.77,3.68c-5.49,0-9.62-4.33-9.62-10.09
		c0-5.77,4.13-10.09,9.62-10.09c3.69,0,6.05,1.72,7.45,3.36v-11.7H409.43z M399.14,907.99c-3.73,0-6.77,2.72-6.77,7.13
		c0,4.41,3.04,7.13,6.77,7.13c3.44,0,6.01-2.24,7.09-4.72v-4.81C405.14,910.24,402.58,907.99,399.14,907.99z"/>
	<path class="st3" d="M428.56,896.7v11.7c1.4-1.64,3.76-3.36,7.45-3.36c5.49,0,9.61,4.32,9.61,10.09c0,5.77-4.13,10.09-9.61,10.09
		c-3.69,0-6.05-1.72-7.77-3.68v3.2h-2.88V896.7H428.56z M435.64,907.99c-3.44,0-6.01,2.25-7.09,4.73v4.81
		c1.08,2.48,3.64,4.72,7.09,4.72c3.72,0,6.77-2.72,6.77-7.13C442.42,910.71,439.37,907.99,435.64,907.99z"/>
	<path class="st3" d="M464.14,905.51h3.4l-9.45,22.11c-2,4.64-4.45,6.41-7.25,6.41c-0.68,0-1.36-0.08-2.08-0.28v-2.76
		c0.56,0.16,1.12,0.24,1.68,0.24c2.16,0,3.73-1.57,4.97-4.69l0.72-1.76L447,905.51h3.41l7.25,15.58L464.14,905.51z"/>
	<path class="st3" d="M483.66,898.74v6.77h7.69v2.96h-7.69v9.93c0,2.92,1.32,3.8,4.13,3.8c1.52,0,2.96-0.36,4.25-0.88v2.96
		c-1.44,0.52-3.33,0.88-5.17,0.88c-3.72,0-6.37-2-6.37-6.21v-10.49h-3.6v-2.96h3.6v-5.97L483.66,898.74z"/>
	<path class="st3" d="M498.85,896.7v11.26c1.36-1.52,3.77-2.92,6.61-2.92c4.61,0,8.01,3.16,8.01,7.85v11.86h-3.21v-11.46
		c0-3.61-2.2-5.29-5.17-5.29c-2.84,0-4.97,1.92-6.25,3.85v12.9h-3.2V896.7H498.85z"/>
	<path class="st3" d="M527.43,905.03c7.41,0,10.13,6.05,8.93,11.49h-15.3c0.4,4.05,4.04,5.73,7.93,5.73c2.36,0,4.68-0.64,6.33-1.56
		v3.13c-1.76,0.92-4.29,1.4-6.81,1.4c-5.69,0-10.65-3.24-10.65-10.09C517.86,908.39,522.86,905.03,527.43,905.03z M527.63,907.99
		c-3.28,0-6.33,1.96-6.57,5.73h12.46C533.8,911.68,532.51,907.99,527.63,907.99z"/>
	<path class="st3" d="M562.3,905.11v3.2c-3.77-0.44-6.81,1.36-7.97,4.45v11.98h-3.21v-19.23H554v3.41
		C555.53,906.39,558.93,904.83,562.3,905.11z"/>
	<path class="st3" d="M573.32,905.03c7.41,0,10.13,6.05,8.93,11.49h-15.3c0.4,4.05,4.04,5.73,7.93,5.73c2.36,0,4.68-0.64,6.33-1.56
		v3.13c-1.76,0.92-4.29,1.4-6.81,1.4c-5.69,0-10.66-3.24-10.66-10.09C563.75,908.39,568.76,905.03,573.32,905.03z M573.52,907.99
		c-3.28,0-6.33,1.96-6.57,5.73h12.46C579.69,911.68,578.41,907.99,573.52,907.99z"/>
	<path class="st3" d="M604.14,922.21c0.48,0,1-0.12,1.48-0.28v2.6c-0.76,0.28-1.6,0.44-2.4,0.44c-1.56,0-2.96-0.64-3.52-2.32
		c-1.92,1.6-4.37,2.56-7.49,2.56c-3.41,0-6.77-1.8-6.77-5.84c0-4.97,4.57-6.49,8.69-6.49c1.68,0,3.72,0.24,5.33,0.6v-0.68
		c0-2.88-1.96-4.81-5.49-4.81c-2.97,0-5.33,0.72-7.01,1.44v-3.13c1.52-0.52,4.17-1.28,7.33-1.28c5.13,0,8.37,2.8,8.37,8.17v7.53
		C602.65,921.89,603.3,922.21,604.14,922.21z M592.88,922.45c2.45,0,4.89-1,6.57-2.81v-3.52c-1.36-0.28-3.32-0.56-4.89-0.56
		c-2.8,0-5.85,0.84-5.85,3.64C588.71,921.45,590.76,922.45,592.88,922.45z"/>
	<path class="st3" d="M627.78,896.7v28.04h-2.88v-3.2c-1.72,1.96-4.09,3.68-7.77,3.68c-5.49,0-9.61-4.33-9.61-10.09
		c0-5.77,4.13-10.09,9.61-10.09c3.69,0,6.05,1.72,7.45,3.36v-11.7H627.78z M617.49,907.99c-3.73,0-6.77,2.72-6.77,7.13
		c0,4.41,3.05,7.13,6.77,7.13c3.44,0,6.01-2.24,7.09-4.72v-4.81C623.5,910.24,620.93,907.99,617.49,907.99z"/>
	<path class="st3" d="M650.83,922.21c0.48,0,1-0.12,1.48-0.28v2.6c-0.76,0.28-1.6,0.44-2.4,0.44c-1.57,0-2.97-0.64-3.53-2.32
		c-1.92,1.6-4.37,2.56-7.49,2.56c-3.41,0-6.77-1.8-6.77-5.84c0-4.97,4.57-6.49,8.69-6.49c1.69,0,3.73,0.24,5.33,0.6v-0.68
		c0-2.88-1.96-4.81-5.49-4.81c-2.97,0-5.33,0.72-7.01,1.44v-3.13c1.52-0.52,4.17-1.28,7.33-1.28c5.13,0,8.37,2.8,8.37,8.17v7.53
		C649.35,921.89,649.99,922.21,650.83,922.21z M639.57,922.45c2.44,0,4.89-1,6.57-2.81v-3.52c-1.36-0.28-3.32-0.56-4.89-0.56
		c-2.81,0-5.85,0.84-5.85,3.64C635.41,921.45,637.45,922.45,639.57,922.45z"/>
	<path class="st3" d="M658.73,896.7v11.7c1.4-1.64,3.76-3.36,7.45-3.36c5.49,0,9.61,4.32,9.61,10.09c0,5.77-4.12,10.09-9.61,10.09
		c-3.69,0-6.05-1.72-7.77-3.68v3.2h-2.88V896.7H658.73z M665.82,907.99c-3.44,0-6.01,2.25-7.09,4.73v4.81
		c1.08,2.48,3.64,4.72,7.09,4.72c3.73,0,6.77-2.72,6.77-7.13C672.59,910.71,669.55,907.99,665.82,907.99z"/>
	<path class="st3" d="M683.7,895.49v29.24h-3.21v-29.24H683.7z"/>
	<path class="st3" d="M697.97,905.03c7.41,0,10.13,6.05,8.93,11.49h-15.3c0.4,4.05,4.04,5.73,7.93,5.73c2.36,0,4.68-0.64,6.33-1.56
		v3.13c-1.76,0.92-4.29,1.4-6.81,1.4c-5.69,0-10.65-3.24-10.65-10.09C688.4,908.39,693.4,905.03,697.97,905.03z M698.17,907.99
		c-3.28,0-6.33,1.96-6.57,5.73h12.46C704.34,911.68,703.06,907.99,698.17,907.99z"/>
	<path class="st3" d="M730.75,905.03c2.16,0,4.29,0.48,5.93,1.56v3.13c-1.44-1.12-3.49-1.72-5.53-1.72c-3.72,0-7.61,2.09-7.61,7.13
		c0,4.93,3.77,7.13,7.53,7.13c2.08,0,4.2-0.6,5.81-1.56v3.2c-1.8,0.88-3.85,1.32-6.25,1.32c-5.05,0-10.29-3.16-10.29-10.01
		C720.34,908.19,725.75,905.03,730.75,905.03z"/>
	<path class="st3" d="M750.11,905.03c5.25,0,10.25,3.53,10.25,10.09c0,6.57-5,10.09-10.25,10.09c-5.21,0-10.25-3.53-10.25-10.09
		C739.86,908.56,744.9,905.03,750.11,905.03z M750.11,908.07c-3.92,0-7.05,2.61-7.05,7.05c0,4.45,3.12,7.05,7.05,7.05
		c3.93,0,7.05-2.61,7.05-7.05C757.16,910.68,754.04,908.07,750.11,908.07z"/>
	<path class="st3" d="M774.8,905.03c4.61,0,8.01,3.16,8.01,7.85v11.86h-3.2v-11.46c0-3.61-2.21-5.29-5.17-5.29
		c-2.84,0-4.97,1.92-6.25,3.85v12.9h-3.2v-19.23h2.88v2.84C769.15,906.67,771.72,905.03,774.8,905.03z"/>
	<path class="st3" d="M792.72,898.74v6.77h7.69v2.96h-7.69v9.93c0,2.92,1.32,3.8,4.13,3.8c1.52,0,2.97-0.36,4.25-0.88v2.96
		c-1.44,0.52-3.32,0.88-5.17,0.88c-3.73,0-6.37-2-6.37-6.21v-10.49h-3.6v-2.96h3.6v-5.97L792.72,898.74z"/>
	<path class="st3" d="M812.96,905.03c7.41,0,10.13,6.05,8.93,11.49h-15.3c0.4,4.05,4.05,5.73,7.93,5.73c2.36,0,4.69-0.64,6.33-1.56
		v3.13c-1.76,0.92-4.29,1.4-6.81,1.4c-5.69,0-10.65-3.24-10.65-10.09C803.38,908.39,808.39,905.03,812.96,905.03z M813.16,907.99
		c-3.28,0-6.33,1.96-6.57,5.73h12.46C819.33,911.68,818.05,907.99,813.16,907.99z"/>
	<path class="st3" d="M836.48,905.03c4.61,0,8.01,3.16,8.01,7.85v11.86h-3.21v-11.46c0-3.61-2.2-5.29-5.17-5.29
		c-2.84,0-4.97,1.92-6.25,3.85v12.9h-3.2v-19.23h2.88v2.84C830.84,906.67,833.4,905.03,836.48,905.03z"/>
	<path class="st3" d="M854.4,898.74v6.77h7.69v2.96h-7.69v9.93c0,2.92,1.32,3.8,4.13,3.8c1.52,0,2.96-0.36,4.25-0.88v2.96
		c-1.44,0.52-3.32,0.88-5.17,0.88c-3.73,0-6.37-2-6.37-6.21v-10.49h-3.6v-2.96h3.6v-5.97L854.4,898.74z"/>
	<path class="st3" d="M885.3,905.03c5.25,0,10.26,3.53,10.26,10.09c0,6.57-5.01,10.09-10.26,10.09c-5.21,0-10.25-3.53-10.25-10.09
		C875.04,908.56,880.09,905.03,885.3,905.03z M885.3,908.07c-3.92,0-7.05,2.61-7.05,7.05c0,4.45,3.12,7.05,7.05,7.05
		c3.93,0,7.05-2.61,7.05-7.05C892.35,910.68,889.23,908.07,885.3,908.07z"/>
	<path class="st3" d="M901.3,924.74v-16.26h-3.61v-2.96h3.61v-2.32c0-5.37,3.44-6.97,6.81-6.97c1.76,0,3.48,0.36,4.8,0.88v2.96
		c-1.08-0.52-2.6-0.88-4.04-0.88c-2.33,0-4.37,0.6-4.37,4.13v2.2h7.21v2.96h-7.21v16.26H901.3z"/>
	<path class="st3" d="M941.25,922.21c0.48,0,1-0.12,1.48-0.28v2.6c-0.76,0.28-1.6,0.44-2.4,0.44c-1.56,0-2.96-0.64-3.53-2.32
		c-1.92,1.6-4.37,2.56-7.49,2.56c-3.4,0-6.77-1.8-6.77-5.84c0-4.97,4.57-6.49,8.69-6.49c1.68,0,3.72,0.24,5.33,0.6v-0.68
		c0-2.88-1.96-4.81-5.49-4.81c-2.96,0-5.33,0.72-7.01,1.44v-3.13c1.52-0.52,4.16-1.28,7.33-1.28c5.13,0,8.37,2.8,8.37,8.17v7.53
		C939.77,921.89,940.41,922.21,941.25,922.21z M929.99,922.45c2.44,0,4.89-1,6.57-2.81v-3.52c-1.36-0.28-3.32-0.56-4.89-0.56
		c-2.8,0-5.85,0.84-5.85,3.64C925.83,921.45,927.87,922.45,929.99,922.45z"/>
	<path class="st3" d="M180.62,951.79c5.49,0,9.61,4.33,9.61,10.09c0,5.77-4.13,10.09-9.61,10.09c-3.69,0-6.05-1.72-7.45-3.37v11.7
		h-3.21v-28.04h2.88v3.2C174.57,953.51,176.94,951.79,180.62,951.79z M180.26,954.75c-3.44,0-6.01,2.24-7.09,4.73v4.81
		c1.08,2.48,3.64,4.72,7.09,4.72c3.73,0,6.77-2.72,6.77-7.13C187.03,957.47,183.98,954.75,180.26,954.75z"/>
	<path class="st3" d="M211.96,968.97c0.48,0,1-0.12,1.48-0.28v2.6c-0.76,0.28-1.6,0.44-2.4,0.44c-1.57,0-2.97-0.64-3.53-2.32
		c-1.92,1.6-4.37,2.56-7.49,2.56c-3.41,0-6.77-1.8-6.77-5.84c0-4.97,4.57-6.49,8.7-6.49c1.68,0,3.72,0.24,5.33,0.6v-0.68
		c0-2.88-1.96-4.81-5.49-4.81c-2.96,0-5.33,0.72-7.01,1.44v-3.12c1.52-0.52,4.17-1.28,7.33-1.28c5.13,0,8.37,2.8,8.37,8.17v7.53
		C210.48,968.65,211.12,968.97,211.96,968.97z M200.7,969.21c2.44,0,4.89-1,6.57-2.8v-3.52c-1.36-0.28-3.32-0.56-4.89-0.56
		c-2.81,0-5.85,0.84-5.85,3.64C196.54,968.21,198.58,969.21,200.7,969.21z"/>
	<path class="st3" d="M224.95,951.79c3.69,0,6.05,1.72,7.77,3.68v-3.2h2.88v19.23c0,6.61-5.17,9.3-10.49,9.3
		c-2.84,0-5.53-0.65-7.81-1.81v-3.13c2.28,1.29,4.77,1.96,7.41,1.96c4.09,0,7.73-1.56,7.69-6.33v-2.96
		c-1.4,1.73-3.77,3.44-7.45,3.44c-5.49,0-9.61-4.33-9.61-10.09C215.34,956.11,219.46,951.79,224.95,951.79z M225.31,954.75
		c-3.72,0-6.77,2.72-6.77,7.13c0,4.41,3.04,7.13,6.77,7.13c3.44,0,6.01-2.08,7.09-4.33v-5.2
		C231.32,956.99,228.75,954.75,225.31,954.75z"/>
	<path class="st3" d="M249.8,951.79c7.41,0,10.13,6.05,8.93,11.49h-15.3c0.4,4.04,4.05,5.73,7.93,5.73c2.36,0,4.69-0.64,6.33-1.56
		v3.13c-1.76,0.92-4.29,1.4-6.81,1.4c-5.68,0-10.65-3.24-10.65-10.09C240.23,955.15,245.23,951.79,249.8,951.79z M250,954.75
		c-3.28,0-6.33,1.96-6.57,5.73h12.46C256.17,958.44,254.89,954.75,250,954.75z"/>
	<path class="st3" d="M300.89,952.27l-6.57,19.23h-3.48l-5.21-14.86l-5.21,14.86h-3.49l-6.57-19.23h3.37l4.97,15.7l5.49-15.7h2.88
		l5.49,15.7l4.97-15.7H300.89z"/>
	<path class="st3" d="M307.8,943.46v11.25c1.36-1.52,3.77-2.92,6.61-2.92c4.61,0,8.01,3.16,8.01,7.85v11.86h-3.21v-11.46
		c0-3.61-2.2-5.29-5.17-5.29c-2.84,0-4.97,1.92-6.25,3.85v12.9h-3.2v-28.04H307.8z"/>
	<path class="st3" d="M336.37,951.79c7.41,0,10.13,6.05,8.93,11.49H330c0.4,4.04,4.04,5.73,7.93,5.73c2.36,0,4.68-0.64,6.33-1.56
		v3.13c-1.76,0.92-4.29,1.4-6.81,1.4c-5.69,0-10.65-3.24-10.65-10.09C326.8,955.15,331.8,951.79,336.37,951.79z M336.57,954.75
		c-3.28,0-6.33,1.96-6.57,5.73h12.46C342.74,958.44,341.46,954.75,336.57,954.75z"/>
	<path class="st3" d="M359.9,951.79c4.61,0,8.01,3.16,8.01,7.85v11.86h-3.21v-11.46c0-3.61-2.2-5.29-5.17-5.29
		c-2.84,0-4.97,1.92-6.25,3.85v12.9h-3.21v-19.23h2.89v2.84C354.25,953.43,356.81,951.79,359.9,951.79z"/>
	<path class="st3" d="M386.87,942.25v29.24h-3.2v-29.24H386.87z"/>
	<path class="st3" d="M401.82,951.79c5.25,0,10.25,3.53,10.25,10.09c0,6.57-5,10.09-10.25,10.09c-5.21,0-10.25-3.53-10.25-10.09
		C391.56,955.31,396.61,951.79,401.82,951.79z M401.82,954.83c-3.92,0-7.05,2.61-7.05,7.05c0,4.45,3.12,7.05,7.05,7.05
		c3.93,0,7.05-2.61,7.05-7.05C408.87,957.44,405.74,954.83,401.82,954.83z"/>
	<path class="st3" d="M425.63,951.79c5.25,0,10.25,3.53,10.25,10.09c0,6.57-5.01,10.09-10.25,10.09c-5.21,0-10.25-3.53-10.25-10.09
		C415.37,955.31,420.42,951.79,425.63,951.79z M425.63,954.83c-3.93,0-7.05,2.61-7.05,7.05c0,4.45,3.13,7.05,7.05,7.05
		c3.92,0,7.05-2.61,7.05-7.05C432.68,957.44,429.55,954.83,425.63,954.83z"/>
	<path class="st3" d="M454.52,971.5l-7.05-8.25h-3.77v8.25h-3.2v-28.04h3.2v16.83h3.89l6.09-8.01h3.73l-7.29,9.57l8.17,9.65H454.52z
		"/>
	<path class="st3" d="M463.07,948.18c-1.12,0-2.08-0.68-2.08-2.04c0-1.32,0.96-2.04,2.08-2.04s2.08,0.72,2.08,2.04
		C465.15,947.5,464.19,948.18,463.07,948.18z M461.46,971.5v-19.23h3.21v19.23H461.46z"/>
	<path class="st3" d="M480.49,951.79c4.61,0,8.01,3.16,8.01,7.85v11.86h-3.21v-11.46c0-3.61-2.2-5.29-5.17-5.29
		c-2.84,0-4.97,1.92-6.25,3.85v12.9h-3.21v-19.23h2.89v2.84C474.85,953.43,477.41,951.79,480.49,951.79z"/>
	<path class="st3" d="M502.5,951.79c3.69,0,6.05,1.72,7.77,3.68v-3.2h2.88v19.23c0,6.61-5.17,9.3-10.49,9.3
		c-2.84,0-5.53-0.65-7.81-1.81v-3.13c2.28,1.29,4.77,1.96,7.41,1.96c4.09,0,7.73-1.56,7.69-6.33v-2.96
		c-1.4,1.73-3.76,3.44-7.45,3.44c-5.49,0-9.62-4.33-9.62-10.09C492.88,956.11,497.01,951.79,502.5,951.79z M502.86,954.75
		c-3.73,0-6.77,2.72-6.77,7.13c0,4.41,3.04,7.13,6.77,7.13c3.44,0,6.01-2.08,7.09-4.33v-5.2
		C508.87,956.99,506.3,954.75,502.86,954.75z"/>
	<path class="st3" d="M546.18,968.97c0.48,0,1-0.12,1.48-0.28v2.6c-0.76,0.28-1.6,0.44-2.4,0.44c-1.56,0-2.96-0.64-3.53-2.32
		c-1.92,1.6-4.37,2.56-7.49,2.56c-3.4,0-6.77-1.8-6.77-5.84c0-4.97,4.57-6.49,8.69-6.49c1.68,0,3.72,0.24,5.33,0.6v-0.68
		c0-2.88-1.96-4.81-5.49-4.81c-2.96,0-5.33,0.72-7.01,1.44v-3.12c1.52-0.52,4.17-1.28,7.33-1.28c5.13,0,8.37,2.8,8.37,8.17v7.53
		C544.7,968.65,545.34,968.97,546.18,968.97z M534.93,969.21c2.44,0,4.89-1,6.57-2.8v-3.52c-1.36-0.28-3.32-0.56-4.89-0.56
		c-2.81,0-5.85,0.84-5.85,3.64C530.76,968.21,532.8,969.21,534.93,969.21z"/>
	<path class="st3" d="M555.17,945.5v6.77h7.69v2.96h-7.69v9.94c0,2.92,1.32,3.8,4.13,3.8c1.52,0,2.96-0.36,4.24-0.88v2.97
		c-1.44,0.52-3.32,0.88-5.17,0.88c-3.72,0-6.37-2-6.37-6.21v-10.49h-3.6v-2.96h3.6v-5.97L555.17,945.5z"/>
	<path class="st3" d="M578.81,948.18c-1.12,0-2.08-0.68-2.08-2.04c0-1.32,0.96-2.04,2.08-2.04c1.12,0,2.08,0.72,2.08,2.04
		C580.9,947.5,579.94,948.18,578.81,948.18z M577.21,971.5v-19.23h3.2v19.23H577.21z"/>
	<path class="st3" d="M590.88,945.5v6.77h7.69v2.96h-7.69v9.94c0,2.92,1.32,3.8,4.13,3.8c1.52,0,2.96-0.36,4.25-0.88v2.97
		c-1.44,0.52-3.33,0.88-5.17,0.88c-3.73,0-6.37-2-6.37-6.21v-10.49h-3.6v-2.96h3.6v-5.97L590.88,945.5z"/>
	<path class="st3" d="M609.07,951.79c2.56,0,5.01,0.68,6.81,1.64v3.04c-1.6-1.04-4.29-1.8-6.61-1.8c-2.08,0-4.29,0.68-4.29,2.56
		c0,4.17,12.22,2.4,12.22,9.33c0,4.01-3.76,5.4-7.93,5.4c-2.72,0-5.65-0.72-7.45-1.88v-3.13c1.96,1.33,4.89,2.04,7.29,2.04
		c2.72,0,4.89-0.44,4.89-2.36c0-4.04-12.26-2.44-12.26-9.33C601.74,953.35,605.47,951.79,609.07,951.79z"/>
	<path class="st3" d="M634.8,942.25v29.24h-3.2v-29.24H634.8z"/>
	<path class="st3" d="M657.92,968.97c0.48,0,1-0.12,1.48-0.28v2.6c-0.76,0.28-1.6,0.44-2.4,0.44c-1.56,0-2.96-0.64-3.53-2.32
		c-1.92,1.6-4.37,2.56-7.49,2.56c-3.41,0-6.77-1.8-6.77-5.84c0-4.97,4.57-6.49,8.69-6.49c1.68,0,3.73,0.24,5.33,0.6v-0.68
		c0-2.88-1.96-4.81-5.49-4.81c-2.96,0-5.33,0.72-7.01,1.44v-3.12c1.52-0.52,4.17-1.28,7.33-1.28c5.13,0,8.37,2.8,8.37,8.17v7.53
		C656.44,968.65,657.08,968.97,657.92,968.97z M646.67,969.21c2.44,0,4.89-1,6.57-2.8v-3.52c-1.36-0.28-3.33-0.56-4.89-0.56
		c-2.81,0-5.85,0.84-5.85,3.64C642.5,968.21,644.54,969.21,646.67,969.21z"/>
	<path class="st3" d="M676.28,952.27h3.4l-9.45,22.11c-2,4.64-4.45,6.41-7.25,6.41c-0.68,0-1.36-0.09-2.08-0.29v-2.76
		c0.56,0.16,1.12,0.24,1.68,0.24c2.17,0,3.73-1.57,4.97-4.69l0.72-1.76l-9.13-19.27h3.41l7.25,15.58L676.28,952.27z"/>
	<path class="st3" d="M691.47,951.79c5.25,0,10.25,3.53,10.25,10.09c0,6.57-5,10.09-10.25,10.09c-5.21,0-10.25-3.53-10.25-10.09
		C681.22,955.31,686.27,951.79,691.47,951.79z M691.47,954.83c-3.92,0-7.05,2.61-7.05,7.05c0,4.45,3.12,7.05,7.05,7.05
		c3.93,0,7.05-2.61,7.05-7.05C698.52,957.44,695.4,954.83,691.47,954.83z"/>
	<path class="st3" d="M723.93,952.27v19.23h-2.88v-2.84c-1.28,1.68-3.85,3.32-6.93,3.32c-5.01,0-8.01-3.16-8.01-7.85v-11.86h3.21
		v11.45c0,3.6,1.8,5.29,5.17,5.29c2.84,0,4.97-1.92,6.25-3.84v-12.9H723.93z"/>
	<path class="st3" d="M734.32,945.5v6.77h7.69v2.96h-7.69v9.94c0,2.92,1.32,3.8,4.13,3.8c1.52,0,2.96-0.36,4.25-0.88v2.97
		c-1.44,0.52-3.33,0.88-5.17,0.88c-3.73,0-6.37-2-6.37-6.21v-10.49h-3.6v-2.96h3.6v-5.97L734.32,945.5z"/>
	<path class="st3" d="M747.67,971.86c-1.12,0-2.13-0.68-2.13-2.04c0-1.32,1-2,2.13-2c1.12,0,2.08,0.68,2.08,2
		C749.75,971.18,748.79,971.86,747.67,971.86z"/>
</g>
<linearGradient id="SVGID_1_" gradientUnits="userSpaceOnUse" x1="167" y1="1198.2573" x2="567.7998" y2="1198.2573">
	<stop  offset="0" style="stop-color:#C41635"/>
	<stop  offset="1" style="stop-color:#EEBE63"/>
</linearGradient>
<path class="st4" d="M217.1,1148.16h300.6c27.67,0,50.1,22.43,50.1,50.1l0,0c0,27.67-22.43,50.1-50.1,50.1H217.1
	c-27.67,0-50.1-22.43-50.1-50.1l0,0C167,1170.59,189.43,1148.16,217.1,1148.16z"/>
<g class="st1">
	<path class="st5" d="M248.03,1176.01c4.01,0,7.97,0.85,11.34,2.46v5.94c-2.83-1.82-6.63-2.78-10.48-2.78
		c-7.32,0-14.7,4.01-14.7,13.79c0,10.69,7.75,13.85,14.54,13.85c2.08,0,4.12-0.38,5.61-1.07v-14.17h5.94v18.29
		c-3.58,1.61-7.81,2.51-11.92,2.51c-10.37,0-20.42-5.45-20.42-19.41C227.93,1182.21,237.98,1176.01,248.03,1176.01z"/>
	<path class="st5" d="M278.27,1187.77c10.21,0,13.74,8.23,12.08,15.67h-19.3c0.64,4.6,5.13,6.52,9.83,6.52
		c3.1,0,5.94-0.75,8.13-1.82v4.92c-2.35,1.13-5.61,1.76-9.19,1.76c-7.86,0-14.54-4.49-14.54-13.53
		C265.28,1192,272.34,1187.77,278.27,1187.77z M278.54,1192.53c-3.85,0-7.32,2.3-7.54,6.63h14.22
		C285.54,1196.91,284.15,1192.53,278.54,1192.53z"/>
	<path class="st5" d="M303.71,1179.32v9.14h9.3v5.03h-9.3v11.76c0,3.37,1.55,4.49,4.87,4.49c1.87,0,3.58-0.38,5.19-1.01v4.92
		c-1.92,0.69-4.38,1.12-6.9,1.12c-4.97,0-8.82-2.46-8.82-8.45v-12.83h-4.6v-5.03h4.6v-7.75L303.71,1179.32z"/>
	<path class="st5" d="M339.88,1187.77c3.53,0,6.74,0.91,9.25,2.19v5.03c-2.14-1.45-5.83-2.51-8.88-2.51c-2.3,0-4.76,0.69-4.76,2.78
		c0,4.97,15.45,2.67,15.45,12.03c0,5.67-5.24,7.54-11.07,7.54c-3.74,0-7.54-0.91-10.05-2.46v-5.08c2.67,1.76,6.58,2.73,9.78,2.73
		c3.21,0,5.56-0.54,5.56-2.62c0-4.76-15.5-2.78-15.5-11.98C329.67,1189.8,334.81,1187.77,339.88,1187.77z"/>
	<path class="st5" d="M363.67,1179.32v9.14h9.3v5.03h-9.3v11.76c0,3.37,1.55,4.49,4.86,4.49c1.87,0,3.58-0.38,5.19-1.01v4.92
		c-1.92,0.69-4.38,1.12-6.9,1.12c-4.97,0-8.82-2.46-8.82-8.45v-12.83h-4.6v-5.03h4.6v-7.75L363.67,1179.32z"/>
	<path class="st5" d="M402.09,1210.06c0.59,0,1.18-0.16,1.71-0.32v4.12c-1.07,0.43-2.35,0.64-3.64,0.64c-2.35,0-4.22-0.91-5.13-2.99
		c-2.51,2.03-5.67,3.31-9.68,3.31c-4.65,0-8.98-2.56-8.98-7.86c0-6.57,6.09-8.6,11.44-8.6c2.19,0,4.65,0.32,6.68,0.75v-0.91
		c0-3.21-2.35-5.45-6.74-5.45c-3.8,0-6.95,0.96-9.25,1.98v-5.24c2.03-0.7,5.72-1.71,9.84-1.71c7.27,0,11.87,3.48,11.87,11.23v9.19
		C400.22,1209.63,401.08,1210.06,402.09,1210.06z M382.26,1206.59c0,2.51,2.24,3.79,4.81,3.79c2.73,0,5.4-1.01,7.43-3.04v-4.33
		c-1.55-0.32-3.74-0.64-5.56-0.64C385.68,1202.36,382.26,1203.38,382.26,1206.59z"/>
	<path class="st5" d="M423.63,1187.93v5.61c-4.6-0.64-8.61,1.39-10.16,5.03v15.56h-5.72v-25.66h5.08v4.22
		C414.81,1189.53,418.97,1187.5,423.63,1187.93z"/>
	<path class="st5" d="M435.49,1179.32v9.14h9.3v5.03h-9.3v11.76c0,3.37,1.55,4.49,4.87,4.49c1.87,0,3.58-0.38,5.19-1.01v4.92
		c-1.92,0.69-4.38,1.12-6.9,1.12c-4.97,0-8.82-2.46-8.82-8.45v-12.83h-4.6v-5.03h4.6v-7.75L435.49,1179.32z"/>
	<path class="st5" d="M461.57,1187.77c10.21,0,13.74,8.23,12.08,15.67h-19.3c0.64,4.6,5.13,6.52,9.84,6.52
		c3.1,0,5.93-0.75,8.13-1.82v4.92c-2.35,1.13-5.61,1.76-9.19,1.76c-7.86,0-14.54-4.49-14.54-13.53
		C448.57,1192,455.63,1187.77,461.57,1187.77z M461.83,1192.53c-3.85,0-7.33,2.3-7.54,6.63h14.22
		C468.84,1196.91,467.45,1192.53,461.83,1192.53z"/>
	<path class="st5" d="M505.55,1176.7v37.42h-5.13v-4.06c-1.98,2.51-5.03,4.76-9.84,4.76c-7.75,0-12.72-6.15-12.72-13.53
		s4.97-13.53,12.72-13.53c4.49,0,7.49,1.98,9.25,4.01v-15.07H505.55z M491.6,1192.79c-4.6,0-7.96,3.48-7.96,8.5
		c0,5.03,3.37,8.5,7.96,8.5c4.01,0,6.95-2.57,8.18-5.4v-6.26C498.55,1195.36,495.61,1192.79,491.6,1192.79z"/>
</g>
<linearGradient id="SVGID_2_" gradientUnits="userSpaceOnUse" x1="1933.0223" y1="441.1549" x2="2690.0886" y2="-315.9114">
	<stop  offset="0" style="stop-color:#2B19BC"/>
	<stop  offset="1" style="stop-color:#9651D8"/>
</linearGradient>
<path class="st6" d="M3006,0v239.35c-175.57,112.3-389.22,178.15-619.63,178.15C2021.85,417.5,1699.36,252.68,1503,0H3006z"/>
<g class="st1">
	<path class="st5" d="M1801.11,95.2v28.04h-4.57V111.3h-14.78v11.94h-4.57V95.2h4.57v11.9h14.78V95.2H1801.11z"/>
	<path class="st5" d="M1815.95,103.49c5.41,0,10.42,3.49,10.42,10.13c0,6.65-5.01,10.13-10.42,10.13c-5.37,0-10.41-3.49-10.41-10.13
		C1805.53,106.98,1810.58,103.49,1815.95,103.49z M1815.95,107.42c-3.6,0-6.09,2.44-6.09,6.21c0,3.77,2.49,6.21,6.09,6.21
		c3.57,0,6.05-2.44,6.05-6.21C1822,109.86,1819.51,107.42,1815.95,107.42z"/>
	<path class="st5" d="M1830.54,123.24v-19.23h3.8v2.4c1.04-1.16,3.29-2.92,6.41-2.92c2.89,0,4.89,1.2,6.01,3.08
		c1.68-1.68,3.93-3.08,6.73-3.08c5.08,0,7.29,3.77,7.29,7.73v12.02h-4.29v-11.9c0-2.48-1.48-4.05-3.81-4.05
		c-2.12,0-3.76,1.4-4.77,2.6c0.04,0.44,0.08,0.88,0.08,1.32v12.02h-4.29v-11.9c0-2.48-1.48-4.05-3.8-4.05
		c-2.33,0-4.09,1.68-5.09,2.96v12.98H1830.54z"/>
	<path class="st5" d="M1874.5,103.49c7.65,0,10.29,6.17,9.05,11.74h-14.46c0.48,3.44,3.84,4.89,7.37,4.89
		c2.32,0,4.45-0.56,6.09-1.36v3.69c-1.76,0.84-4.2,1.32-6.89,1.32c-5.89,0-10.89-3.36-10.89-10.13
		C1864.77,106.66,1870.06,103.49,1874.5,103.49z M1874.71,107.06c-2.89,0-5.49,1.72-5.65,4.97h10.65
		C1879.95,110.34,1878.91,107.06,1874.71,107.06z"/>
</g>
<g class="st1">
	<path class="st5" d="M1968.99,123.24l11.86-28.04h5.01l11.82,28.04h-4.81l-2.48-6.05h-14.06l-2.49,6.05H1968.99z M1977.88,113.19
		h10.89l-4.92-11.98c-0.16-0.44-0.32-0.88-0.52-1.56c-0.2,0.68-0.36,1.12-0.52,1.56L1977.88,113.19z"/>
	<path class="st5" d="M2004.9,95.2v11.3c1.32-1.48,3.57-3,6.93-3c5.77,0,9.53,4.61,9.53,10.13c0,5.53-3.77,10.13-9.53,10.13
		c-3.61,0-5.89-1.68-7.41-3.56v3.04h-3.81V95.2H2004.9z M2011.03,107.26c-2.96,0-5.21,1.92-6.13,4.01v4.69
		c0.92,2.12,3.17,4.04,6.13,4.04c3.49,0,5.97-2.6,5.97-6.37C2016.99,109.86,2014.51,107.26,2011.03,107.26z"/>
	<path class="st5" d="M2034.75,103.49c5.41,0,10.41,3.49,10.41,10.13c0,6.65-5.01,10.13-10.41,10.13c-5.37,0-10.42-3.49-10.42-10.13
		C2024.34,106.98,2029.39,103.49,2034.75,103.49z M2034.75,107.42c-3.6,0-6.09,2.44-6.09,6.21c0,3.77,2.49,6.21,6.09,6.21
		c3.56,0,6.05-2.44,6.05-6.21C2040.8,109.86,2038.32,107.42,2034.75,107.42z"/>
	<path class="st5" d="M2067.57,104.01v19.23h-3.81v-2.64c-1.4,1.68-3.76,3.16-6.69,3.16c-5.08,0-7.93-3.28-7.93-7.85v-11.9h4.29
		v11.34c0,3.13,1.64,4.61,4.49,4.61c2.44,0,4.29-1.64,5.37-3.2v-12.74H2067.57z"/>
	<path class="st5" d="M2078.6,97.17v6.85h6.97v3.77h-6.97v8.81c0,2.52,1.16,3.36,3.65,3.36c1.4,0,2.68-0.28,3.88-0.76v3.69
		c-1.44,0.52-3.28,0.84-5.17,0.84c-3.72,0-6.61-1.84-6.61-6.33v-9.61h-3.44v-3.77h3.44v-5.81L2078.6,97.17z"/>
</g>
<g class="st1">
	<path class="st5" d="M2182.22,94.68c3.21,0,6.49,0.8,8.77,2.12v4.37c-2.28-1.52-5.41-2.36-8.41-2.32c-3.41,0-5.57,1-5.57,3.41
		c0,6.05,16.02,3.61,16.02,13.62c0,5.89-5.01,7.93-10.61,7.89c-3.77,0-7.17-0.88-9.93-2.44v-4.49c3.04,1.96,6.41,2.76,9.61,2.76
		c3.61,0,6.29-0.84,6.29-3.49c0-6.49-16.02-3.85-16.02-13.78C2172.37,97.17,2176.93,94.68,2182.22,94.68z"/>
	<path class="st5" d="M2205.47,103.49c7.65,0,10.29,6.17,9.05,11.74h-14.46c0.48,3.44,3.84,4.89,7.37,4.89
		c2.33,0,4.45-0.56,6.09-1.36v3.69c-1.76,0.84-4.21,1.32-6.89,1.32c-5.89,0-10.9-3.36-10.9-10.13
		C2195.73,106.66,2201.02,103.49,2205.47,103.49z M2205.67,107.06c-2.88,0-5.49,1.72-5.65,4.97h10.66
		C2210.92,110.34,2209.87,107.06,2205.67,107.06z"/>
	<path class="st5" d="M2230.8,103.61v4.21c-3.44-0.48-6.45,1.04-7.61,3.77v11.66h-4.29v-19.23h3.81v3.16
		C2224.19,104.82,2227.31,103.29,2230.8,103.61z"/>
	<path class="st5" d="M2252.84,104.01l-8.25,19.23h-4.53l-8.21-19.23h4.64l5.85,14.58l5.81-14.58H2252.84z"/>
	<path class="st5" d="M2258.21,100.33c-1.4,0-2.64-0.8-2.64-2.56c0-1.68,1.24-2.52,2.64-2.52s2.61,0.84,2.61,2.52
		C2260.82,99.53,2259.62,100.33,2258.21,100.33z M2256.05,123.24v-19.23h4.29v19.23H2256.05z"/>
	<path class="st5" d="M2275.21,103.49c2.16,0,4.25,0.48,5.93,1.48v3.93c-1.4-1-3.37-1.6-5.33-1.6c-3.41,0-6.85,1.8-6.85,6.33
		c0,4.37,3.33,6.33,6.77,6.33c2.04,0,4.08-0.6,5.61-1.48v3.97c-1.84,0.88-3.92,1.32-6.37,1.32c-5.13,0-10.37-3.13-10.37-9.97
		C2264.59,106.62,2270.08,103.49,2275.21,103.49z"/>
	<path class="st5" d="M2293.84,103.49c7.65,0,10.29,6.17,9.05,11.74h-14.46c0.48,3.44,3.85,4.89,7.37,4.89
		c2.32,0,4.45-0.56,6.09-1.36v3.69c-1.77,0.84-4.21,1.32-6.89,1.32c-5.89,0-10.89-3.36-10.89-10.13
		C2284.11,106.66,2289.4,103.49,2293.84,103.49z M2294.04,107.06c-2.89,0-5.49,1.72-5.65,4.97h10.66
		C2299.29,110.34,2298.25,107.06,2294.04,107.06z"/>
	<path class="st5" d="M2313.93,103.49c2.64,0,5.04,0.68,6.93,1.64v3.77c-1.6-1.08-4.37-1.88-6.65-1.88c-1.72,0-3.57,0.52-3.57,2.08
		c0,3.73,11.58,2,11.58,9.01c0,4.25-3.92,5.65-8.29,5.65c-2.81,0-5.65-0.68-7.53-1.84v-3.8c2,1.32,4.93,2.04,7.33,2.04
		c2.4,0,4.17-0.4,4.17-1.96c0-3.56-11.62-2.08-11.62-8.97C2306.27,105.02,2310.12,103.49,2313.93,103.49z"/>
</g>
<g class="st1">
	<path class="st5" d="M2423.47,94.68c2.81,0,5.57,0.64,7.97,1.84v4.45c-1.96-1.36-4.57-2.08-7.21-2.08
		c-5.37,0-10.94,3.16-10.98,10.57c0,6.89,5.69,10.1,11.05,10.1c2.88,0,5.49-0.76,7.33-2.16v4.53c-2.36,1.16-5.17,1.84-8.13,1.84
		c-7.25,0-14.94-4.73-14.9-14.3C2408.61,99.49,2416.1,94.68,2423.47,94.68z"/>
	<path class="st5" d="M2444.68,103.49c5.4,0,10.41,3.49,10.41,10.13c0,6.65-5.01,10.13-10.41,10.13c-5.37,0-10.42-3.49-10.42-10.13
		C2434.26,106.98,2439.31,103.49,2444.68,103.49z M2444.68,107.42c-3.61,0-6.09,2.44-6.09,6.21c0,3.77,2.48,6.21,6.09,6.21
		c3.56,0,6.05-2.44,6.05-6.21C2450.72,109.86,2448.24,107.42,2444.68,107.42z"/>
	<path class="st5" d="M2469.77,103.49c4.85,0,7.93,3.28,7.93,7.85v11.9h-4.29v-11.34c0-3.12-1.92-4.61-4.48-4.61
		c-2.45,0-4.29,1.64-5.37,3.2v12.74h-4.29v-19.23h3.8v2.64C2464.48,104.98,2466.84,103.49,2469.77,103.49z"/>
	<path class="st5" d="M2488.32,97.17v6.85h6.97v3.77h-6.97v8.81c0,2.52,1.17,3.36,3.65,3.36c1.4,0,2.68-0.28,3.88-0.76v3.69
		c-1.44,0.52-3.28,0.84-5.17,0.84c-3.72,0-6.61-1.84-6.61-6.33v-9.61h-3.44v-3.77h3.44v-5.81L2488.32,97.17z"/>
	<path class="st5" d="M2517.13,120.2c0.44,0,0.88-0.12,1.29-0.24v3.08c-0.8,0.32-1.76,0.48-2.73,0.48c-1.76,0-3.16-0.68-3.85-2.24
		c-1.88,1.52-4.24,2.48-7.25,2.48c-3.48,0-6.73-1.92-6.73-5.89c0-4.93,4.57-6.45,8.57-6.45c1.64,0,3.49,0.24,5.01,0.56v-0.68
		c0-2.4-1.76-4.09-5.05-4.09c-2.84,0-5.21,0.72-6.93,1.48v-3.93c1.52-0.52,4.29-1.28,7.37-1.28c5.45,0,8.89,2.6,8.89,8.41v6.89
		C2515.73,119.88,2516.37,120.2,2517.13,120.2z M2502.27,117.59c0,1.88,1.68,2.84,3.61,2.84c2.04,0,4.04-0.76,5.56-2.28v-3.25
		c-1.16-0.24-2.8-0.48-4.17-0.48C2504.84,114.43,2502.27,115.19,2502.27,117.59z"/>
	<path class="st5" d="M2530.81,103.49c2.16,0,4.25,0.48,5.93,1.48v3.93c-1.4-1-3.37-1.6-5.33-1.6c-3.4,0-6.85,1.8-6.85,6.33
		c0,4.37,3.33,6.33,6.77,6.33c2.04,0,4.08-0.6,5.61-1.48v3.97c-1.84,0.88-3.92,1.32-6.37,1.32c-5.13,0-10.37-3.13-10.37-9.97
		C2520.19,106.62,2525.68,103.49,2530.81,103.49z"/>
	<path class="st5" d="M2546.76,97.17v6.85h6.97v3.77h-6.97v8.81c0,2.52,1.16,3.36,3.64,3.36c1.4,0,2.69-0.28,3.89-0.76v3.69
		c-1.44,0.52-3.28,0.84-5.17,0.84c-3.73,0-6.61-1.84-6.61-6.33v-9.61h-3.44v-3.77h3.44v-5.81L2546.76,97.17z"/>
</g>
<path class="st7" d="M2797.25,69.59h-116.9c-23.06,0-41.75,18.69-41.75,41.75c0,23.06,18.69,41.75,41.75,41.75h116.9
	c23.06,0,41.75-18.69,41.75-41.75C2839,88.28,2820.31,69.59,2797.25,69.59L2797.25,69.59z"/>
<g class="st1">
	<path class="st8" d="M2680.52,94.68c3.2,0,6.49,0.8,8.77,2.12v4.37c-2.28-1.52-5.41-2.36-8.41-2.32c-3.41,0-5.57,1-5.57,3.41
		c0,6.05,16.03,3.61,16.03,13.62c0,5.89-5.01,7.93-10.62,7.89c-3.76,0-7.17-0.88-9.94-2.44v-4.49c3.05,1.96,6.41,2.76,9.62,2.76
		c3.6,0,6.29-0.84,6.29-3.49c0-6.49-16.03-3.85-16.03-13.78C2670.66,97.17,2675.23,94.68,2680.52,94.68z"/>
	<path class="st8" d="M2697.47,100.33c-1.4,0-2.64-0.8-2.64-2.56c0-1.68,1.24-2.52,2.64-2.52c1.4,0,2.61,0.84,2.61,2.52
		C2700.08,99.53,2698.88,100.33,2697.47,100.33z M2695.31,123.24v-19.23h4.29v19.23H2695.31z"/>
	<path class="st8" d="M2713.38,103.49c3.6,0,5.89,1.68,7.37,3.52v-3h3.84V123c0,6.93-5.28,9.57-10.77,9.57
		c-2.92,0-5.65-0.64-7.93-1.8v-3.93c2.21,1.28,4.77,1.96,7.37,1.96c3.81,0,7.05-1.36,7.05-5.69v-2.44
		c-1.32,1.56-3.56,3.08-6.93,3.08c-5.81,0-9.53-4.61-9.53-10.13C2703.85,108.1,2707.58,103.49,2713.38,103.49z M2714.14,107.26
		c-3.44,0-5.97,2.6-5.97,6.37c0,3.77,2.52,6.37,5.97,6.37c3,0,5.21-1.8,6.13-3.76v-4.97
		C2719.35,109.18,2717.15,107.26,2714.14,107.26z"/>
	<path class="st8" d="M2740.48,103.49c4.85,0,7.93,3.28,7.93,7.85v11.9h-4.29v-11.34c0-3.12-1.92-4.61-4.49-4.61
		c-2.44,0-4.29,1.64-5.37,3.2v12.74h-4.29v-19.23h3.81v2.64C2735.19,104.98,2737.55,103.49,2740.48,103.49z"/>
	<path class="st8" d="M2781.23,104.01v19.23h-3.81v-2.64c-1.4,1.68-3.76,3.16-6.69,3.16c-5.09,0-7.93-3.28-7.93-7.85v-11.9h4.29
		v11.34c0,3.13,1.64,4.61,4.49,4.61c2.44,0,4.29-1.64,5.37-3.2v-12.74H2781.23z"/>
	<path class="st8" d="M2797.83,103.49c5.77,0,9.53,4.61,9.53,10.13c0,5.53-3.76,10.13-9.53,10.13c-3.36,0-5.61-1.48-6.93-3v11.3
		h-4.29v-28.04h3.81v3C2791.94,105.18,2794.22,103.49,2797.83,103.49z M2797.03,107.26c-2.96,0-5.21,1.92-6.13,4.01v4.69
		c0.92,2.12,3.16,4.04,6.13,4.04c3.48,0,5.97-2.6,5.97-6.37C2803,109.86,2800.51,107.26,2797.03,107.26z"/>
</g>
<linearGradient id="SVGID_3_" gradientUnits="userSpaceOnUse" x1="570.4341" y1="337.2098" x2="2438.8628" y2="1415.9476">
	<stop  offset="0" style="stop-color:#AF76E5"/>
	<stop  offset="1" style="stop-color:#640EB8"/>
</linearGradient>
<path class="st9" d="M2378.59,509.3c-217.73,12.44-533.98,110.6-915.95-270.42c-314.52-313.74-857.19-133.11-979.7,283.5
	c-130.06,442.31,189.42,803.21,420.34,942.53c284.53,171.66,848.75,195.95,1157.12,74.34c309.38-122.01,525.93-339.78,596.38-508.75
	C2768.91,761.58,2652.15,493.67,2378.59,509.3z"/>
<linearGradient id="SVGID_4_" gradientUnits="userSpaceOnUse" x1="852.1225" y1="16.8862" x2="2273.2852" y2="1438.0488">
	<stop  offset="0" style="stop-color:#2B19BC"/>
	<stop  offset="1" style="stop-color:#9651D8"/>
</linearGradient>
<path class="st10" d="M2676.91,564.55c-60.29-193.13-298.83-342.94-639.66-202.4c-340.83,140.54-484.63,56.04-735.12-104.94
	C970.55,44.1,539.94,139.68,465.05,519.71c-82.39,418.1,271.8,746.92,466.49,871.42s846.75,369.5,1452.53-75.95
	C2630.56,1133.94,2752.39,806.34,2676.91,564.55z"/>
<g>
	<g>
		<g>
			<path class="st11" d="M2087.34,1204.84H1648.9c-13.93,0-25.22-11.29-25.22-25.22V648c0-13.93,11.29-25.22,25.22-25.22h438.44
				c13.93,0,25.22,11.29,25.22,25.22v531.61C2112.56,1193.55,2101.27,1204.84,2087.34,1204.84z"/>
		</g>
		<g>
			<g>
				<g>
					<path class="st12" d="M1920.46,864.2c-18.69-53.61-68.68-86.55-121.36-84.92c-12.76,0.39-25.67,2.81-38.34,7.46
						c-38.37,14.07-65.89,45.4-77.19,82.42c-7.84,25.66-7.89,54.04,1.63,81.3c0.94,2.71,1.97,5.38,3.08,7.98
						c5,11.81,11.57,22.49,19.37,31.88c32.69,39.4,86.94,56.05,137.27,37.6C1909.87,1004.11,1943.7,930.8,1920.46,864.2z
						 M1834.37,997.74c-37.73,13.83-78.41,1.35-102.92-28.19c-5.84-7.04-10.77-15.05-14.52-23.91c-0.83-1.95-1.6-3.95-2.31-5.99
						c-7.13-20.44-7.09-41.72-1.22-60.95c8.47-27.75,29.1-51.25,57.87-61.79c9.49-3.48,19.18-5.3,28.74-5.59
						c39.49-1.22,76.97,23.47,91,63.67C1908.44,924.93,1883.08,979.89,1834.37,997.74z"/>
				</g>
			</g>
			<g>
				<g>
					<path class="st13" d="M1713.41,878.71l-29.85-9.56c11.3-37.02,38.82-68.35,77.19-82.42c12.67-4.64,25.58-7.06,38.34-7.46
						l0.93,32.04c-9.56,0.3-19.25,2.11-28.74,5.59C1742.51,827.46,1721.88,850.96,1713.41,878.71z"/>
				</g>
			</g>
			<g>
				<g>
					<path class="st14" d="M1716.94,945.65l-28.67,12.79c-1.11-2.6-2.14-5.27-3.08-7.98c-9.52-27.26-9.47-55.65-1.63-81.3
						l29.85,9.56c-5.87,19.23-5.92,40.51,1.22,60.95C1715.33,941.7,1716.11,943.7,1716.94,945.65z"/>
				</g>
			</g>
			<g>
				<g>
					<path class="st15" d="M1707.63,990.32c-7.8-9.39-14.37-20.07-19.37-31.88l28.67-12.79c3.74,8.86,8.67,16.87,14.52,23.91
						L1707.63,990.32z"/>
				</g>
			</g>
		</g>
		<g>
			<g>
				<g>
					<path class="st12" d="M2028.8,942.44c-20.77-10.08-44.79-4.72-59.74,11.55c-3.62,3.94-6.7,8.52-9.09,13.68
						c-7.21,15.62-6.31,33.04,0.94,47.25c5.03,9.86,13.12,18.17,23.68,23.29c1.04,0.51,2.11,0.98,3.18,1.41
						c4.83,1.95,9.79,3.11,14.76,3.52c20.81,1.72,41.42-9.67,50.88-30.16C2065.61,986.53,2054.6,954.95,2028.8,942.44z
						 M2041.71,1007.31c-7.09,15.36-22.55,23.9-38.14,22.61c-3.72-0.31-7.45-1.17-11.07-2.64c-0.8-0.33-1.6-0.68-2.39-1.06
						c-7.92-3.84-13.98-10.08-17.75-17.46c-5.44-10.66-6.12-23.72-0.71-35.43c1.79-3.87,4.1-7.3,6.81-10.25
						c11.21-12.2,29.22-16.22,44.79-8.67C2042.61,963.8,2050.87,987.48,2041.71,1007.31z"/>
				</g>
			</g>
			<g>
				<g>
					<path class="st13" d="M1972.37,1008.76l-11.46,6.16c-7.25-14.22-8.15-31.63-0.94-47.25c2.39-5.16,5.47-9.74,9.09-13.68
						l9.41,9.09c-2.7,2.95-5.02,6.39-6.81,10.25C1966.25,985.05,1966.92,998.1,1972.37,1008.76z"/>
				</g>
			</g>
			<g>
				<g>
					<path class="st14" d="M1992.5,1027.28l-4.73,12.34c-1.07-0.43-2.13-0.9-3.18-1.41c-10.56-5.12-18.66-13.44-23.68-23.29
						l11.46-6.16c3.77,7.38,9.83,13.62,17.75,17.46C1990.9,1026.61,1991.7,1026.96,1992.5,1027.28z"/>
				</g>
			</g>
		</g>
		<g>
			<g>
				<g>
					<path class="st12" d="M2053.4,851.65c9.82-21.29,4.6-45.91-11.27-61.23c-3.84-3.71-8.31-6.87-13.34-9.31
						c-15.24-7.39-32.24-6.48-46.11,0.96c-9.61,5.16-17.72,13.44-22.72,24.27c-0.48,1.08-0.95,2.17-1.37,3.26
						c-1.91,4.96-3.03,10.05-3.43,15.13c-1.68,21.32,9.44,42.46,29.43,52.15C2010.39,889.4,2041.19,878.1,2053.4,851.65z
						 M1990.11,864.9c-14.98-7.27-23.31-23.11-22.06-39.1c0.3-3.81,1.14-7.63,2.57-11.35c0.32-0.82,0.66-1.64,1.03-2.44
						c3.75-8.12,9.83-14.33,17.04-18.2c10.4-5.58,23.13-6.26,34.56-0.72c3.77,1.83,7.12,4.2,10.01,6.98
						c11.9,11.48,15.82,29.94,8.44,45.91C2032.57,865.81,2009.46,874.28,1990.11,864.9z"/>
				</g>
			</g>
			<g>
				<g>
					<path class="st12" d="M1988.71,793.81l-6.02-11.74c13.87-7.44,30.86-8.35,46.11-0.96c5.03,2.44,9.49,5.6,13.34,9.31l-8.87,9.66
						c-2.89-2.78-6.24-5.15-10.01-6.98C2011.84,787.55,1999.1,788.24,1988.71,793.81z"/>
				</g>
			</g>
			<g>
				<g>
					<path class="st14" d="M1970.63,814.45l-12.03-4.85c0.42-1.09,0.89-2.18,1.37-3.26c5-10.83,13.11-19.11,22.72-24.27l6.02,11.74
						c-7.22,3.86-13.3,10.08-17.04,18.2C1971.29,812.81,1970.95,813.63,1970.63,814.45z"/>
				</g>
			</g>
			<g>
				<g>
					<path class="st15" d="M1955.16,824.73c0.4-5.09,1.53-10.18,3.43-15.13l12.03,4.85c-1.43,3.71-2.27,7.54-2.57,11.35
						L1955.16,824.73z"/>
				</g>
			</g>
		</g>
		<g>
			<polygon class="st16" points="1990.8,1078.06 1894.31,1078.06 1894.31,1076.09 1988.89,1076.09 1988.89,1038.72 1990.8,1038.72 
							"/>
		</g>
		<g>
			<polygon class="st16" points="1809.07,1078.06 1683.56,1078.06 1683.56,1076.09 1807.16,1076.09 1807.16,1014.92 
				1809.07,1014.92 			"/>
		</g>
		<g>
			<rect x="1683.56" y="1055.63" class="st12" width="86.36" height="11.8"/>
		</g>
		<g>
			<rect x="1894.31" y="1055.63" class="st12" width="50.8" height="11.8"/>
		</g>
		<g>
			<rect x="1664" y="672.74" class="st12" width="41.33" height="9.06"/>
		</g>
		<g>
			<rect x="1836.31" y="706.83" class="st12" width="64.13" height="9.06"/>
		</g>
		<g>
			<rect x="1753.39" y="706.83" class="st12" width="39.15" height="9.06"/>
		</g>
		<g>
			<rect x="1664" y="706.83" class="st12" width="77.56" height="9.06"/>
		</g>
		<g>
			<rect x="1717.91" y="672.74" class="st12" width="61.24" height="9.06"/>
		</g>
		<g>
			<rect x="1804.79" y="706.83" class="st12" width="16.82" height="9.06"/>
		</g>
		<g>
			<rect x="1854.69" y="673.25" class="st12" width="45.76" height="9.05"/>
		</g>
		<g>
			<rect x="1916.75" y="706.83" class="st12" width="39.02" height="9.06"/>
		</g>
		<g>
			<rect x="1794.21" y="673.25" class="st12" width="48.5" height="9.05"/>
		</g>
		<g>
			
				<linearGradient id="SVGID_5_" gradientUnits="userSpaceOnUse" x1="-10999.5547" y1="253.8886" x2="-10564.2617" y2="253.8886" gradientTransform="matrix(-0.9986 -0.0538 -0.0538 0.9986 -9836.002 -250.4814)">
				<stop  offset="0" style="stop-color:#81D3E4"/>
				<stop  offset="1" style="stop-color:#6076FA"/>
			</linearGradient>
			<path class="st17" d="M1094.76,606.68c28.19,63.06,44.03,122.74,23.27,149.36c-1.23,1.57-2.57,3.01-4.02,4.33
				c-15.99,14.44-47.43,14.76-100.52-6.73c-141.29-57.22-148-155.96-176.58-252.38c-28.17-95.22-126.58-79.13-129.09-78.7
				C937.13,340.68,1046.93,499.77,1094.76,606.68z"/>
			<g>
				
					<linearGradient id="SVGID_6_" gradientUnits="userSpaceOnUse" x1="-2971.3018" y1="3605.0459" x2="-2971.3018" y2="3294.6484" gradientTransform="matrix(0.7495 -0.662 0.662 0.7495 990.3695 -3876.8044)">
					<stop  offset="0" style="stop-color:#81D3E4"/>
					<stop  offset="1" style="stop-color:#6076FA"/>
				</linearGradient>
				<path class="st18" d="M1118.04,756.04c-1.23,1.57-2.57,3.01-4.02,4.33c-26.54-16.39-77.36-51.14-101.32-90.15
					c-11.3-18.41-20.8-39.12-30.87-61.01c-19.01-41.43-38.71-84.26-73.07-117.11l3.83-4.23c35.16,33.63,55.06,76.97,74.32,118.89
					c9.99,21.75,19.41,42.29,30.56,60.39C1040.82,705.19,1092.16,740.08,1118.04,756.04z"/>
			</g>
		</g>
		<g>
			
				<linearGradient id="SVGID_7_" gradientUnits="userSpaceOnUse" x1="-10957.6504" y1="119.3645" x2="-10751.5313" y2="119.3645" gradientTransform="matrix(-0.9986 -0.0538 -0.0538 0.9986 -9836.002 -250.4814)">
				<stop  offset="0" style="stop-color:#81D3E4"/>
				<stop  offset="1" style="stop-color:#6076FA"/>
			</linearGradient>
			<path class="st19" d="M1070.21,632.45c-1.66,4.19-2.74,6.57-2.86,6.84c-0.43-2.32-0.86-4.62-1.28-6.84
				c-18.85-99-44.06-109.34-119.63-195.95C869.15,347.92,913.6,265.4,913.6,265.4C1172.54,342.1,1087.81,588.19,1070.21,632.45z"/>
			<g>
				
					<linearGradient id="SVGID_8_" gradientUnits="userSpaceOnUse" x1="-1345.1613" y1="3013.5264" x2="-1345.1613" y2="2706.9089" gradientTransform="matrix(0.8707 -0.4917 0.4917 0.8707 781.0956 -2662.1448)">
					<stop  offset="0" style="stop-color:#81D3E4"/>
					<stop  offset="1" style="stop-color:#6076FA"/>
				</linearGradient>
				<path class="st20" d="M1070.21,632.45c-1.66,4.19-2.74,6.57-2.86,6.84c-0.43-2.32-0.86-4.62-1.28-6.84
					c8.39-85.59-41.98-186.02-57.81-204.04c-16.38-18.66-26.47-44.32-30.28-54c-0.64-1.6-1.24-3.13-1.44-3.48l3.65-2.11
					c0.32,0.58,0.74,1.65,1.67,3.99c3.73,9.47,13.63,34.62,29.52,52.71C1031.44,448.36,1077.91,549.28,1070.21,632.45z"/>
			</g>
		</g>
		<path class="st11" d="M2235.19,596.91H1074.53c-25.8,0-46.72-20.92-46.72-46.72V166.33c0-25.8,20.92-46.72,46.72-46.72h1160.65
			c25.8,0,46.72,20.92,46.72,46.72V550.2C2281.9,576,2260.99,596.91,2235.19,596.91z"/>
		<rect x="2021.69" y="256.63" class="st21" width="153.26" height="15.76"/>
		<rect x="2021.69" y="305.43" class="st21" width="176.16" height="15.76"/>
		<rect x="2021.42" y="353.95" class="st21" width="91.14" height="15.76"/>
		<rect x="2021.42" y="402.48" class="st21" width="140.42" height="15.76"/>
		<rect x="1093.49" y="1154.87" class="st22" width="470.19" height="16.12"/>
		<linearGradient id="SVGID_9_" gradientUnits="userSpaceOnUse" x1="1614.3" y1="1087.6921" x2="943.009" y2="1087.6921">
			<stop  offset="0" style="stop-color:#EEBE63"/>
			<stop  offset="1" style="stop-color:#DC3B57"/>
		</linearGradient>
		<rect x="1093.49" y="1079.63" class="st23" width="349.2" height="16.13"/>
		<linearGradient id="SVGID_10_" gradientUnits="userSpaceOnUse" x1="1614.2975" y1="1125.314" x2="943.0112" y2="1125.314">
			<stop  offset="0" style="stop-color:#EEBE63"/>
			<stop  offset="1" style="stop-color:#DC3B57"/>
		</linearGradient>
		<rect x="1093.49" y="1117.25" class="st24" width="377.32" height="16.12"/>
		<linearGradient id="SVGID_11_" gradientUnits="userSpaceOnUse" x1="1614.3053" y1="1162.9333" x2="943.0087" y2="1162.9333">
			<stop  offset="0" style="stop-color:#EEBE63"/>
			<stop  offset="1" style="stop-color:#DC3B57"/>
		</linearGradient>
		<rect x="1093.49" y="1154.87" class="st25" width="244.83" height="16.12"/>
		<rect x="1191.46" y="553.06" class="st26" width="136.61" height="17.25"/>
		<rect x="1158.32" y="522.34" class="st26" width="202.89" height="17.25"/>
		<linearGradient id="SVGID_12_" gradientUnits="userSpaceOnUse" x1="1260.0714" y1="190.3263" x2="1260.0714" y2="577.352">
			<stop  offset="0" style="stop-color:#81D3E4"/>
			<stop  offset="1" style="stop-color:#6076FA"/>
		</linearGradient>
		<path class="st27" d="M1295.35,285.52c0,19.97-15.79,36.15-35.27,36.15c-19.48,0-35.27-16.19-35.27-36.15
			c0-19.97,15.8-36.16,35.27-36.16C1279.55,249.36,1295.35,265.55,1295.35,285.52z"/>
		<linearGradient id="SVGID_13_" gradientUnits="userSpaceOnUse" x1="1259.7625" y1="190.3274" x2="1259.7625" y2="577.3552">
			<stop  offset="0" style="stop-color:#81D3E4"/>
			<stop  offset="1" style="stop-color:#6076FA"/>
		</linearGradient>
		<path class="st28" d="M1323.7,403.4v68.76c-19.48,9.09-41.14,14.13-63.94,14.13c-22.8,0-44.46-5.05-63.94-14.13V403.4
			c0-36.18,28.61-65.54,63.94-65.54C1295.08,337.86,1323.7,367.21,1323.7,403.4z"/>
		<rect x="1480.5" y="232.05" class="st22" width="328.55" height="21.71"/>
		<rect x="1844.34" y="232.05" class="st22" width="127.68" height="21.71"/>
		<rect x="1480.5" y="182.6" class="st22" width="154.28" height="21.71"/>
		<g>
			<linearGradient id="SVGID_14_" gradientUnits="userSpaceOnUse" x1="1259.7625" y1="215.3567" x2="1259.7625" y2="554.2773">
				<stop  offset="0" style="stop-color:#D3D8DE"/>
				<stop  offset="1" style="stop-color:#FFFFFF"/>
			</linearGradient>
			<path class="st29" d="M1259.76,490.59c-22.92,0-45.01-4.88-65.67-14.52c-56.63-26.38-93.22-84.62-93.22-148.37
				c0-89.82,71.28-162.89,158.9-162.89c87.61,0,158.9,73.07,158.9,162.89c0,63.75-36.6,121.98-93.23,148.37
				C1304.77,485.71,1282.68,490.59,1259.76,490.59z M1259.76,173.42c-82.99,0-150.51,69.21-150.51,154.29
				c0,60.38,34.66,115.55,88.31,140.54c19.56,9.12,40.49,13.75,62.2,13.75c21.71,0,42.64-4.63,62.2-13.74
				c53.65-24.99,88.31-80.16,88.31-140.54C1410.27,242.63,1342.75,173.42,1259.76,173.42z"/>
		</g>
		<g>
			<path class="st22" d="M1913.05,1259.5h-89.87c-9.3,0-16.83-7.54-16.83-16.83v-92.97c0-9.3,7.54-16.84,16.84-16.84h89.87
				c9.3,0,16.83,7.54,16.83,16.83v92.97C1929.88,1251.97,1922.35,1259.5,1913.05,1259.5z"/>
			<rect x="1862.27" y="1170.99" class="st30" width="11.69" height="50.39"/>
			
				<rect x="1862.13" y="1171.61" transform="matrix(-1.836970e-16 1 -1 -1.836970e-16 3064.303 -671.931)" class="st30" width="11.98" height="49.15"/>
		</g>
		<g>
			<g>
				<rect x="1503.84" y="294.9" class="st31" width="8.39" height="208.53"/>
			</g>
			<g>
				<rect x="1542.39" y="294.9" class="st31" width="8.39" height="208.53"/>
			</g>
			<g>
				<rect x="1580.93" y="294.9" class="st31" width="8.39" height="208.53"/>
			</g>
			<g>
				<rect x="1619.48" y="294.9" class="st31" width="8.39" height="208.53"/>
			</g>
			<g>
				<rect x="1658.03" y="294.9" class="st31" width="8.39" height="208.53"/>
			</g>
			<g>
				<rect x="1696.57" y="294.9" class="st31" width="8.39" height="208.53"/>
			</g>
			<g>
				<rect x="1735.12" y="294.9" class="st31" width="8.39" height="208.53"/>
			</g>
			<g>
				<rect x="1773.66" y="294.9" class="st31" width="8.39" height="208.53"/>
			</g>
			<g>
				<rect x="1812.21" y="294.9" class="st31" width="8.39" height="208.53"/>
			</g>
			<g>
				<rect x="1850.76" y="294.9" class="st31" width="8.39" height="208.53"/>
			</g>
			<g>
				<rect x="1889.3" y="294.9" class="st31" width="8.39" height="208.53"/>
			</g>
			<g>
				<rect x="1927.85" y="294.9" class="st31" width="8.39" height="208.53"/>
			</g>
		</g>
		<g>
			<g>
				<rect x="1503.84" y="357.24" class="st32" width="8.39" height="146.18"/>
			</g>
			<g>
				<rect x="1542.39" y="407.76" class="st32" width="8.39" height="95.66"/>
			</g>
			<g>
				<rect x="1580.93" y="325" class="st32" width="8.39" height="178.43"/>
			</g>
			<g>
				<rect x="1619.48" y="451.47" class="st32" width="8.39" height="51.95"/>
			</g>
			<g>
				<rect x="1658.03" y="399.16" class="st32" width="8.39" height="104.26"/>
			</g>
			<g>
				<rect x="1696.57" y="360.11" class="st32" width="8.39" height="143.32"/>
			</g>
			<g>
				<rect x="1735.12" y="410.99" class="st32" width="8.39" height="92.44"/>
			</g>
			<g>
				<rect x="1773.66" y="346.85" class="st32" width="8.39" height="156.57"/>
			</g>
			<g>
				<rect x="1812.21" y="417.44" class="st32" width="8.39" height="85.99"/>
			</g>
			<g>
				<rect x="1850.76" y="365.84" class="st32" width="8.39" height="137.59"/>
			</g>
			<g>
				<rect x="1889.3" y="434.63" class="st32" width="8.39" height="68.79"/>
			</g>
			<g>
				<rect x="1927.85" y="365.84" class="st32" width="8.39" height="137.59"/>
			</g>
		</g>
		<g>
			<path class="st11" d="M1559.21,1362.54H840.45c-19.14,0-34.66-15.52-34.66-34.66V657.44c0-19.14,15.52-34.66,34.66-34.66h718.76
				c19.14,0,34.66,15.52,34.66,34.66v670.44C1593.87,1347.02,1578.36,1362.54,1559.21,1362.54z"/>
			<g>
				<g>
					<path class="st33" d="M1097.86,846.86c15.97-45.77,1.56-95.12-32.54-124.86c-8.13-7.09-17.37-13.06-27.59-17.61
						c-2.26-1-4.57-1.94-6.91-2.8c-23.6-8.65-48.16-8.61-70.37-1.48c-32.04,10.28-59.16,35.32-71.34,70.22
						c-4.02,11.52-6.12,23.27-6.46,34.86c-1.4,47.92,27.1,93.39,73.51,110.4C1013.8,936.72,1077.24,905.95,1097.86,846.86z
						 M965.49,888.81c-34.79-12.75-56.17-46.85-55.11-82.77c0.26-8.69,1.83-17.5,4.84-26.14c9.12-26.17,29.46-44.93,53.48-52.64
						c16.65-5.34,35.07-5.38,52.76,1.11c1.76,0.64,3.49,1.35,5.18,2.1c7.67,3.41,14.6,7.89,20.7,13.21
						c25.56,22.29,36.37,59.28,24.4,93.61C1056.28,881.59,1008.71,904.65,965.49,888.81z"/>
				</g>
				<g>
					<path class="st34" d="M968.7,727.26l-8.27-27.15c-32.04,10.28-59.16,35.32-71.34,70.22c-4.02,11.52-6.12,23.27-6.46,34.86
						l27.74,0.85c0.26-8.69,1.83-17.5,4.84-26.14C924.35,753.73,944.68,734.97,968.7,727.26z"/>
				</g>
				<g>
					<path class="st35" d="M1026.64,730.46l11.08-26.08c-2.26-1-4.57-1.94-6.91-2.8c-23.6-8.65-48.16-8.61-70.37-1.48l8.27,27.15
						c16.65-5.34,35.07-5.38,52.76,1.11C1023.23,729.01,1024.95,729.72,1026.64,730.46z"/>
				</g>
				<g>
					<path class="st12" d="M1065.32,722c-8.13-7.09-17.37-13.06-27.59-17.61l-11.08,26.08c7.67,3.41,14.6,7.89,20.7,13.21
						L1065.32,722z"/>
				</g>
			</g>
			<g>
				<rect x="1412.23" y="1077.55" class="st12" width="38.47" height="135.09"/>
			</g>
			<g>
				<rect x="1355.03" y="1115.44" class="st12" width="38.47" height="97.2"/>
			</g>
			<g>
				<rect x="1467.71" y="1014.95" class="st12" width="38.47" height="197.69"/>
			</g>
			<g>
				<polygon class="st12" points="1499.98,916.19 1499.3,911.92 1397.77,928.97 1364.86,1000.88 1255.39,1008.5 1219.93,1062.11 
					1136.25,1059.99 1136.14,1064.31 1222.13,1066.49 1257.73,1012.67 1367.62,1005.02 1400.64,932.87 				"/>
			</g>
			<path class="st35" d="M1375.91,736.18h109.41c6.91,0,12.51-5.74,12.51-12.82l0,0c0-7.08-5.6-12.82-12.51-12.82h-109.41
				c-6.91,0-12.51,5.74-12.51,12.82l0,0C1363.4,730.44,1369,736.18,1375.91,736.18z"/>
			<path class="st12" d="M1375.91,780.91h109.41c6.91,0,12.51-5.74,12.51-12.82l0,0c0-7.08-5.6-12.82-12.51-12.82h-109.41
				c-6.91,0-12.51,5.74-12.51,12.82l0,0C1363.4,775.17,1369,780.91,1375.91,780.91z"/>
			<path class="st12" d="M1375.91,825.65h109.41c6.91,0,12.51-5.74,12.51-12.82l0,0c0-7.08-5.6-12.82-12.51-12.82h-109.41
				c-6.91,0-12.51,5.74-12.51,12.82l0,0C1363.4,819.91,1369,825.65,1375.91,825.65z"/>
			<g>
				<polygon class="st12" points="1177.86,758.36 1115.28,758.36 1115.28,755.89 1176.87,755.89 1209.81,722.13 1250.17,722.13 
					1250.17,724.59 1210.81,724.59 				"/>
			</g>
			<g>
				<polygon class="st12" points="1237.17,870.41 1156.64,870.41 1130.55,843.66 1132.24,841.91 1157.63,867.95 1237.17,867.95 				
					"/>
			</g>
			<rect x="1215.77" y="738.42" class="st35" width="83.47" height="10.5"/>
			<rect x="1190.31" y="845.48" class="st35" width="67.2" height="10.5"/>
		</g>
		<g>
			<linearGradient id="SVGID_15_" gradientUnits="userSpaceOnUse" x1="608.04" y1="1226.1323" x2="851.9149" y2="1226.1323">
				<stop  offset="0" style="stop-color:#81D3E4"/>
				<stop  offset="1" style="stop-color:#6076FA"/>
			</linearGradient>
			<path class="st36" d="M629.35,895.78c21.03-10.31,41.95,58.32,41.95,58.32c35.75,48.41,85.69-15.99,80.81,56.38
				c-8.55,126.65,142.2,39.83,72.65,172.04c-69.55,132.22,61.41,74.76,18.19,181.37c-43.22,106.61,12.79,233.77-52.23,181.51
				c0,0-57.26-128.71-116.32-168.54c-59.05-39.82,35.38-87.08,16.91-141.17c-26.84-78.57-91.5-75.48-44.88-159.91
				C693.06,991.36,557.87,930.83,629.35,895.78z"/>
			<g>
				<path class="st22" d="M811.32,1496.97c-28.19-20.32-61.18-161.94-63.15-246.29c-1.01-43.21-13.47-61.21-24.46-77.09
					c-10.51-15.18-19.58-28.29-14.3-58.39c10.1-57.53-16.46-82.37-16.73-82.61l3.07-3.59c1.19,1.06,28.85,26.68,18.24,87.05
					c-4.93,28.13,3.21,39.89,13.51,54.78c10.82,15.62,24.28,35.07,25.32,79.74c2.11,90.53,35.84,224.24,61.17,242.5L811.32,1496.97z
					"/>
			</g>
			<g>
				<linearGradient id="SVGID_16_" gradientUnits="userSpaceOnUse" x1="786.9409" y1="1365.635" x2="1007.4838" y2="1365.635">
					<stop  offset="0" style="stop-color:#81D3E4"/>
					<stop  offset="1" style="stop-color:#6076FA"/>
				</linearGradient>
				<path class="st37" d="M821.87,1507.47c-3.64,0-7.59-0.43-11.92-1.33c-10.87-2.25-17.99-8.13-21.18-17.46
					c-7.6-22.28,10.01-58.47,24.3-75.91c0.23-0.29,24.15-30.25,21.6-71.79c-0.43-6.96-1.13-13.41-1.75-19.09
					c-1.8-16.44-3.1-28.32,3.79-36.24c6.07-6.99,17.78-10.02,39.18-10.13c37.51-0.18,52.35-16.1,64.27-28.89
					c5.06-5.43,9.84-10.56,15.65-13.81l0,0c18.69-10.46,38.49-12,47.09-3.66c4.08,3.96,7.53,11.73,0.77,26.21
					c-6.17,13.23-14.18,21.6-20.62,28.34c-8.65,9.06-14.38,15.04-11.4,26.97c0.7,2.79,1.51,5.62,2.32,8.46
					c5.78,20.28,12.34,43.26-21.51,58.86c-7.19,3.31-13.73,5.94-19.51,8.27c-23.64,9.51-37.9,15.24-54,50.09
					c-3.12,6.75-5.87,13.14-8.53,19.32C857.71,1485.16,848.1,1507.47,821.87,1507.47z M958.04,1237.01
					c-5.18,2.9-9.5,7.54-14.52,12.92c-12.53,13.44-28.12,30.18-67.62,30.37c-19.67,0.09-30.68,2.72-35.72,8.52
					c-5.5,6.34-4.3,17.32-2.64,32.54c0.63,5.73,1.34,12.24,1.78,19.32c2.67,43.5-21.65,73.89-22.68,75.16
					c-14.14,17.27-30.16,51.63-23.47,71.27c2.61,7.63,8.56,12.46,17.7,14.36c31.88,6.6,40.68-13.84,55.27-47.73
					c2.67-6.21,5.44-12.63,8.58-19.44c16.89-36.56,32.65-42.9,56.51-52.49c5.72-2.3,12.22-4.92,19.3-8.18
					c30.15-13.89,24.71-32.96,18.95-53.16c-0.83-2.89-1.65-5.77-2.36-8.62c-3.63-14.53,3.53-22.02,12.59-31.49
					c6.52-6.81,13.9-14.54,19.75-27.06c3.06-6.56,5.59-15.47,0.23-20.67C992.64,1225.78,974.73,1227.66,958.04,1237.01
					L958.04,1237.01z"/>
			</g>
			<g>
				<linearGradient id="SVGID_17_" gradientUnits="userSpaceOnUse" x1="805.791" y1="1398.5106" x2="971.3231" y2="1398.5106">
					<stop  offset="0" style="stop-color:#81D3E4"/>
					<stop  offset="1" style="stop-color:#6076FA"/>
				</linearGradient>
				<path class="st38" d="M810.45,1535.06l-4.66-0.25c0.23-4.48,6.1-110.17,47.5-141.1c45.41-33.93,59.74-70.4,66.55-94.88
					c8.04-28.84,48.94-36.55,50.67-36.87l0.81,4.7c-0.4,0.08-39.76,7.51-47,33.47c-7.01,25.16-21.71,62.62-68.29,97.43
					C816.42,1427.17,810.5,1533.98,810.45,1535.06z"/>
			</g>
			<linearGradient id="SVGID_18_" gradientUnits="userSpaceOnUse" x1="746.0153" y1="1261.9619" x2="938.7938" y2="1261.9619">
				<stop  offset="0" style="stop-color:#81D3E4"/>
				<stop  offset="1" style="stop-color:#6076FA"/>
			</linearGradient>
			<path class="st39" d="M905.09,1002.44c-29.42-10.34-23.31,47.79-35.74,90.8c-12.43,43.01-138.31,18.77-85.47,126.47
				c52.84,107.7-66.82,36.02-31.08,130.01c35.74,93.99,3.11,194.51,41.96,168.94c38.85-25.57,21.83-143.93,62.23-157.99
				c40.41-14.06,47-30.47,7-68.69c-40.01-38.24,104.82-76.19,69.08-153.39C897.33,1061.38,939.09,1014.39,905.09,1002.44z"/>
			<g>
				<path class="st22" d="M812.79,1514.15c-3.7-16.09-35.3-157.69-5.81-174.8c25.99-15.08,25.35-73.76,21.29-129.16
					c-3.59-49.04,57.86-71.97,60.48-72.92l1.55,4.5c-0.61,0.22-60.71,22.66-57.38,68.06c4.16,56.9,4.61,117.28-23.64,133.68
					c-22.39,13-1.78,126.79,8.06,169.55L812.79,1514.15z"/>
			</g>
			<linearGradient id="SVGID_19_" gradientUnits="userSpaceOnUse" x1="701.7794" y1="1545.4125" x2="879.6682" y2="1545.4125">
				<stop  offset="0" style="stop-color:#E59148"/>
				<stop  offset="1" style="stop-color:#F1CC52"/>
			</linearGradient>
			<polygon class="st40" points="879.67,1463.73 837.66,1627.1 743.78,1627.1 701.78,1463.73 			"/>
			<linearGradient id="SVGID_20_" gradientUnits="userSpaceOnUse" x1="701.7794" y1="1545.4125" x2="879.6682" y2="1545.4125">
				<stop  offset="0" style="stop-color:#B37239"/>
				<stop  offset="1" style="stop-color:#F1CC52"/>
			</linearGradient>
			<path class="st41" d="M879.67,1463.73c0,0-92.48,17.8-92.48,163.37h-43.41l-42-163.37H879.67z"/>
		</g>
		<g>
			<polygon class="st21" points="1133.65,54.63 1133.65,68.5 1001.9,68.5 1001.9,203.55 988.38,203.55 988.38,54.63 			"/>
		</g>
		<rect x="2218.91" y="14.27" class="st21" width="107.24" height="7.71"/>
		<rect x="2547.64" y="294.96" class="st42" width="83.72" height="24.67"/>
		<rect x="2490.23" y="304.35" class="st42" width="49.38" height="3.69"/>
		<rect x="2490.23" y="309.65" class="st42" width="49.38" height="9.99"/>
		<rect x="2323.79" y="14.27" class="st21" width="4.71" height="90.78"/>
		<g>
			<g>
				<rect x="1010.04" y="1251.5" class="st43" width="132.34" height="8.05"/>
			</g>
			<g>
				
					<rect x="1027.77" y="1280.52" transform="matrix(-1 -1.224647e-16 1.224647e-16 -1 2067.1453 2927.2749)" class="st44" width="11.6" height="366.24"/>
			</g>
			<g>
				<rect x="1121.67" y="1249.22" class="st45" width="91.99" height="11.5"/>
			</g>
			<g>
				<rect x="1150.25" y="1151.09" class="st46" width="34.83" height="108.46"/>
			</g>
			<g>
				<rect x="962.57" y="1259.69" class="st47" width="509.68" height="20.82"/>
			</g>
			<g>
				<path class="st48" d="M864.74,1133.65c0,0-5.57,80.14,9.7,89.73c9.56,6.01,47.72,26.27,46.59,30.07
					c-1.13,3.8-21.54,33.82-21.54,33.82s-73.29-49.47-75.64-65.06c-2.31-15.23,3.61-117.33,13.68-122.04
					c7.55-3.52,11.53-0.61,21.04,6.63C871.9,1116.94,864.74,1133.65,864.74,1133.65z"/>
			</g>
			<g>
				<g>
					<g>
						<path class="st49" d="M954.91,1596.76c0,0-2.28,16.22-2.56,18.65c-0.28,2.44-25.35-1.44-25.35-1.44l-2.03-19.3
							C924.96,1594.67,951.77,1594.47,954.91,1596.76z"/>
					</g>
				</g>
			</g>
			<g>
				<g>
					<g>
						<path class="st50" d="M952.6,1613.34c0,0,7.95,9.77,15.63,14.03c7.68,4.26,19.75,5.95,24.29,10.36
							c3.28,3.18,11.94,16.88-19.96,16.6c-31.9-0.27-47.28,1.94-50.7-3.32c-3.42-5.26,4.95-38.77,4.95-38.77
							S934.37,1615.03,952.6,1613.34z"/>
					</g>
				</g>
			</g>
			<g>
				<g>
					<g>
						<path class="st49" d="M1115.5,1596.91c0,0-2.28,16.21-2.56,18.65c-0.28,2.44-25.35-1.44-25.35-1.44l-2.03-19.3
							C1085.56,1594.82,1112.37,1594.62,1115.5,1596.91z"/>
					</g>
				</g>
			</g>
			<g>
				<g>
					<g>
						<path class="st50" d="M1113.2,1613.5c0,0,7.94,9.77,15.62,14.03c7.68,4.26,35.95,7.76,40.49,12.16
							c3.28,3.18,8.73,15.99-36.16,14.79c-31.89-0.85-47.28,1.94-50.7-3.32c-3.42-5.26,4.94-38.77,4.94-38.77
							S1094.52,1615.38,1113.2,1613.5z"/>
					</g>
				</g>
			</g>
			<g>
				<g>
					<g>
						<path class="st50" d="M874.06,1316.66c0,0,91.13,15.81,111.71,19.12c20.58,3.31,132.19,31.78,146.14,40.45
							c11.11,6.91-5.83,172.74-9.79,236.01h-43.96l-3.19-189.79c-52.75,1.35-90.39-12.65-128.8-6.67
							c-38.42,5.98-70.44,14.48-94.85-19.08C851.34,1396.71,850.43,1324,874.06,1316.66z"/>
					</g>
				</g>
			</g>
			<g>
				<g>
					<g>
						<path class="st50" d="M963.88,1612.4l-42.83-2.71l-4.18-187.22c-22.7,0.58-30.49-0.9-48.87-3.18l-34.59-82.41
							c30.31,6.21,127.43,31.32,140.38,39.37C984.9,1383.15,967.84,1549.13,963.88,1612.4z"/>
					</g>
				</g>
			</g>
			<g>
				<g>
					<g>
						<path class="st51" d="M916.01,966.5c0,0,33.41-9.46,46.15,17.13c12.74,26.58,6.97,76.98-9.87,81.72
							c-16.83,4.74-41.05-0.72-48.03-17.27c-6.99-16.55-12.57-40.06-10.9-55.28C895.04,977.57,907.14,970.14,916.01,966.5z"/>
					</g>
				</g>
			</g>
			<g>
				<g>
					<g>
						<path class="st51" d="M943.56,1060.04c0,0-0.37,20.22,1.81,24.53c2.17,4.31-46.51,3.23-46.51,3.23s7.67-24.28,3.32-44.97
							C897.86,1022.36,943.56,1060.04,943.56,1060.04z"/>
					</g>
				</g>
			</g>
			<g>
				<g>
					<g>
						<path class="st52" d="M899.55,1035.18c0,0,2.61,5.43,15.21,4.55c12.6-0.87,29.22-16.46,34.58-17.85
							c5.35-1.4,5.67-4.52,5.67-4.52l2.83,5.16l5.48,0.86c0,0-3.73-15.62,4.39-21.12c8.12-5.5-3.65-49.8-44.75-39.12
							c0,0-31.37,5.89-31.79,23.84C890.75,1004.93,893.46,1025.67,899.55,1035.18z"/>
					</g>
				</g>
			</g>
			<g>
				<g>
					<g>
						<path class="st43" d="M947.93,1084.05c0,0-0.14-8.24-3.78-9.03c-3.64-0.78-38.28-5.67-42.74-3.87l-1.92,10.87
							C899.49,1082.02,908.1,1087.46,947.93,1084.05z"/>
					</g>
				</g>
			</g>
			<g>
				<g>
					<g>
						<path class="st51" d="M957.95,1013.68c-0.93-6.75-8.42-14.5-12.71-3.99c-4.29,10.52,2.9,25.83,7.7,25.01
							C957.76,1033.87,959.22,1022.84,957.95,1013.68z"/>
					</g>
				</g>
			</g>
			<g>
				<g>
					<g>
						<path class="st53" d="M1092.99,1181.35c-0.02-0.01-0.04-0.01-0.06-0.01C1093.19,1181.45,1093.22,1181.46,1092.99,1181.35z"/>
					</g>
				</g>
			</g>
			<g>
				<g>
					<g>
						<path class="st52" d="M906.27,971.32c0,0-40.73-1.97-7.11,63.22L906.27,971.32z"/>
					</g>
				</g>
			</g>
			<g>
				<g>
					<polygon class="st54" points="815.51,1634.61 818.54,1643.34 946.57,1602.68 940.43,1584.99 					"/>
				</g>
			</g>
			<g>
				<g>
					<rect x="936.41" y="1453.77" class="st54" width="14.55" height="142.68"/>
				</g>
			</g>
			<g>
				<g>
					<rect x="900.77" y="1446.19" class="st55" width="85.83" height="8.41"/>
				</g>
			</g>
			<g>
				<g>
					<polygon class="st54" points="1072.98,1634.61 1069.95,1643.34 941.93,1602.68 947.55,1583.88 					"/>
				</g>
			</g>
			<g>
				<g>
					<polygon class="st54" points="982.78,1642.41 982.78,1652.58 941.93,1602.68 947.55,1583.88 					"/>
				</g>
			</g>
			<g>
				<g>
					<path class="st56" d="M1084.94,1646.76c0,6.78-5.36,12.27-11.96,12.27c-6.61,0-11.97-5.49-11.97-12.27
						c0-6.77,5.36-12.26,11.97-12.26C1079.58,1634.49,1084.94,1639.99,1084.94,1646.76z"/>
				</g>
			</g>
			<g>
				<g>
					<path class="st56" d="M983.8,1646.76c0,6.78-5.36,12.27-11.97,12.27c-6.61,0-11.96-5.49-11.96-12.27
						c0-6.77,5.35-12.26,11.96-12.26C978.43,1634.49,983.8,1639.99,983.8,1646.76z"/>
				</g>
			</g>
			<g>
				<g>
					<path class="st56" d="M827.48,1646.76c0,6.78-5.36,12.27-11.97,12.27c-6.61,0-11.97-5.49-11.97-12.27
						c0-6.77,5.36-12.26,11.97-12.26C822.12,1634.49,827.48,1639.99,827.48,1646.76z"/>
				</g>
			</g>
			<g>
				<path class="st43" d="M1034.83,1446.19H853.65c-6.12,0-11.07-4.96-11.07-11.07v-9.7c0-6.12,4.96-11.07,11.07-11.07h181.18
					c6.12,0,11.07,4.96,11.07,11.07v9.7C1045.91,1441.23,1040.95,1446.19,1034.83,1446.19z"/>
			</g>
			<g>
				<rect x="1395.44" y="1280.52" class="st44" width="11.6" height="366.24"/>
			</g>
			<g>
				<path class="st57" d="M1307.02,1203.34h-278.7c-6.1,0-11.05-4.95-11.05-11.05V996.86c0-6.1,4.95-11.05,11.05-11.05h278.7
					c6.1,0,11.05,4.95,11.05,11.05v195.43C1318.06,1198.4,1313.12,1203.34,1307.02,1203.34z"/>
			</g>
			<g>
				<rect x="1029.04" y="997.58" class="st58" width="277.24" height="171.68"/>
			</g>
			<g>
				<path class="st59" d="M1293.96,1185.45c0,4.88-5,8.84-11.17,8.84c-6.17,0-11.18-3.96-11.18-8.84c0-4.88,5.01-8.84,11.18-8.84
					C1288.96,1176.61,1293.96,1180.57,1293.96,1185.45z"/>
			</g>
			<g>
				<path class="st46" d="M1229.93,1259.97v-3.87c0,0-5.31-24.08-42.86-24.08c-37.55,0-36.79,27.95-36.79,27.95H1229.93z"/>
			</g>
			<g>
				<g>
					<path class="st51" d="M1149.83,1235.6c0,0,8.16-0.65,11.15-2.5c2.99-1.85,20.87-14.18,25.07-12.2
						c4.2,1.97,32.15,10.75,31.18,14.94c-0.97,4.19-3.56,3.79-5.53,3.05c-1.97-0.74-22.27-5.11-24.06-4.37
						c0,0,19.94,7.46,20.02,12.9c0.08,5.44-4.17,6.77-6.06,8.82c-1.89,2.06-4.16,7.16-9.3,7.56c-5.14,0.39-30.21-8.55-35.37-8.96
						c-5.16-0.41-14.71,0.33-15.36-0.54C1140.91,1253.43,1149.83,1235.6,1149.83,1235.6z"/>
				</g>
			</g>
			<g>
				<g>
					<g>
						<path class="st48" d="M1001.32,1095.46c-26.01-4.68-53.39-11.41-53.39-11.41l-48.44-2.02c0,0-44.46,10.03-61.97,18.14
							c-1.66,0.77-1.67,40.66-6.23,51.12l14.52,31.39c0,0,8.38,62.19,10.12,89.85c0.8,12.69-2.26,122.7-2.26,122.7
							s4.35,2.2,37.41,5.94c33.06,3.74,115.66-1.35,116.18-5.35c0.53-4-16-149.05-16.73-156.56c-1.12-11.53,3.25-64.8,3.25-64.8
							c6.23,8.58,22.11,47.31,38.66,65.74c9.74,10.84,57.94,17.49,67.03,17.8c19.78,0.68,55.87,4.72,56.92,2.74
							c0.84-1.18,3.15-32.84,0.88-33.61c-1.98-0.68-68.99-4.63-86.16-13.97c-6.28-3.41-25.05-45.38-25.05-45.38
							S1015.66,1102.07,1001.32,1095.46z"/>
					</g>
				</g>
			</g>
			<g>
				<path class="st43" d="M914.04,1392.04h-97.69c-11.74,0-21.26-9.52-21.26-21.26v-156.55c0-11.74,9.52-21.26,21.26-21.26h97.69
					c11.74,0,21.26,9.52,21.26,21.26v156.55C935.3,1382.52,925.78,1392.04,914.04,1392.04z"/>
			</g>
			<g>
				<path class="st43" d="M910.45,1438.27c-20.67,0-37.44-7.12-49.84-21.15c-28.03-31.73-22.99-87.49-22.76-89.85
					c0.43-4.39,4.25-7.61,8.53-7.16c4.29,0.43,7.42,4.35,6.99,8.74c-0.06,0.63-4.53,51.18,18.83,77.57
					c9.45,10.67,21.96,15.86,38.24,15.86c4.31,0,7.8,3.58,7.8,8C918.25,1434.69,914.77,1438.27,910.45,1438.27z"/>
			</g>
			<g>
				<g>
					<g>
						<path class="st60" d="M1128.33,1020.32h-78.04c-0.87,0-1.58-0.71-1.58-1.58v-5.9c0-0.87,0.71-1.58,1.58-1.58h78.04
							c0.87,0,1.58,0.71,1.58,1.58v5.9C1129.91,1019.61,1129.2,1020.32,1128.33,1020.32z"/>
					</g>
				</g>
			</g>
			<g>
				<g>
					<g>
						<path class="st60" d="M1128.33,1039.77h-78.04c-0.88,0-1.58-0.71-1.58-1.58v-5.91c0-0.87,0.71-1.58,1.58-1.58h78.04
							c0.88,0,1.58,0.71,1.58,1.58v5.9C1129.91,1039.07,1129.2,1039.77,1128.33,1039.77z"/>
					</g>
				</g>
			</g>
			<g>
				<g>
					<g>
						<path class="st60" d="M1124.59,1155.58h-70.56c-2.94,0-5.33-2.38-5.33-5.33v-91.91c0-2.94,2.38-5.32,5.32-5.32h70.56
							c2.94,0,5.32,2.38,5.32,5.32v91.92C1129.91,1153.2,1127.53,1155.58,1124.59,1155.58z"/>
					</g>
				</g>
			</g>
			<g>
				<g>
					<g>
						<path class="st60" d="M1282.5,1155.58h-127.76c-4.66,0-8.43-3.77-8.43-8.43v-127.47c0-4.66,3.77-8.43,8.43-8.43h127.76
							c4.65,0,8.43,3.77,8.43,8.43v127.48C1290.92,1151.81,1287.15,1155.58,1282.5,1155.58z"/>
					</g>
				</g>
			</g>
		</g>
		<g>
			<g>
				<polygon class="st50" points="2216.54,990.17 2137.1,1034.93 2057.32,906.24 2153.81,871.88 				"/>
			</g>
			<g>
				<polygon class="st43" points="2211.5,986.3 2137.2,1028.16 2062.61,907.81 2152.84,875.68 				"/>
			</g>
			<g>
				<path class="st51" d="M2238.71,963.79c0,0-13.83-6.78-19.9-10.32c-6.07-3.54-21.68-8.41-22.94-9.56
					c-1.27-1.15-46.28-4-49.01-6.42c-2.73-2.41-5.39,5.66,6.28,8.28c11.66,2.62,27.9,9.03,28.79,13.7
					c0.89,4.67-11.98,5.78-13.28,9.63c-1.31,3.85,0.36,2.99,2.21,3.81c1.84,0.83,15.31-6.82,21.23-4.65
					c5.92,2.17,14.97-0.83,19.51,0.76c4.53,1.59,26.6,9.21,26.6,9.21L2238.71,963.79z"/>
			</g>
			<g>
				<path class="st51" d="M2133.23,1018.79c0,0-11.62-10.72-17.23-15.21c-5.62-4.48-16.18-17.67-17.72-18.44
					c-1.56-0.77-21.7-43.15-24.98-44.85c-3.28-1.7,3.1-7.41,10.05,2.85c6.96,10.25,19.17,23.44,23.81,22.48
					c4.64-0.96,0.65-13.83,3.69-16.59c3.03-2.76,2.89-0.81,4.36,0.65c1.48,1.46-0.31,17.44,3.99,22.32
					c4.3,4.88,5.06,14.79,8.3,18.55c3.23,3.77,18.81,22.12,18.81,22.12L2133.23,1018.79z"/>
			</g>
			<g>
				<path class="st49" d="M2383.38,1591.6c0,0,2.52,17.88,2.83,20.56c0.31,2.69,27.95-1.58,27.95-1.58l2.24-21.28
					C2416.4,1589.3,2386.85,1589.08,2383.38,1591.6z"/>
			</g>
			<g>
				<path class="st50" d="M2385.91,1609.89c0,0-8.76,10.77-17.23,15.47c-8.46,4.69-21.77,6.56-26.78,11.41
					c-3.61,3.51-13.17,18.62,22.01,18.31c35.18-0.3,52.14,2.14,55.91-3.65c3.77-5.79-5.45-42.75-5.45-42.75
					S2406.04,1611.75,2385.91,1609.89z"/>
			</g>
			<g>
				<path class="st49" d="M2185.36,1591.6c0,0,2.51,17.88,2.83,20.56c0.31,2.69,27.95-1.58,27.95-1.58l2.24-21.28
					C2218.38,1589.3,2188.81,1589.08,2185.36,1591.6z"/>
			</g>
			<g>
				<path class="st50" d="M2187.89,1609.89c0,0-8.75,10.77-17.22,15.47c-8.47,4.69-39.63,8.55-44.65,13.41
					c-3.61,3.51-9.62,17.64,39.87,16.31c35.17-0.94,52.14,2.14,55.91-3.65c3.77-5.79-5.46-42.75-5.46-42.75
					S2208.49,1611.96,2187.89,1609.89z"/>
			</g>
			<g>
				<path class="st50" d="M2360.5,1132.2c0,0,25.97,42.3,24.03,80.53c-1.94,38.23,9.41,79.97,13.32,119.91
					c4.35,44.53,22.15,149.93,22.79,173.75c0.65,23.82-2.75,99.87-2.75,99.87l-35.63,0.83c0,0-29.93-184.28-37.67-203.08
					c-7.76-18.8-46.18-152.85-47.48-167.89C2295.81,1221.08,2360.5,1132.2,2360.5,1132.2z"/>
			</g>
			<g>
				<path class="st50" d="M2223.8,1137.93c0,0-19.58,104.79-22.15,128.19c-2.59,23.4-4.31,113.24-5.6,127.87
					c-1.29,14.63-8.61,191.38-15.5,213.11h45.55c0,0,34.97-128.49,34.97-189.29c0-60.8,27.01-132.17,44.45-172.28
					c17.43-40.11,57.34-41.06,68.07-115.48C2373.57,1130.04,2238.3,1114.33,2223.8,1137.93z"/>
			</g>
			<g>
				<path class="st51" d="M2317.16,776.61c0,0-34.85-13.35-50.93,13.85c-16.07,27.2-14.52,81.66,3.05,88.35
					c17.57,6.7,43.96,3.2,52.96-13.83c8.99-17.02,17.11-41.62,16.72-58.07C2338.57,790.47,2326.32,781.36,2317.16,776.61z"/>
			</g>
			<g>
				<path class="st51" d="M2273.06,880.06c0,0,1.46,9.65-0.94,14.4c-2.39,4.75,45.16,4.88,45.16,4.88s3.86-25.85,11.18-47.69
					C2335.78,829.8,2273.06,880.06,2273.06,880.06z"/>
			</g>
			<g>
				<path class="st52" d="M2328.46,851.64c0,0-3.29,5.55-16.68,3.4c-13.4-2.15-29.75-20.43-35.34-22.43
					c-5.59-2.01-5.65-5.38-5.65-5.38l-3.5,5.24l-5.94,0.39c0,0,5.42-16.35-2.75-23.01c-8.18-6.67,8.49-52.91,51.45-37.51
					c0,0,33,9.33,31.81,28.56C2340.65,820.14,2335.84,842.06,2328.46,851.64z"/>
			</g>
			<g>
				<path class="st43" d="M2269.29,893.88c0,0,0.16-9.08,4.17-9.95c4.01-0.87,44.32-4.84,49.24-2.86v10.58
					C2322.7,891.66,2313.21,897.64,2269.29,893.88z"/>
			</g>
			<g>
				<path class="st51" d="M2271.68,820.23c0.76-3.23,8.76-12.45,11.83-2.57c3.07,9.87-4.64,23.16-8.93,22.02
					C2270.29,838.54,2269.78,828.41,2271.68,820.23z"/>
			</g>
			<g>
				<path class="st53" d="M2109.35,1001.16c0.02-0.01,0.04-0.01,0.06,0C2109.14,1001.28,2109.1,1001.29,2109.35,1001.16z"/>
			</g>
			<g>
				<path class="st61" d="M2389.8,1232.96c0,0-21.38,6.45-57.83,10.57c-36.46,4.12-127.53-1.49-128.1-5.9
					c-0.58-4.42,19.59-164.39,18.44-172.63c-1.15-8.23-1.77-37.59-1.77-37.59c-0.44,8.04-8.44,40.9-18.09,58.81
					c-3.49,6.47-15.18,26.75-20.82,22.14c-27.28-22.33-69.53-106.49-72.21-107.2c2.24-1,20.02-9.39,22.51-10.25
					c2.19-0.75,21.87,20.62,33.79,33.86c5.32,5.9,9.1,10.19,9.1,10.19c3.44-7.94,15.99-57.98,19.89-75.3
					c8.79-39.06,7.44-40.68,7.44-40.68c26.67-8.27,67.14-25.1,67.14-25.1l53.41-2.23c0,0,49.03,11.06,68.33,20
					c1.83,0.85,1.84,44.83,6.86,56.36l-16.01,34.62c0,0-9.24,68.56-11.16,99.06C2369.84,1115.69,2389.8,1232.96,2389.8,1232.96z"/>
			</g>
			<g>
				<path class="st61" d="M2400.12,1025.11c-1.4,4.61-7.73,8.52-11.85,10.22c-2.63,1.09-5.58,1.44-8.55,0.88l-2.1-0.4l0,0
					l-36.6-6.96c0,0-8.01-94.55,50-117.21C2392.57,912.16,2412.92,982.78,2400.12,1025.11z"/>
			</g>
			<g>
				<path class="st62" d="M2388.27,1035.33L2388.27,1035.33c-2.63,1.09-5.58,1.44-8.55,0.88l-2.1-0.4l0,0l3.61-48.32
					L2388.27,1035.33z"/>
			</g>
			<g>
				<path class="st62" d="M2174.83,1034.97l-4.47,19.42c0,0-4.85-19.49-4.62-29.61C2171.05,1030.68,2174.83,1034.97,2174.83,1034.97
					z"/>
			</g>
			<g>
				<path class="st52" d="M2327.1,779.82c0,0,45.67-5.86,0.77,72.36L2327.1,779.82z"/>
			</g>
			<g>
				<polygon class="st50" points="2094.05,899.33 2089.4,891.15 2125.98,878.22 2130.62,886.35 				"/>
			</g>
		</g>
	</g>
</g>
</svg>
